<mxfile host="app.diagrams.net" modified="2021-11-28T17:44:05.245Z" agent="5.0 (Windows NT 10.0; Win64; x64) AppleWebKit/537.36 (KHTML, like Gecko) Chrome/96.0.4664.45 Safari/537.36" etag="hrR3Q-2awTJAY8cWtXE9" version="15.8.6" type="github">
  <diagram id="6a731a19-8d31-9384-78a2-239565b7b9f0" name="Page-1">
    <mxGraphModel dx="1170" dy="647" grid="1" gridSize="10" guides="1" tooltips="1" connect="1" arrows="1" fold="1" page="1" pageScale="1" pageWidth="2336" pageHeight="1654" background="none" math="0" shadow="0">
      <root>
        <mxCell id="0" />
        <mxCell id="1" parent="0" />
        <mxCell id="1755" value="Статистика&lt;br&gt;" style="rounded=1;whiteSpace=wrap;html=1;shadow=0;labelBackgroundColor=none;strokeColor=none;strokeWidth=3;fillColor=#f08e81;fontFamily=Helvetica;fontSize=14;fontColor=#FFFFFF;align=center;spacing=5;fontStyle=0;arcSize=7;perimeterSpacing=2;" parent="1" vertex="1">
          <mxGeometry x="1040" y="150" width="150" height="60" as="geometry" />
        </mxCell>
        <mxCell id="gWoi3BRGaY5b3Moeq6lq-1782" value="" style="endArrow=classic;html=1;rounded=0;" edge="1" parent="1">
          <mxGeometry width="50" height="50" relative="1" as="geometry">
            <mxPoint x="1175" y="310" as="sourcePoint" />
            <mxPoint x="1410" y="460" as="targetPoint" />
            <Array as="points">
              <mxPoint x="1410" y="310" />
              <mxPoint x="1410" y="360" />
              <mxPoint x="1410" y="420" />
            </Array>
          </mxGeometry>
        </mxCell>
        <mxCell id="gWoi3BRGaY5b3Moeq6lq-1783" value="" style="endArrow=classic;html=1;rounded=0;entryX=0.5;entryY=0;entryDx=0;entryDy=0;" edge="1" parent="1" source="gWoi3BRGaY5b3Moeq6lq-1795" target="gWoi3BRGaY5b3Moeq6lq-1804">
          <mxGeometry width="50" height="50" relative="1" as="geometry">
            <mxPoint x="1289.58" y="590" as="sourcePoint" />
            <mxPoint x="1289.58" y="750" as="targetPoint" />
            <Array as="points">
              <mxPoint x="1221" y="620" />
            </Array>
          </mxGeometry>
        </mxCell>
        <mxCell id="gWoi3BRGaY5b3Moeq6lq-1785" value="" style="endArrow=classic;html=1;rounded=0;entryX=0.491;entryY=0.012;entryDx=0;entryDy=0;entryPerimeter=0;" edge="1" parent="1" target="gWoi3BRGaY5b3Moeq6lq-1797">
          <mxGeometry width="50" height="50" relative="1" as="geometry">
            <mxPoint x="1470" y="490" as="sourcePoint" />
            <mxPoint x="1530" y="540" as="targetPoint" />
            <Array as="points">
              <mxPoint x="1620" y="490" />
            </Array>
          </mxGeometry>
        </mxCell>
        <mxCell id="gWoi3BRGaY5b3Moeq6lq-1786" value="t-test" style="rounded=0;whiteSpace=wrap;html=1;" vertex="1" parent="1">
          <mxGeometry x="440" y="700" width="190" height="90" as="geometry" />
        </mxCell>
        <mxCell id="gWoi3BRGaY5b3Moeq6lq-1787" value="Определение типа данных.&lt;br&gt;" style="rounded=0;whiteSpace=wrap;html=1;fillColor=#ffe6cc;strokeColor=#d79b00;" vertex="1" parent="1">
          <mxGeometry x="1040" y="280" width="135" height="70" as="geometry" />
        </mxCell>
        <mxCell id="gWoi3BRGaY5b3Moeq6lq-1788" value="" style="endArrow=classic;html=1;rounded=0;" edge="1" parent="1">
          <mxGeometry width="50" height="50" relative="1" as="geometry">
            <mxPoint x="1110" y="210" as="sourcePoint" />
            <mxPoint x="1110" y="280" as="targetPoint" />
            <Array as="points" />
          </mxGeometry>
        </mxCell>
        <mxCell id="gWoi3BRGaY5b3Moeq6lq-1790" value="" style="endArrow=classic;html=1;rounded=0;exitX=0;exitY=0.5;exitDx=0;exitDy=0;" edge="1" parent="1" source="gWoi3BRGaY5b3Moeq6lq-1787">
          <mxGeometry width="50" height="50" relative="1" as="geometry">
            <mxPoint x="1000" y="340" as="sourcePoint" />
            <mxPoint x="842" y="425" as="targetPoint" />
            <Array as="points">
              <mxPoint x="842" y="315" />
            </Array>
          </mxGeometry>
        </mxCell>
        <mxCell id="gWoi3BRGaY5b3Moeq6lq-1821" style="edgeStyle=orthogonalEdgeStyle;rounded=0;orthogonalLoop=1;jettySize=auto;html=1;exitX=0.5;exitY=1;exitDx=0;exitDy=0;" edge="1" parent="1" source="gWoi3BRGaY5b3Moeq6lq-1792">
          <mxGeometry relative="1" as="geometry">
            <mxPoint x="970" y="560" as="targetPoint" />
          </mxGeometry>
        </mxCell>
        <mxCell id="gWoi3BRGaY5b3Moeq6lq-1792" value="Сравнение двух и более групп&lt;br&gt;" style="rounded=0;whiteSpace=wrap;html=1;" vertex="1" parent="1">
          <mxGeometry x="780" y="420" width="120" height="60" as="geometry" />
        </mxCell>
        <mxCell id="gWoi3BRGaY5b3Moeq6lq-1793" value="Количественные&amp;nbsp;&lt;br&gt;" style="text;html=1;strokeColor=none;fillColor=none;align=center;verticalAlign=middle;whiteSpace=wrap;rounded=0;" vertex="1" parent="1">
          <mxGeometry x="880" y="270" width="60" height="30" as="geometry" />
        </mxCell>
        <mxCell id="gWoi3BRGaY5b3Moeq6lq-1794" value="Изображены в виде частот&amp;nbsp;&lt;br&gt;" style="text;html=1;strokeColor=none;fillColor=none;align=center;verticalAlign=middle;whiteSpace=wrap;rounded=0;" vertex="1" parent="1">
          <mxGeometry x="1220" y="260" width="140" height="50" as="geometry" />
        </mxCell>
        <mxCell id="gWoi3BRGaY5b3Moeq6lq-1795" value="" style="shape=image;verticalLabelPosition=bottom;labelBackgroundColor=#ffffff;verticalAlign=top;aspect=fixed;imageAspect=0;image=data:image/png,iVBORw0KGgoAAAANSUhEUgAAAtsAAABVCAYAAACYVSgpAAAAAXNSR0IArs4c6QAAAARnQU1BAACxjwv8YQUAAAAJcEhZcwAADsMAAA7DAcdvqGQAAP+lSURBVHhe7L0HmF3Hcedbk3PEDHLOmcgACQYQzEGkRFvRkr1+3vS83t23tndt73OQ13KUJVk5UqRESaRIijmTIACCIHIi4iCHCYgDDCbn9/9V3565AEECkAeE3/exgDPn3HP6dFdXV1fqcFK6BfYRfAQfwUfwEXwEH8FH8BF8BB9Bn4Mb252dnYbNnZ6enrht1t7ebl1dXZaVlZW48xFcSeju+ddlHZ3t1tnRaRkZGZaWmmYp+gfEczJ0q426OrsslXSpqbqjNPhPOmjXtPQ03UpVvqb27FZ+IY8uHdHN0mPP2V/TA9o9PT3VUvymJwnw3uI/NKAu4JUipODTjo4O1TnVD+63i2bUAxzTLc1S9ZfrLh1NbapEZ6tlpnZbZmZ2SKRbPOvUwXVKZ5Olp3SYpWbrfqZXlcMJ0vur55RMFhXvtHJ6JUF7u/DVGVrSv1ITtO8rgAYA9QcyMzP9HP1naMW180Famp856NOtra1+jwPo7uo8Fz+vDO+nWKfyIMsUPU+uY7xMpNRfHYmyHRINAn6Bp3rlSwTwA89Lgdj+59eL3zzjHr/jNffhDyC5HK472lV/9YLUND1Py7Y23e8QGdOUxN/Q2Wukexm6kdolWne0iGGUMkN01jud8BiJeEcHuXveahfkJ+0R8eM+R+RX7sX7pI/0ie1xOQAdYn4c5EU5kT/Is5N7qquo4HgCnP06qckidAl/f0f5pGVm+DWV5J9a09pa21Q/6QYnkuqVyJT6BDyUd7wn+cR9+CE1qX5OEz+LtO1tlpWhZ+rHyClPx+EJ4O+QYac/y/Cf/kjH+cA9iuagLZN5Ixki7aF7TEN9I89E4H4yr8V7vAOQnvsxv+T34zMglgGkqS2Q8yRNTUlznJH5vWWQX2hbbz+dO13Op1oG/UhJeO4o6OxVC8VcEpyLS5qdPXvW+TU7G/nYW2dwSa5DrB9HrC/PIq+5znJkeoF0rqNUz0TVEkD5qkBKwCP85m/oK9564hlhoGu1fWeor9MssgYvCOCZdvFQpng11d8JEM69KXuKPudtgPqE95SV4+tyW7871C56qG4f5FeUnenoVqWAluhe3g2407/TdZUinChTsiAD+ihFq/Jo15HebJbdqnsZSp8nvlZbq16SBEolW0zSKU2FI48czxRl5ABG3Aw06eoMtDXRNuDTC93+7rnA2zGHeFwMvH5qOGRaQ0ODFRcXe/tE3gDawUE8LXSohPSp+rPoZ9K5ykGHSvLCJHWFWJfaCPx4CkRcyC21u9Pa21otXbyUonTOq45Dom8meDH5bWgOy6RgB8GPwof0+u+pOoVYuoRUlFN9AZH3I20uZiunqCIRYwdeihlwwFSB8T+CKwndEjgdUug9Bk+CmfnX0SnuVRNgeHO0d9BGUoIwk9IkuCycY1NxP3Gm/RDUtPQ5glBJSNYuKyNNTOx8zH2y0wWsAZNzw3HBMLkKkMx/kS9RBHTCKPg7ZSxK3giUFtkoQ7dTvTlVCgSDGnUmlRUUm6xsBLf+W5eqhIxKt1bVHcmYJdGgTk5ZTs9E2RAkUKeHxL1YhWQYAo4TbZOutLrnb3GpBN5W57zVN+DCSPnHto1lhfJ6hSVnDhQigiIKSu6BVzrtK8J0QFuhmSaljmEThSIHSXv4RMAZXYmC0FO/F1IigCSMxK+UE/GJ7RZxBJfk9v0gSK4X19EQib85KCs5v3gv1p20TieMZ4w4He3daTK2MyTcowoLEHPpapOylNJISXHGUgK9nyo+kUKNwDvQlH4ExHIjbrH8ZIcjGU+AtAD3kcPQJt77ICBfIJbH72Q6+D1d044RuPQjopCMil8nbpBIebW2tfn7Xh/dgobtoktaQsmnOp7nZaIycdA4d4uhMNjhq+R68Ya/Bc4gI0XrN3iuc6dkn9crDbqFsmmlyJPnwzn3VBjGCnTgiPRJhsgTybTiaFN9AerJe7H9uI75xHfiOUIsI5YLn57/HvVKE3JOHwFGUzRuMdzcYPR8evk9FIOBI7p0iKfcqJOsUR4kTWDjfy8GEWcvTwe8C34AeEQ+Jd2F6h5w680n4Bf6Z0wPkN77mxrMX1Fy9Ar1d+PVGZB+CH8ge4LzE/gGvuWR+myqOievh+Kks3is99QvvQxlDo/xnjB2Bw9Ip+wkmiSwThzJoLIwEsXPqFIexzM4cIFupl7UM9AK2qBFeE85h8zDCT1DnuSjdkrtlqOud1MsR2fhlCb+Stc9yZ4ujG29Ils/mqUJozMc1k1l0fnoGOSnXpWwQrb6S4IudJoKQ+ZmZWW6MwI46kACt57fjh24hV8fBLFdOcMbUX9EPoAm9M92uq4yDcEJ0cj7s3CHsJ6RWZvaJS1TNFC7UGcCHNQHXPC1UZvS5mrLwNu9iOtlv+QP+SYQV/ntcn7UIKJJZuAbpYHuyDzOJKWvhdwS7/UBeL2TaOB8/gGQcvLkye6mpiYnHkdzc7MzexSIMcOP4MoCAqKtU0o9C89cHUfedBRuLc0t3g4Z6mDBOAkCES6lbTDASed+kx6q+T0y1K72RAB5B1Y6OijpMKYwvmE7GMTb2Q2PRAfU79DiCcbUfTq5C5irwAp0cgC8wMHxVd1bWlqcV/Eo2zvaVE8YXjRDAKkX07E7EXooJAnmdHV+ulxqCsJCgok6q3NmZog2KTImOlv1mugo0xujnM4ZYhtQIlJEZ5Xfc02O0EUATrQLAhi8/L7jzqiRhAvtoX99BVEIRoh0ivfjAR7cw4Cjj8c2J5LFfQwLDG03tqmD6KKTYyqRKXooH+URR0+oJ0+CoIYKHEpFuf5WAOgOS0aIZUObSCvajnPE/YOAd3g/1of8gFjPZIhponLgHNNTPlEOAi9EVFvUlWTaSvkLF9pIBh+KLE0KJENCur2lUca2ucGd2kXEV7RMzZSjJvqpxhiRHaItvJKRobyVP2WDb3K9Yltw5n58xr2Y9vz0lwLxnZie3+TJQZ1p9+ycnKCoSeepdNZrXMczwDXpoDP5tOl96Ie0SIWHhWdrW6tHtTuk2JFJyKuuhFFMeV62MkRh0r7RcBWCTi/oA5CWqCE4ZVAeo1MYJuJDaE99eoI/0Ei4tSt9jHiBdaLm/hfw3/pJPbqUXzBEg7wAr8h7lE39kvGLvMVzZAvX1J13Ih7JEH+THuB3zD8+owze5cw9p42OEIlT3XUWhi6vkeNBfgTZjOXCe/Fdj9TpwBD3OnJP/5wu4mP6r5PlItCbXziS8Y38UlBQ0EOXmCbizjV4cvAbiLQDyANILidEtQPuyMfODngyyO1gIIlOugYyMmQ06R10lPOHyJuenqUyQrsrW2tTfVNlmSHz4TOc3MAT0Cv0JQ+WCLxu4X/PPdI5k0SQzsCBSZVRT114hX7QWwdP1FNnaEA9MMBdjuppFzThHeqnG93dkgUZ2W58drW3WGd7q+XIEEam4Au0qW4dauNOOe2dqTgeMtY4HHflrbox+obu4jpF+HZK/uipysx22hCxxUHgHvSK/SZgK9BlqGWirsqDf4EW/viSIOYJxPZPbu/snDxrbBVuwiVL9fNRQ4KHMpypP/IUrm5pE30I4IjORLfhfseHfk9fcOMcOSC5SF1EF+RLKF8pobvSwRTcos2xZ5AJ2Dc4G/zmXWqMvEBmZRN19vxDX+0LACd4JTc318rKyvz6gyBl5cqV3ZWVlU4wGAshg4AJRl23D5lE4fgRXDmA4TrEaHiltEFjQ4O3QWFhoQu9boZBUP6JtqFdGMpFsKDwaGjaCw4Ta6ojoBiDkQzT0YYoSMppawtGF/fpnAwdkl8HEXO/FzoReSLEiBK0tLYkpqT4ow8VYGpoAI4ANAE3nETOOTIkWlqa1XGDkQCdMJWpf5uM7g6d6dJUK807r4Sb7uH5ilCip8roapPx0CzvHAKKznjJLvS8SK93EFHxHI9wotOHaIyEKENgohW0g84Ip5yc7ITS7ZvOTlvX1dW5wKP+CHzoRFnxOcBzDn6DC0ISgIdod37Db5kQwQU8L4W6QTeG4xj2I28EGEYBSiUKbGWsM0cQm8Hg1m39yUAh6H3KAC/akDKjgU17Xo6xTRr4OCo75+HEe7GO0LixsdHy8/OdJqSBPqSnvJhHhpgBYxsjhch2ipQiig4+R6DTf9IxnFUPDOxU9U2GN1N0TTSmO00KVgYAtUWgU7cs0mPwoAUEsV7gBl9GHJMPILZbbDvHT+3h/T6R5mIQy0zOk/IY9j1z5oyV9S/3ttMDbx9Po6Rc95z9bsAb2qGk4I2cvFw9lCGZKZxE3wbRl3YTZ4lv5HRIxrQqnU+NEL3BHV4gH/i+SelRhBnKE2uQ+wBtBe3AOFtyr0vyJxrtlI/RBQ2IgooVBWGUL133UcCB0zi/F3iSPDUKupAvuCE3oAv07t+/f6JfhpEhDu5zL6bnHHmVZ9SROnA/me6R5qSJ1xwA+fEeQJ5Md2gVr2FgYoBmqV8gn9tV38DXpMSACjwU2jXUlzzJw/WybiPPvQ9n0TcCPh8EEed4BjeCbMn4lpSUeD+KZQHgxTvgwjVHpBftBT6RPrxHWn5z4EgQoUY2g3SnHCF4o7FJZagjBt5hKF5t606H8pHhxBmeYVoGZ+rvHKz/aepvHTi/Kg86UBsMsaAD1Kf1m3qFvsevIJ8cXLAnrgEZ22IXpcuUnlM/Fc51Z+t0L8hun16jd2K7QzP4PkPt6PJF931E0HkVGuBI0a65liU50dnaYW0t9coHBxWezpP+Vp7CrT212TrTpNu6C5RnvsqGsxvEF0xtlN6WYYpc6ZYM6pSeSpUOIzDQ3CKd3Q4+GKVqB1UnN1f5iofAW+ROQG9dGUHnH4/8SCLB+wH1pc3pA9CTfgBPQNfIC9kqt1W4SAMLZ7UBspK+mtptmUSV1e7g0yb92k4UXum6hTMRcbc3ZJh3ShZ3ySFJwUinvVRvjO0w6g7fBceKQz/EEwF56o580Q31g1b1KUZNsnQfQzy0BcZ2NxH2PtK/APwNP5SWltqMGTNs2LBhiScXhpSvfe1r3bt27bK8vDy3ziFe7IQQkU5MJ4r3PoIrA3QCIjoYx5WVR6yqssry5DFNmDDBmduNOU+o/qn2IJLmHV6MRNtEIclzF0dKny+jFEZDQSFjvGP4tdrYGTgYABx0JAQGjI+gcoWh++SFsqOT5eTmONN/2AD/nThxwo4cOeJ4XnPNNc6v8Cd1p9O3tDIik6Z7Yc4ndcjKyhGtZDSow7mCV70xthFG0Ad6c3jEoKNVaYgaIP8wdjKl+PCyQ4cGgogCes8IrhbhBB5RAIFXloQw9zBCeB6UCGUlXv1XAvXZuHGjK7lBgwbZgAEDnE5eT0FUeuDDNWVH/EjDObY7R062hHdjg0gUDM00Ca905U00iXqjSNqk/NyodH6EMwJtOLuxDV/5PY5grGMYkRYcKDfiGIyoEHW+VPkC35IW4N2YbwTqe+rUKdu7d6+NGDHCBg4c6PUk8kC6WCbvSf4rQxky4u20LCnE3AKPRrW0tqNdhL3KEC91tLVYbqYURUeLdep93kkDZ4ZCxUtdMtATLgrqQ/0SPuo1sv1+gtYAOPIciHUmrfdJ8FLamD7mcynAuzGf+C5QXV1thw4dsmHDh1v/gQPc4I2URldxHc80G2f6BO1CXrR7jvpaXf1Zf4iDisHtBoa8DuYPUw3kEQA/hvLFK4l+AX/RBpniGyJP9fX1Xkc30FSOOzbKB4OiRXKGdsKxx8AhoEAkHVzok/Cey6pEu38QddwgT9AEoEygpqbGjh496venT5/udYVesZ+AC8/AnYNn6EFkDveRuxxAbKvk+8nvgy+0innE5/n5yC+cjRDNTfeobUqI2Eo2YXhzgBP34ZtW0YL3lbXSJ4wUpfXRS/VbJdPxQRQJAM7gxwFe0HPHjh3eRvQZ6llUVOQOCW3EQZvwG9ypE2cg5sFv6EC6aDMkl4Ox3doSDEVwpO650icNTeSZJr6EZsGwxVBE1oTRXfgkS3zYLR3UqvxxgtJcF4lQrjfhWcqA38AlR3xD3rQ/c9HBy9tS3BLkE3A+neAVGf0YeErbJCdgV8UupzvyddCggY5n5JHQj2UUqg2oJ/yPvsyUA4ABHo1tZIQo49MaW5vr9b54PwXHtEh818/SRcsOGdodKeCeo/YVryjv7u4GYSRjW3lgcNPUHdJRXd3oKPgSxxl8oTuSBx6EDonqCPxSxAm3+KvDfwea9fT7iwBtSbtWVVXZnj17bMqUKdavXz/vn053PWO6YUa2cEcWwtOMKkkncO7ulAOp9uumMNE3NZN1UZKdoCTaQT8MbEa2UmX/iMwe/GmSg9JBm9B2QtaNbOGOJA1mCKOHjIioDD0ifxw62gH95ZFxvUs5OimNZH8fGtv0m+PHj3v/vvHGG+1Tn/pU4smFIeWhhx7yaSRY5uPHj3dmhYCRQWEuiM31R3DlgA4AF7VK2O7Ytt127txhRYVFdsONN1hBfkFoDyWhbRrVXjCjC7jYXXTyK+9ACA7yCkMqtB0GOoCQQHjC4OGNoBTINxmSlQmeZRjuFCSK+zAB/DC0MS5R1J/85Ce9DhHvcEbZINiJxMoo4D3+QTPv1TgVdECJAGiCHEykh+c9PQa4PHH8bjpxmCcYFPS5cC4RPEKuW+QL3RC0CPtkZQOOAau+AdrxiSee8I6O8Bs7dqzzSASvU6LvAqH8wD/gGJ9znzQ4B6oAKUjNCzrCMB9nqEI1k/lEd3rOFzK2eZeoA+UhkN24Ulnn5JHA61KB9OAd6xbz4kwkbt++fbZmzRqbO3euTZ061dPEdojpwkWXG8ftMqaZ258ip4yoS0p6lvQjkVOlEz2I0GBOc4T3QnvSkoh9lIYPAQuIgmOc+7XKTaZ5LJd2w7j7oHrTNhg2ROdDP/1gIO/ksuAD8uAgkLJp0yYbL6d9ytQplqs8Y8lUket49mYTkFcwBJlzn+JTUIhmE0nEOCYZhkxrS6ulq30xjHmfuiXXW8gorVKTv/LhH3IEgwkaBH6FrwJPoiQZaaDvEfmNxib5UABlkrffc0gg/D4Q0vb2P8rj3Z07d9ru3bv93t133+24kCY5HQD9Ij05Uz+uaRPSxfTxGoj34hmI73NQPvnyCOMtGMekC/Win7ixQLuLL90RFv17y0Dikz44QtzyaYRYYwmuvBhEvCJO1Ouxxx7zYNvs2bM92h9pFdOCc+TdZPqAXzJNeIc8k9OFcqghuCNLSCOjlekUMli9CNHB6asfTnfdol44WCKI08LFuFdPL4ifmltbnFY4fIHGgbYEhHiXfD0SSuH+Vsgg1AgI9wPwPpRVXxYu9TLSl7y5xJ095MjEiRPE56E+AQLtwpUMafUFCgxTeWg38XhWjtpIOQvx3CzpKxmUXZ3NaibaWHImTca1ZE6X8u0SLcT1yi1M7VNPEC4yWLlWvYjKpqCbUnRNTcAVupCyHcMeRzfLR2xpB+ro2EEDzv5Xh/8ONOjp9xcB8qN/bt261V599VX73Oc+5w4I8hwAX8pvlfOdIqM7S4KQUcBwoBdoT+GsfAhOIHnV0v4OUw1pL9L6NDIdTPdET3emyAnWAWX0pp7TttQYvEN9knk0USsvB/rTG4h4ExzxFKT1u30DlL127Vp3QNC/99xzT+LJhSHle9/7Xjceyg033GAjR47sQT5W4CP4kEDkVv+Rgdxqmzduss2bN1tJcbHdfvsdVlxcJNkSOjqMjYByARuZTPd62kscHIa0xNIyGpwB9T++T+QcwQjTqqndI6fNfTFcQjiGIRu/7AGyD8LlvAcfAoDXgQMHbMWKFXb69Gn7gz/4g576gjuA4nKBBJ6qK6YRKdK8R3sKP/HTq6mHCAEilYg2jCbon6aOnsLeFCROQZiEct4XlI7IeaQd+EAnDBCMbvDkmc+pdEPEk/2roUOK6Qc/+IFHoVCQGNy0K/eD4gmCCKUHxN+ceR7pBjgtdR9BpKbXDdWFezoj1GNK6BMuEmeBJ9eNYGj3pNQR3uegLA7K5UAhApSLED/HQPsAIA1HVPxE2CKQP9Nq6Dfwye233+4GN+XFdzjz20FKQG+p8cLQPlNIUACd6le+S41ud7a1WmFulitJT0t9AGiXQLdbyqBNhCEinpedYV1qZyAqIvAEYtngGXFxg0oQ+lXgc+6ThveiAXMxiLQFnPdQVCqD+zioy5cvtxkzZ9rceXOtoKjQm4dc/UhcJ7cp9SSKz9x9+CcFXoYgKgM5QlIMGzoTMsjlkP5j2FImAD49tBZEOjBq5IaWnjEMT9W5ZsoKxoMv5Ezc4/UOKfBgPAW6NDc1eUSN50EJA8nIRwAnhpEpI9DEy9FvaLJlyxan7W//9m97Hck79g3uky62E/wJkIbfpCEtz+HfmD/peIYBGn8DpAEiDqQH507xFfUiMgm+XvdEGfqjJAGPmA+vYUY5G+raRZv++P1Q3fDgEsHLEYDPP//zP9vgwYNt8eLFbkhh9CfTBRw4RxpyzfvxHPOKkHyPNIxoICeJyDLqyAJyHvPMmVB4O08l0gPwA/VlcW4KEV4MJxmzQsladC9VOKXIUKUUFpj6glPe51AiIuSZHjEnN5XN6f3oI1qTL/ytKkqW1NuvnvqVj0zOmz/fZs6YkXAOQptDD3QO+YFv5Huvsg7mUqemZcph1U+1c8/OHKSjniTUwTzxbtZ/BN+qB2hKknMOU19Ec+YyexuH/pKm/LnBNE+m+kGbBOl6ahnPicqDbbhWQk5O+otAbOd169bZI488Yn/8x3/cM5LKM+cNpfMpmPRVXWM4M0edAIQ7Ker3VNB1ItPvlI53nGq6gMPVsqIVukGH+IR53VGPA/B60M8RVG+1BXwAXekPqa7vaCe1ic5hPYBZY2Oz5WSF6Th9BdT97bffdp0zdOhQ+8QnPpF4cmFIhXn8QhzWIYHIAZARDBQFBb8/Oq7cEVmKYSGuffoHjAmz+PMAXDFHG3BBqCM+ZdibeYAMRQII7yZ53E3NLeoI8grVC3x1NgJazMh77lVyUIzSM4TV2Njk0acWefVNTS3W0hLyuxDeH8ZBR+ccBR28yu+oCLh2/PQPwUNUjvnvfpe+JUOhU94/UQZuItS69Jw5cHTs+L6qavX1jdbS3KhnQXgiEOLxHkjc9NeVHseFshHCRDqanI6BdgHPvqMhAD2SFV+8x+9kiL/ju5F+DPd6JE3XGAjnv6cbnl/kRd8BIZDF6RhKBBI/Ejj0PNFvph9RBoYG+RN9RsZEfCNOl3JEeA+egvicOsW69Bo2FwClJ1LCWZ1OmXb4NBrqRxX9DJ6elj+6QV4+fKu66Fmb0jPS0txK1CkYRJTJESG5fThH4wwagCe0iThyJj2AsR7b6WJHTMf7Ma94n3KgeeImf/xZvD7nHK8F0VhEhrB+xA1hEQXZ4oa3pxF9pRwZGT1bd1ZltbszzLQpNwKECnzDmQNlSPYRr2BY6p76DnOViaS3tOnwqSMy9mmIHrwA1Ul4ed2Sb18QeukQj/gbGtEO0D/+5khOB4AnB0A7ef11jjxN2pjm/PfIjzrSnjHfmIZ83Lngh+6FOb4MhcuxcIOp2+UHvEVa6NvDJ3oJ0eQRTL2OAYj8Jh//l1TW+x3JwG/wJX9vE8oQJJ85YjrSgFPMi2fcA0f4jGek4wyNIz87jbhPW7uealf9GpwOFMUBj3X6goiAV/gnPtN9vao8g/yHVtxH18FfgJcn3gFrver5kR7gt7DnKukfv5IOT5ME+hGnanr9oTG3wYvEAvoGPEt/8Prpvq9poF6qN9N+wMMDQZIfnfQLRxAdLHybmySvmnzUqLkJOnq2PUBS3g/ECWW7E6GDGkAHduJwh0v3GhqaVSbt48kT7ySO8LMHd68H/zhf5ACoHxD7QeSLZHBnR8ldd+pZHInyjo+z5e8myajEQcyL+14Sf5Q/tPFpU0raU4rjIjw4e2IudUGFlSeX3eIHpqJBG2wZ7JhW8UVon9BGfXVAh+TjYpB29913f5EXhw8f7sOWEAJBC8AwdKQ4ZP/RceUO/Qn9UExRU1NtRw4fseycbJs8aVKYI+stEoQebeQMz28dRKuPHT3q8+4YIj144IDyOGp79u63HTsrfF4RGRQWhAh5NCQ9KiUh4lFtXSP8mN+5ceMm279/v+3dt8+OHTsOH1u/stKEgrsw/lfyoL7MvTt8+LArugULFnjngQacXRCoTtCIOezt6r1S8Xqv005WVdn+igqrrD5uLe1pVlSa77SQmJQHjlTS0ZliJ0832+59R+zQwQqrPVnpCiEvr7jHiEqG0Ba9AI51tadt9+4Kj5ix4LiiYredPHXSo0PsSwrQr86v2697UPcNGzY4b+BVM9cSoM9GwRj7Mml5h98YGLW1tT7dgikG0BP8SMN8Q9/eUelQnoeOHLGt27bZnj177Zh4CMUCT4YdKKj3uUcPYRI3KGvb9u22XQfTgCgT2hCZJCIPThh0QRBeuJ7JRzIkyymA5ygC8udgStyQIUN6eOT8PLj0UR3VqflsnR05dMA2bNxszR2plpZbatmZRGi6RRNoKR5xxa2+I35AuR2vqbI9u3favkOVdqaxzddHsECSnQZieUBsD35DU+jAsCMH9GDuMM+gSawPdYv4Xs7Be9SXfLimXMqrEP+PnzDeI5dZmciSxL/Ee95wnBMHjkS9DOyaozU+/33vvr1WXFLi+YYIdIrvHgJlzsi4PnBgv2ix287KONwlvmeuZIHoQcTWo5kYkF5KkDdAh9qKa/orvLV+/QaXV7uUDzjDl77IVfytasCSyoNdGBLTEzwkH/JKxp2qnPOMUnXNO7EfsP4DuvObUaFIBw4g0i62B7iQHj5GviIjGUWhzZjn7PJZ70Z9Cc2YpsKZ+eHkxVQQeB0gHcYRRpjTQOV5YEWyGUIdP3Fcsnyn+HGj6wF4hWlFrPvIyclTDqEssOV90Pb+CFmS6vJ+BxCvqSsHU69YeM7oNmeeJdMs0oI+Fu+fPHnS3n33Xecv6gtdkXe8z3MOIKY/cOCgy8UKyUl0y8GDB7x9sS8IMlF/pm2gA6EDmMYpNQ1n653Pdoj+e0WPqupq588UPYNPKAOZzcgJIoy36afQ2POBPok6914n3+PwFx1w9mhr+HfY8GEe7U/mC87kT3s7Z+r9WvWF3RVM29ooHjksnkF3plp+Xo4vEmxtbVa/EQ/IoTh16oRoIF6vrLIjVcftdF2TjHb13Qym2qXJwaAGnrX6GXoq8DTOrRuserRv337btm278tnvtN0vvQ8eYXG4yvH6nXsEUF35pxuXckSAl7dJH9BnaOPkgEDkE8dNOGJ4w++NkgmHDu5X39lhu9VuJ8QzKT61g9Ep6KgqqnqsnWmVgV0nulSqndE7qZk5lpFT6JFx529Q4UjwBkCZPhdbZ7YirZS+37R5s2QJcmu//2auf/8B/SXLVZ7SkbYvDuqMrMK+YveeyZMnJ7C6MKTdfPPNX+Ri3LhxPleLzgIBAc5RkHwEHwYEbjpypFKC6KArRqYH+LY1Dmpk/cVjJ6pEp+eaaNIzzz5jX/+Xf7Hvfe979tijj9kTv3rKHn3scXvmuRfcCCSP8ePG++IRmJc29Y4rYUE74wVu27rVfvHoo/aVr37FfvKTn9qzzz3vHbqwqNiumXFNL8N/yIBAQ7lhbBM9obNT98j0noaFM94J9UdGT6d0w5naU/bck0/Yj7/3fXtj6Upr60y3GbNnqaOjnGQEsW9yZ5u1NLTakrfW2YuvLrW333rNtm9d651o9NjJlp1b5HVGuHH0gASvD++5pDApq1X2/R983/7hH/7BfvrTn9jLL79s1dU1PtzGIlcEc1iMmXj/Xwl0dIbD6a8YlZSDMuC+K4LEdVTw0AmjAUN01apV9uCDD9ozzzzj91gk1q+sn08/ouezohth9cgjP7O//bu/U9of22opYxQQCw8LC4uUr+riOUPzcPQSiIsUqxQff1f8yBD1j370I58XiuGAY8+R7MRfClCfZAj833sP454FgdHYRkHCO9AglkN6DBX6D6WerTtjmzdtsCce+5l97evftJpTZ23AsDE2YkiZL4wMC2rgkw7rlOJs60q1Ojl+y5e8bs8+9bi9uWK1VZ+ss+LSUivvV+LDxcl14kx7gBt4vf766/bFL37RpwA99dRTbuTwHEM4KjDeAW/ux3xoz3j9fhDrRn3dGFN6+gyG0MSJE23goIEh/0R6zhfKsUH127Jls/1K+D344x/b62+8YbNmzbRBwpH5276riejC7iG7ZJC89tpr9uKLL8g42WXLl7/lBlJ5eX83uFH6oB2byY1DnTm4Pn78mL2h9//8L//SfvzwT+2xx5+0devWOr2YB1lYUGjpUpIYPWzT6AsyPSf6XmS4HsZLgmBsYYFGuhGl5Doa29B45syZzkeR1tCZsqN8oX+wMIy5mX/913/tfPyG6AEfoxvpexjcGKHIYQySv//7v7evfvWrkgM/taVLl3p+8CKLDqOBQhsR9ABzAiBMC2TUkZEZaEg53/zmt7zPvPTSS45zaWk/G6n+5/tTe90DJRPVCz8vASI9gFhf5vVjpOG4g2esPzxFGn4D/OY+BgZ0+DvJB3B98cUX3XnEqcCWwBGhjtSVdzBE/+Ef/tH++StftR+Lp55++mlbu36d7+SA3VEkXqH+lEUbUz2ueR9YLZn10I8ftK9//V+8vF/84hd29Lho0q/chqoNMGhFyUCLpPrFfh4hXMc7nrjn4DV1G8eXaS87d2z3qPUw0QRjLciNQAeA9ORP8IH2X716tf1Esv+b3/qm47dhwyavwyDJ5rLScrCz1HQ5KSeOqN+vt2efecXeXrnW1m9cJ6e9wk6fqVOKbCstKZdcl4OjqlP90F4cMu59ZKnLGhobvG/+4z/+k33/+z8QPZ9x58x5ZJQcpoIQVAIipyRDzPH8+xcC6gAOx44dc4dz0qRJ3m7wP+3Dc+pPv/eRCtGJLVAJUKAXH1R7feVrXxNtHrE3liy1wuJSKxKeOTm5sktkeKuOON8EPN5evswe/dlP7Tvf+Z6NGj/RBgwdJSMZXgq4KnsQEi3p27rW4XUQfgQpn3nmWfvyl78s2jxsj/3ycem61daqfj971mzLRXZ9QIVjPS8VqDs0oW9CC2y1D4K0++6774so7FGjRvl2P7EwzsnXH8GVBxpbxHbhXnmkyqN/kyZN9ogGLBVbASEd26e1uUWG4WHb+u67VlJa4krxuuuutXnzr7X5C66z5pY23S+1efPm2tw5s/WyjDEyUWZumCI8xe1nTp2SN7lVnnalDOsZNnnqFJs3d57ddsftdsMNN8rgLvTyIytcLmP+a4ByiGwzbxvlx/qCeD/igKD2YSIprW5Z3XUtjVZTecRO6tiybp2dPttiI0ZPtetumCdjAQUn4xxju+ms7arYb1/6p2/buCmz7LOfutemTxruUeN1G7db2cDhNnBgmY+E0TwuAJ12QOjwZ2prbe2a1RI4rTZbNKbTXX/9DXbfx+5zxyA/v0DCAvyCIAci3iEy0vv7UoF8wBGFhqGGwiIPBECkC4rBeUrAbwQi28ARmWOxC6MXGM+33nqr70bCu0xFqqyssi3ip4MHD8tbn2IT5bE3ywjYsH6D1Z+ttylTp7onT9ZuoLtBA2thgLGqnHsptkSGxnEJIgzfO+64w+bPn+9zQjFwysvLHb8YKYt4AtEoAjjzjPqSLt6LdeM6HhgN9B0cJRQ+WzGRLr4b0wcahXyOHq2x6sMHrerQfuG73IaMmWwzF9xgo4eWWTrNyxcjwU2N3tjcZhu37bJvyKlds3KZTRw7yh749Oftzo9/UkbKMMvPkUaQcqa8qJQpizYmMgluK1eudP5gR51rr73W7rzzTrvlllvcWYqGNsA7EV+UPDShrSNQRjJNYlrScObgGc4H7TxUtBg8eJBHEiOncY7XyUA0qqqq2hXru1u2WH1DvX3yU59ygxEgIkX+y5e9aa/JqcSw+g//4T+qHrep/Axbt369nLV9NkQ0KSvv5++E7SN5V2dugK9ORCvXy7geOXKUzZ03XzLrWlt8881222232RQiRbyTwo4F1CdEgsP76ke0C5kKfMpPop0CkE60SUQroQ9tAk0wiGkL6Bfn9UcgHbTnGXWEfkuWLHHDksjVrFmz3KCk/3CPxXO0Xcz3G9/4hsttHFiixEwFweCOTjG7OMCn/A5tyIiJ0JZgAX1GndaLfkxBWyQ6zLhmhvMJCzlnyWDw4JfKcv73f4GmDrHqlwHgDc/Al+CNHRC/EAgdIk8B4Eu57PjDXNVXXnnF68/mCsgDAkQ4JdSRupI3/Zt81qxZa4fk+E2UoXbTokVOx5tuWmR33XmX0w9g1ILINPzu7ayyMcLAZeXKtz0vZMmsWTPEJwvsno/db7Nmz7F+MtyofEZGqugY5usiizIkcx1El16uiHA+sRK/YSn9Y43Njp07fIcT5MiQoUOEW69sBbxfqm6MDG+ULIYfTtWeshuln8aMGas+sEcGsGRmXZPNmXWt5YlvOjrO2FsrnpdDtdZKCkfa7/+X/2F3fuxmy8xrUR47bM3qXXbbrTerLJWRyo4konsbTkewNlNTunyDhD279/po0NSp0yVXFzg9kK23SJYPHDBQtFDdlR6egh5Cmv/OL3ANdSRvjotBrC99hpFbRpYxtuFhwPsWckftzTQhN4S7O2U8H7R33lkpfm+xaeoPc+fOt4OHZKts3+FbBRIAKMjPdRw65dxUytjeKRvkoBzZ3Xv32vwbFtvoSdPk/Ek3JXDnTHpsl7C4mLJk7Msu2L//gK3fsN4mKN+p06bbDPWXxbfcar/5m5+UHCqzTEaSyEfpOYDktnSHQb9DvwxOZpQN8XdMH6/heWQE9KA+HwRp99577xfpQAgGXoiZAfE6+d5HcOVA4l20hqlDdI6ICV4kAhZINLNPG+EHv51xdKZzTZkyVQb1HJspg3vy1Gk2dPhIO3O2QcJiqC287jp56INkCzCHkg4RMkgRE6G4GPLcVVHhJdx22+3egWeKWTH2BwwcZBmZDOVIkEm4JDMhiiMyIucgKINQ6ksgsg1jY2xfp7oA5/Kq8An9x43tzowUy5XX3C83x44ePGQtHek2dPQUm7tgtnWndEgot1tae4sdPbDXnn72FauubbPrF99j186ZZCX5DPOdsqUr1lhhyUAbNHiolEm2tw1lcA4l09G7rKJip5ydLVIa/e3ee+51gxuDEsWAo+PbDcpYEol6lAiAAUXfS+7Il0o33onGdoxsJ7/PmXZIzpff8BIRVJwXPHL6Pc4LXj/z3GhjhDlKZI4Mkdlz5kqhzfJpBNCENkCg9+tXpvxUfdUJg4EDQUYZ5FNdc9RefOkl8c5A3xZp3rx5HuHHYIlb8lH/GOmLeANcR37iDMQ0yb+55hzhfGObKB0QaRAhXOvQf6ZDFOVlW5Ycr41bttlgGdtTZl9rI4b00z0lY0Ihh+ix8d0d9vMnn7HtMrR+5zO/aXfecpMNHz/ZsouKZXCKvqAmY5v8wYu+AFA+tGO4HcP3rrvuch6eNm2a05+2I6oYDWXe5YBGyXjzmzy5F+8nP7/QfeQIEcfhcqoGi0/cWPMnXv2e62TAcSUd7QPezCm97/77QrslDBgibI8/+qidPHbUJqlNcS7hESL8u3ZV2D45xkx5GDd+og/100yILRQa9MCYqD150rZs3iTDoUJKcbHNu3ahzZTxNGnyJBssw76wMM+NdHgyNjNzmc+JVno9VW+/owZINsJ1JE8NiPTBKEZBwl9zJC8jf0SaRdrDT6TlIMqOU4QRHZ0OFoxhiNGG5MGUCtrnZhnJsX1pW0YX4EnyQJ6TNgD8G8okIkg9GXVCFsO79993v5eHMcu7BMPoL+DmRgf4KisWkYaFpPQRz+6SIdY7GtvUhch2fBby7KUNkXd4ipEB5Mh9993nhjP4kZaIPxF+jPDoUDPdhMWGZWXltlB8coPkwTQZQ6NHj/bRlpzsHI8OU38iyux+FSCsYWBa5EoZ9yXFRXb9DQvthuuvt2skXydMnGxFxf2832Qw1UCv0eXAFFygjZNXRyRLPAdIPEy6602jn6wh2Lljh4/m0cYENCIN4GF4J9KluaVZTsYay5MBye5h199wvRuXRUWFVlldZadO1Nno4RNt+LDBaudae3PZr2xvxXFbdONvSr5OseJyyd60k1ZVedZ2bDtmC69dbIXFktUZzcJfMqAbuaD6qHgWSTI1AueFezfedJNdd+11NmvmLJssJ37wIOHp9Av0CCiDZ6gb9AxzzEO/CjW6NKDPwOM4qDhk0dgGKBO5T4b4CeyZzUYO/fqVyi6ZrPYSj4ybYOX9B8qJ2WVl/QfYzBkzlU+BB/+Yl5+XLd2Ul2OdbS22ectWm3/TLTK2p0v3SkeEYvwM1sHYDveQuegy5A766c677nanHftlsmyiocOGW1Z2hts+jFTCkwDyLfZF+CUesV05omwAaHMOID4ncEVfoG+i3z4IYh0+gn+TQCNHjuq9jgzhRrM6TWlpiQu3a66ZrvNk97DGM5QnAwrlN3y4FO3gIciewDxk4tkFacTc1W1b3/XoLBFy5jw1NDRav7Iy6y9lkZUdhHg4ehkxQvK95PsfLqguQZq4MyJRYiVF6gDjx0rQDbPC/EIJKrxWUkKJLmtrbbIjB/fZqy+/rA45QsdoGT25VlSYL894sp0+c9q2bttuh49Uql7QXYqtUwYgYW4vkjxa7B0pKoa+N6xf78OxfMSDoUc6IIrAIwlOm15aAfHaFcMVBoQs5aAgUXIYo0SguIfQARwXGTLgHSJIs0SHqe5wTRJPYShwsP97UPYYgIEX+QAFc0+5SVSOuX1r16zxqS5MY0ABo7A4MCwReLHukQ7xiM8A+DUefQ1Ev/ILCuSUDrMJ40bbgPJ+HqHpEJ+omb19w1ztLju0f68tf+st27p9ly1afIsMr8U2auI4H/4GszYl4xU3hBLtGesA7RHKRDhZuU7kEuVANJDpNBg5KK74nitEGfcxKghEBXGlaJEMGdnZ3k7wwMhRo4QbH9pqdUOIyuJYNTTUqy6bhEuXjE+cJykq4YiyHzlqtBt/6zds7BkRQt6koIXdaAijLPv373NarF+/zo2pqiOHxVs5NmTwICtOjKSxe4DzGlk4f2BctrtxGoAnAmjH4flDR3/DH10KJPMZ7RDpjdMRR38YjcCAJtKMA0mEG2eE6DWAkXqTjB8MeOQxo1qLFi3yvoZCJmpN3jFSDDF9NEhlsnMGH3hhWtF6GfFEEDFsYvk4txjacaqFiyBVz7dUdLroCJn2GYArvIjTEaPc3AMnjHIiqdST+hHthC5sHxjX1kBD3qX/MzVm46aNtmPHdjt6rEYyQIb9qJFOQ/LEcKTPhTJEezlZTB1icS5R7XUyZjFod0iusKhwzOhR1r9/ueXk8mXJoJ9aWsJC7l4+CZZ3X9Olh97CGXmJ0VpSXOJO0fULF/o6K4Itd9xxp+tiDPfqmiq9CX9hrHdY7ela0emgeCcsum2ob9S53crLJIMygkwMmjpBD0B9DVnN9DymbiFb4RF4EFlCUM3xIm2i0pTXQ4CQnafRn3Cvz0B1A2Nl64a8+npBQb7LkOmySxghZfvRyTK8p0ydZoMGDlK7SdaGKe9ubJeo7hPES+PGjLGsxCgfX5mkCi6OE8e5oDtKx/z/lW+vcJmEPGEdCA4BQYb0TD62FFJ73RPgtNJBf4LPY/+H1zm4Tobkd38dQCp9BP/mINGo7+UsAXO5iGwEJgGYZsKoRF6ejCAEuV7He62QkKMDF0sQFCaiFXF+YCgCRkXgd9ip2pOuEFhk+f3vfc/ngzHf6eTJU44Gwp3hKAQoB2XDfNFIiIwbr68aSEATlZWZIrylOHOyfB4tC7HaZBEJPe/k1L21udGO1RyxndvftcKCYssrKPEewXzkoUMQBml28PARj9JGoFO6UQlI+DFEdkTKhYVia1avtq9+9Ss+HxohiBLGKCA9X3cjPzxj8gCgXbzm2ZWkW/TKYxvFqARCJRrbfAiAxsb4GyhhGJRdoxuKzE1jqspv/dZv+Rn+gQygzBQZ5yf9xnhA0dZUV3vdif4xd/XnP/+5R+KZxkKdqS9KO+IVeZkzBzhilES6xPt9CSE/HVKY2dRBRiQKWlySqJ8kNNEaHThSq1avUdoMu/ve+6yWKP+2rVJ8h01dzA+MwohzBHCnvhhaRF0YoYEWzDvF+IYe0CGmjelpk2hsgyf3zwfuQ7srAexNy/QQ9vPHWCCiGSNBLIKijVmUzdQp/9Q6eNCOenfAgIE+XYV5/0LcaYkhBWRn8wXc8JGMM3JmmTN/6uRJ+/nPHrEf/fAH9spLL9oBGeGMoAHRqSNjrgPPMLpH7+YBz/SQQ7JNTKyEyMBLV23nyyxoShvQR+B1DAacD9qV9kXWEt2GPvHjHjioGFhEosMUq7BdHgofI5koL/2Kcrgfy/Q5rtBOxbOjCzKDRWRsX/mVr3zFfvWrX/l0Hpwb0kNfInTeZ8Jryg/nIPBsX0OUD9CD8qkrdcfpjsPmPGcUFkMbR5oRkDhSA5/gWPI+htAjaufvfPe79tLLL/uuNTi3sAYyO/B5mE7joDNb72Fcwn+bZFw+8shPfE3MZhnutbWnPQ3dTdkbHz/itzelzvRfqcHe/PoIIh9gVBJ4yVHdp8oJI4jBNfUA4Il+pWXOA6Wlxf6xG6ZZDR0yzPn4xReflwO/1N7dutV27trtdZw/f54NHJDlkXrowtar3q764Yv/RWvWLR07HuZP/0Ky5Mc/ftCnOp08Ves0hbdgB9CAtRwd5eHySbgzigDP0YP6CkCRbSydDWVTwI/YJZxZuMjXOJnnf/DgIe8nTIkqEI+wwxXAlzdltAhZRngk/8lQuTIG73RIHBcEVfC05GtVdZVv6PDQQw/bDyVL3hBNGJUC+KhOWJAc1hBwcM0BxD5P28Hz8ZrnsT172z3ci/cvFS5dIn0EHzI4tyWd3ws0uhsjOrvBQ/eRwQDjMkeU1dQsUho+gp1mWOgqA4/FNbEnIqHEWERH7rj9NvvDP/wf9ttf+IIz0S9/+Zg9/JOf2HoZSIlk6uRNzoiRWQHKRwBEZcxxuUzYJ4BQglYSJHQIMJBZwHigtbU0+dy7ri4+0BGEAk9bWxutqeGsvOoQ8WZqG4FMVkazMweLBtlh4ZSEesgPQdIbOfB66vj0pz5pX/ziX9lnP/sZCY92++Vjj9n3pFAYUgUwWv2sQqATR+zMTOfA8AD4HenalwDOGA7QhfxRgJRLW3HfjT2YQ/+bmsMWXqGdO233nt32/PPP25q1a92IYD5/VjaflQ7bKsWmZig4ztvLldM3ZuxY+9u//Vv7/Oc/789ZMPQ//+f/9GgMvEn9qTdnol+cwY1ywSvSIQpEpzs49iGEoVnl2SFjsqleR4M7RqnsCMAjT9Vl9TIKKyp2yWg4aVm5+bZ2/QYZyz+0f/i7L9nDDz9su/ceEE3I0F9wAH/oGGlMVPS//bf/Zt/+9rfdeHvrrbd8fu+jjz7aU1/an7rSHhgrjELEXSy4D0QaRF65Uv2NLTTh03q1FXtVE2ly5ZmYN017Y4gelSN64OAB/9gNEWeMMb5SSTuykBRnokMKtampTbwlYygBGPHTZaD83u/9nv3VX/6lR4DXice++Y1/sZ/JOTt86ID6IttNYi3hJOol6KMLdwKIfAkXqs7WXr3Gtw4S6+gxxi8C0DTSM17HPolhzegDdGY3GerFAc9iPBPpZpoB7RUCHuErkzznIB9Gddj3nWFm3o0Q5qCLt0VPgiCUzwe7/vef/Zk98BsPiN+O21/8xV/YdyVLCII4qL4+L1bvhS0DmRYArzWJXn0vO6Bz3HEFoG78hjfhS3jE21ztSV2h3/XXX++GNzgS7Sfi/aUv/Y39u9/9XcvKybannn7K/v4f/l6O+HofQfU66ODdBtWDqUKiiDtsZf3K7N5777W/kyz5v3733znfPPboL+zP//zPfdHk2bPUG2e3w0fcsrKgKXopzAGnzcRGfQq0K7xOe/k2mKIJzlhRcZHzLG1Me9TJeeLMWqoFC+ZJPqa4/Ljxhlvstltvk8FcZX/6p39sf/N/vmRVR47brbfcZp/89D2ib8A/3bKkm3ShNm9pYVs/Rpfa3dH50t98yf7iz//CHZtXX33NvvWtb9nSN5eG3YbES77PtNhBJHV6AEgJDvgm0KVvCUNZ9Dj6LNvvEfhLE/+wOJbpUQQZ3tF5xMiRXofi4lzxDi2td5Bj0tUtwos1UPATI2X04Yg3EM/J0Cw5O2XyJPt//vv/Y//n//wfj/AvX7bcvvXNb7qzSv2zswgyBbkMn1J/9CC/4VN4GR7HnoG/o9yF3y9EJ3iV43Ig7Z577vkihbEw4vw52xEuN9OP4NcDGAlSV1XVWOXhI97oMGVYIAkj0w5hj1jsBJ9zlWiasA9oUC909hMnT9k7q9fbnDkLfHpJTk5mYvopcTuVJAnFtc+nFFMVFxZJYAxReZNtsQQB00/YCu3o0WM2YOAQ8cdgy5IRAuvDoACMyAGDRmMOXuLoa7jonG3+SOn6dUaKyYWwDBlK6bravnK17a+qs5JBE+zGW2Z5YplQdvZYle19d7Ot3bjLps6728ZfM9uGlEtIpza4N/7MS0vt+OkWGz9urM1hFxNVS3JKhligO0eWnJyyfv18xTnbq02dMtVxWC3DIS+/wHdwoF/5MLtegEbQCtyhXezg0NSFt9rOHaikul0ISHuhOdvJEMuI1xEQHnG7LqJUKMNcKUH4h50A+BIZ6Rubmu2ll162N5cutVWrV8t52GvFUp7UyaeSqJ2JkDDHkuxx9ADqxPQjouPwE0PNGOpEucEbBcER684R+YYj/oYW4Mo17yXXIdYt+R7K6NLnbIf2c+hutZaT1fbi68ssZ8BoGz/jWhs9pNiymWaV0mmH9+2xpyS0K44cs3HT59nim26whTMn2dkTlfbSstX21vrtdtOiO/2zSendYRcR6kA7c6a/csY4xQjB8ObMHEgW2rFgkt9ArCfKgLblXWjA+9SDI9KJdOfzS3I9AebXMgeYqQiXOmcb4D5Roc1bttiRyiN2/yc+YYNZJIaBy3PRZtP69VYhhx6jkchefkGRf6L/DSl9RgEwtNzAysTZS3MHFmiTMYXRlKE+wbzWsWNG+5QL5laeOlVrx44d9SHomTNn+DQSj8Il6BIdNK7D3FQpUY9YEWzAae5258B3TOFOEj38HR3nz9mGltCZ31GGnf8e96KMY6E2CwQxOO+//37vf+CE4YlxSlrS4WzRz2hj5nvDk8h02ov5rDzHcQnvpPm2mqzxwHifNnWaT0tgRIQpWbzHTiQlJWxHSvuHumBYMf+dqT4M3SehfUkQ6/nOO++4w5A8ZzvyIvWB76gjkXfuQQuAM8/hMRxp6sTHPeJuQ5GmTNWaIh5hIR99f3fFbt+2bv68+TZkMNuWhm3/mEYEn1A/DFf6dG4u05oGyUkdaxMnjvc0S8RjQ4aNsuEjR1t5OdP1oAmyDf1H0EmyFoOVueA6R7r4yRmYi/NA91VNB0ZzcHDgt9452+FZ4A+cJLVzou/xsSXcvdBPu9TPsu2tFW/LGWgIi1xVb3bBspQOK2CNSGaxdFqzrVm/1vYf2mP5RfnSHXNVv9GOm9hY+avf87kX5c/n+VkAmp2dKb2S79OKRo0eLV24UDxRavv27/c2hGfQN8xRBnBC4YuOdhmZMmZxyGgPl03U44KEuDDEOdv0mffM2RaO0Af7gOCV71alNmxvbfEpHtgSq1atteVvvW3N6v+5eQXWr7S/nNMsN7b5yqanb2qwA3t22+p1G2zGdTfbcOZs50lHhGL8DMZ+IJ9VHiNlRZIX/crKbYhk/qKbF4s2Y+zQkUpfjMm8/mHDRvoCSQJtsf6Rd+HRqCPgt8j3ADwfZW7sAzwPPBB2e2JGAPS42Jztj4ztf0PgMkCkrqqUsS2DgU9+n2tsByANjOm//SXOKGKYhi/pnZGS3GYVu/fbnLnXSkgPE4NgJEsSiVF8pTPMxctYkB1STjBfdrYbUUXFJb6QgYUYfOSlUL+nT5vuQ74vvfi8zxfD0KNzR0UAs8HEkWn7Gi5ubOtayg6J2yUZIL9dYqrdMqXUdqySsV1dbwXlY2z+wlkEv5W6yZpqj9n+rZts6YpNNvvGB2zMlGtsUAkd+qy1tjTbo0++bE3taTZzxjUSMNc4qSRaXTiEL13J8saIZhW9aAntUAp47u++u9XO1J11ATB6zBgfQnvssUftrbeW+4p9DuarEuWEftQlduB4/iCgw1+OsR2FBsCZPbZpO9qNxYss7mHlPwxF+UR4iTIVl5bYWBkJysz3/qUNiObhYGQxSiJ6kDeC240i8R+KMkNGHRFOIgTIFYbbiXJifGBsUm+E90MPPeSGC185hJ9YzEekDOM80gEFFq9jHeJ1cp0v19gO0TT97mixxmOH7MXXllpW/1E2Vsb2qEHFltstenR12J7t2xy3nNLB9rHP/I7NmzXTRg0otAEFmXb4VJOt3b7fSqX8xo0aaoU4tUk4gjeAYI/REuqGMYIipx2IhjIkD/4YLGwbCT1wThgdIR3082huAvd4Jv9YBpBcT+DXMbb5MAT9iaFqdiiiTe66+27nMf80O2WorYsLC3w0gD392WWgqrrGtotHlixd5s7+LBnQd9x5qxtAoMjX5ACMqKj4skSXLNW/pKjYnbiz9Wft8KFD/rnsRTfdpLQdMtxXOU3gE/oNNMIZyc3Ll+ERpmZgnHQr/yDVwF4/dD+ZHKTjON/YjvwRnZbowABREUcepB/Tb1Cy7CSDfE42KmMetCVGOcYJjhR9DMcW+of2Ik8UP452iIRny0AjLw52MGI6DnqZdSDkyY43zHVlIfsLL7zgu1+sXPmO5MhGO6R+yWJDphJeDpAvcCFjO9KFM0fkNeoJRDphYMPHOAbQI+zAFNZlxDxoq0zpseLSflYq41C3bfWa1TZp4iTVaYjLThaS448R0BB5/D2CFDk5csrFK6ynGSCHlUV3Fbv32mkZsuX9WQcy1E6eOG1PPPGUT81isSfz3vftP+i78EBXJ7nA7TO/SJzPA/ACPsjYBq/AF0mL7Tr42FrYvpEpMSyEXrN2veg5ym668Sbxd5Eb/ZbaYadPHLM9uw/Z0WO1NkOyJL84z44eP2o11bWSx8PVzgPdKJZkVb3FT9BD9WcFNuseoD/GfG5OntetSH2HUdOdOyukC4aqrw93vb1WNHjppRdt2fK3fL47OGFwQz94TBL1/chwQbiYsc101C4drgNQloI2HFAp3P4DBtmw4SOtvqHJduyq8I/tDZLTNVwymvpRPRRr29k621ux094R7WZct8iGT8TYFt9RRkiSuIavaCzxpurkjk92jnSH9I1kcYHofeZsvWTYcXc4sBnYZ5tRayDyMqOs6FF21mHqFryDfMHeQC/jUJMOPgaoZ/JxOcZ2oMhH8P8rCFGcIAxdKrlkCoygPz6/D6OmX3mZD225can7DFXGTkA6517y4IxGVIflN/lOmDhBCmK+lahjMucOZcZCDIaDEPTPPfecPfvssy7cMG5QFiFbMrtK4HShG8qx8H9CuptIPtFolLucAaroqVIkqLI8outfCpOBwSgs9WRaQXNzGGZCkJVIQSRI7mfog7ANtFN9uRZQ9/yCQgmjuTZn9hyPZIcv63VKUNXYkiVv+pQMaAcNmWfHEDPGanz/StIvKj4URFSE0VP3YnXE0knHMCwRNnaneeATn3AhS4SbhW1MQ4FWGNbu5Okf71DnHkjQBeWNEmaRGWmIInIwDxwlj6CDLuzVy/QKhDqKPApE3gm8fgWAbMFfdADzQBsia4lncqrgA37g1MycOduKSjLdQBw/eZKc0KneH6FLU1Oz45mMK/UAUJAxmoLRze4NzF0kTxwYlDpGC4YcexCzHzf9680333RjGXolQ3Jbcu5LcKdc9SVvIoOUxT0cMC9XTzG6586dYx//+P12/fUL3UGClzG6kAe0+Wz1gbY2vStywApM0wLAF57ztsVwI1/lP2TYUFswf56NE20aZHQzH5x6VyhPjIYnnnhczv6LbnizcBkeBMiXL+RSDiN+bGUaOO/SIPB/oCX1o705R/6LabiPwYJRya467MqAQo5paVvS0aeQlRj1/GaKDMYa7R7LiHzd2+F625SDRd70P97FOSVvn/olow4Haqn4AhlCv+HM+hq25exLiLiAV3IdOfMboH3gX2jCyA2jZBge1DNCpAmvEL0fN26sLb7lFnfw4RmmkkCKBKkdQnAoGG1MRfDn+lMgfcZI2V133el9C+eMdJRPn3nl5VdEjxftWclYgkLM5WWkoy+BOlMmSCH3+E3kGccAo5dFnThIBQV5NnnKRBs1crg3c6f6gsmB37ZzjTuQOVml9rnP/F/2hS981iZNQQ7ss6d/9bLVVLUHnFNbVE6YqtfZJv5mgbLXRe1Cv0+0x/jx42yeeBFnmIWXyBK2IGSjg+eff8GnUrwoHkHW4gAyr7tn3VFfQoKXoQ0RbXYkgSZl5eU2dfp0u/2OO+wLv/PbHpnnoz/VVdXhBQBr298P8oW2ps3DrwDvh3F4TU9pEwGOEv2NHdUIYtRI96KjfNqgIPIuQNshX3Fc6UfIFs5xfRG8nszvsd/Ce8n5XAoksfdH8P8nCA2tI/IizISi0W+UPnuasgKY7bi4L7kt4Z2ISpAosi7Wp0cq0IZhPjZ5Z2eHLxMiQJmPKd3qHZQOTZSMKA0eP9cxMnvVgREAF/Iy+vxQxVUfImkAhoPsaycZ5nh+Xq4NHNBfSjBbwvqMtbbpvsjCJ3Dr5WETBWDrOqZE8I4b4udAos4YJxIqriQ9wpFqY8eMsdGjRvt2VZAG5UPEgcgRUU3OLKiB1rHjQvtonPUlgBflc3DNEYVI8n1XpDpAGMFEdAplArXY3o29fsGTaECLhCn4Kqny0fv8k8BECUTPBH6J5RHRI9pMvYmq4JxxZkEZUW7fQUdneCpGEwDepcx49CV4vRNC3tWm2pHy4He2qaVNqXtenowk4UPxTE/wJkKw6zm8z3FWho5/kZL7vKp01IH2jA4NBzSO0U2MEngAOpCeZ+RFJDRG5oloc4/nkUdiGUDydV9BUEoJ3haAK33Ho2w0uIAv4TGnFuPqd//dv/MDw5AoPYb3KPH+zFmzfC4taxZpuYSdAKcEvMmLQ3RvZ3Gb5M9I9Y1pU6d4BJN9kplSUCoZxlaA3GM+JtPdmG6RmZXtfZKdT3yhoa4phwOI54tB5DFwSj4DsY9gwOAEcsCf7EZCXXmXg3S8Q1tjFBPxIvqOk8nQPm1NumB0hl7F7i444vAUc+CjMwOwCBI5zjvwAsYDfIP8pnx4Y4xkzBjxD32G37RHXwJ1inXjDIBflFfQBacCY4XnOJDgEiPfpInvUW/uIylYRDh4yGAbJEeTxfvUy9OIJai+iusph/fUIIn1IPBKl+umGTNneFlMocjLy/c+guPKWhH2uB42dLj3HSFw6YxwiYCBBn6+M4zw4Tc0IpjVUF9vB9z5OOX7gY8eM9JRAHWpBmttqrMNm5bb5s0bbdCAsXIsh9stty6yT332Dhnc4+3tFets+9Z9SkuwQfKkWy91E6BgjUuCHlQIQukMLfnIGP0BXY2TG2UMU/6YsjNCfYpdObhmVI124/2+JYucMVU0TKsJo4zsVc6UxFSfPiabQs4m06lwHgvyC3xbRdqaw5ERLXm35yuxLoOQzOHx+4Lkp2ei95ElbFpAxJ8dwVzfyC6AXIhz6h77Kv0c2QvNsGcYReKAj3wqjmgY08HHyX0gWUZcKqRC8vBKqNg5oAeJ7HUg1HuP+J4f+hOP3h/xYTidC9whn5BLyCnmfV76xI/kFD2putF6EnD6ywA45wCk4FeCMRN/Yx7vvROPcC8+iU+Tf7/3bt9BHOLqZa9ev+68lhFjw9RYBIEp29QZ26V0Wlrb7dTpOv8M7MSJE6xQ3nWXyOStS5YwpHdY3UEoogmRBGK6TjFTu4zv/EKG8FFibTawvMwmS9hTClvy/Mmf/ql/AYzh/5/97Gf2j//4j75PM4YZ7Y7wCYxwFSAwoAv0bJODwHy3zjQ709ppDa3NEubMkQy06OxKtaxcCajhE2zAkOF24tgha2usN2bYdHZnWEOjBKqkf//SIutXXEC21tosJaPq+edjMUpdqSjDdHVmtL4yT8vN85ZjNwc+hMDIAi/Nnj3Dvvzlf/IvB7ITxQ9/+EP72te+5s4KwjEKARRS7NQfDIFLkE5+9lpF4I4O0YOnvtIbZ0x3OVxY8EzlxUUoLLJCacAbOCdcE+FlHirGF4IHJT99+jQ3pNjqihXzAEPh9BqGPuO8bYC8qRdRKvKjbqNHj3EjBSHMXrv/63/9L/vaV78mmjzoXz/9kz/5k56IYau8H4Q29CCfS6PLpQMC03nG6R7mVjc1NXqdYxSWZ+PHTzC+iHhShgWfi/bpkNRTzzAs2eln7FjVKz9H/h7RYPDEqGKudarPT4Y/MJ4AeAgDMT+/UIbUBBkH40TfbDl1A+23Pv8F+8Wjj9m3v/Nd+/nPf2Ff+tKX/INA0AyDLzpj0AL8wdXrcUnwQfRL8IyOVDwNyQTKgx7wC/MiKdMXs9HOyssX/qpNM6VE8wry3XHwIVWi2jKGxo0eacX5clxUbFgv0uVyJCtL96KCpEzlm1lQ6DRvbhPfqT/1E70zMrOloHPtNz/1afvBD39kzzz7rJ9/oL7zhS98Xk7rUG8+olZZUtAEBFgY1iYZSNawCzUK9Q517/3dC/AlbY+Shs88MqsMiKxz0GAs+Nq4aZOvw+BDKkTrcLDoR/A3tIA+OCWshdgnA5TdFm6SUQ4e9EEWueFUMBqEyMVQSk3LcHp2UpEEnuQFfSgDvDAIUP7Mb2c//OuuXeALDn/84I/swQd/aN/+5tfVj/5IBvdgr0+fQSBW71kX8LNqLBzbffSPaT0tzS0e2OE7D/A1VaEO0IV+xfQP2idIC/E+W/eo/4weyZa07LMdjG1sMqeV3u9iRJIpE+o7zOWmz1gawZRMa2nrsuPHa91AKlTeTF8YP26E/eM//L394Pvfskd++kP7xS8esn/52pdt9KiR4jf0ZAICiS8Mui+7ViBpJmUZqt1T+R6gLzK100f0VFlkFWf6Cx9penPJErtZjuf0qVOtpJApHrJPxP9ZeXwdutoO7D2oNu+2CdMmW5dQKxSfzL9mll0ruZea1m279+60JukiueCiWYp/ATE7N9NlDU4HBGZBIc4915SL7uCz8kxhhK/GjR9jvyMH+Lvf+649/sQv7aEfP+Syle0aWZ9F+vcjw68HyCNHR22eKRuiSDjLJiDwwqgxTreYnp2LRshJ6i+7Io6C+nvoKF2kSOdki77sLMO9dGSo0sA7EV9apIu5Jxg0tBMGDgmY1ih+yZf8SRcz1dE/RfdZM2arXBZwh7aMxjYjVdCUEde/+Zu/cb3MQlPsm9///d93eUb/Q8bG95C10Js+ye/LgVSYypksVgV84gHA5epYwbANR0dHq7FfJgs/tm7dYZu2bLe16zZ6x9u1a6ftqaiwXdu22c7tu/S8ws7WETLUq8oqRBkZkmtQp2nSFYJbDxIHw2ftYkQvXn+65Q6y8lc+nZvOsndkEPJMfzpbfL5OnWjBABoGN18SC/jKWOpodiGXKNrfb0UY4zG7URDvUi8px652Ga1q5MQT9WkdwZjnN/f5S7rWliahwN2+AajvhxeCYRQMpXAkgZ6zCwSCLHAYho4UfCa7QWTbvoNHbOuOCnnJUyWgSyxbDIju9w9uCN3ak6es6kilnTx23NolJIEzdXV29MRxq0OxSjh2KCFzLht0f/jgQTZ/5jXW0dTmCx9QKBhRyUYhZ7+kHLSI36ZAr8x74P2f/CuAMt1SbrMuOR7Zok2GxFV3er41pqvzpqh9U876LhM8T0/J17MSKxw8yX7zC78rHq20M1Ubrb2pxU6fabOXX3nLstTxF86ZZlPGjbSO5jY7ebzG50YS2WWYr0lp6+sb7PDhKmuUQW8Z2dYuRX9Ijg7D2kRZiEqxoMdJIsCwTqYdv2OnddpeagfW64E7UH46xwIEfEnPv6YHH3FGiHF25hL/JpQEU2fgoazsHAp345sz0SrmCrMzSfDuuzyixxaACKDhRK8kzM7WN9qJE6d8WPuU+IV+SjENZ+tsjwyOE+IxDOZm8RnTaCp27faoBsa6z6NUWZkZWSpfSsR5iu3m+OxyAAQhRuiVgiA8A31oE0Y4GIKElG4v00ZyNIr797fZc+Y4Pm8tX2Yus5W+QfWDJuB+zz13yRDKFO1qrKrygIyBar0u41I0Z/sy1lGwOwFih3aurjpqNTXsBdvPFixYaLl5haIFi9xkXBDVUp4ggiLn4B0EfLKQ5wxOl8wzXrMLQeCLcw4pORY5QROMRI/AqhxGMaAZPIdiZJu9k7Wn7c1ly+1//sn/spMnT9gtN99st+rAyO5o7bKOli6r0/3jNTVWd/qs5GeYo4xhXnP0mAwRCSbR+fTZRjskuuC8zllwnbpTrmidaq0qux3jDT4XanE4mNoQrcoSL9L1+Z0h+ZMjYz7W1GujH6GvhLu9v3uB9mcqAE9wGOFlDAN4Y/++ffbII4+orQ972ze1tNnBw5V2XP3kuedfCN8laGy02tNnfK79irfekpJuc9rt27fX56CvWb3K3lmxwvburhBNmu2o+tPevftlEDS6c0FXrFQfqao55v3KnQbJeRa+YeCySJuFpPRpDN2wPRoLmlMsN3h/jnvfAUa/cuVQttQHx6tTuo9PiZ84ecxeeeUlX4OCcdcimuyu2Gu7du62Z55+3lavXuvTxOD7Awf3S06eEV1lPCnnMydP2g7ZDuNVn5FymIoKc61TNsWpk8dt/4F9kjv10tEtLn/4LPmRqmprbkVHYzClimbinWO1toBpAhPGigegBQOb4kmlcrUsnOm+OGDejb1GHwxQz43shJxEXsZ7UXZyYK8wsocRhlPGvTOna23ZsqWSD8utQMYijmXVkSrbt3ufrV6z0Z587lXxd5vqWm5lBcOs9sxZe23la9biuIkXzwppyZ6Bgwtt+qxxcuglX2rrrfqIdI74TuwQZKtkSNXhIz5yQiQdY5AFzMelv0eMGmVTpk5xx5fKpmeo/6J7dI3NyzSmXDmv0AFT+2L0uFwgANje0mGtjbIr1Fy1km8Hd++xOskHD7qofgfVH86ePm2TJoy3axfMV3vSn+TQgqR0Ia1cL32BbMmTrMuRHEph6YxMOngHfVJztFL9b7+dbjgt26zT2qTbT9Sdtsqj1VbXUK87KXa2sdlqa+vkyOXb4kW3yQ5nh6neURrOcVoX8pWIP/e55p7XR2nQz8kyljM6kbSXC2l33XvXF/kU6KhRY6yfjDPPAp7qAf2A6VRbxBOdjXlWa9evt6XL3lKnWidPfp+dOH5cXt1eMVeFvfnGm/bGq68bn3tukUvHatD8/CL3XOGCri4mtEsRqScg+DoQHqoLZWM4douJuO4UM7spoXQede0SBiIYzzIwqDtkYnenW4saBaZF5GRKQnS1NSpvpZOya5XF3NImDzlTRiQMq3zwsPjsabfy6JJxjdCit5IvQl8tHUSXbpDe7ws6O3AaWLQQxHb4hGpohL4AjBrasKqqUh7wYTV8jk2eyAKc5OFBJSCRymVIiaiIK2hJa3aP2LNvv+0/eMiKS0r9oyR5OWG1L721qb7eXn7xRXvxhedtLwvRlH/5gP62bdcu+8nPf2bvrFltJyU0WBC1b89ey5WhM5FhuWHDpYzkZWOBUHHBhZkNXklcOvDj3HTJrHWhHN4PLv4FSV27JSPBCzPJoD6jzrZ+8zZ7aclyq1An75BzxpDbgPIB6ngyxGWMp2YXWkFxiR05tNdaG45ZdeUh/3z7nj0HbeHChXbd/Lk2sH8/O3um1l5/7RX7uejEXp7MzWbRz/ZdFfbDB39s23fuskMSggwhslUg89LGjR9ngwYN8KFwb7MEnufj/Z56XALgYfPRkHQZaEMGDza+Xgm4CYFUjm0hnnIHCA2kW8yP3KD3Xn/9DX+/Q/nwZTcMA4wLFq5tfvdd+9nPfu5zHs9IKdTIKDpwgA8w1PvUgGnTp4k383yv6dWr3vHt7Pbt22P5UjIs0Dp8+JBviQdNDssoYT9m5q4zzM18S3YpQYjFuZS0F9UOR2/9z6cNgJMAcJ/r5OcYcJe3G0mKNUo41+zZbquXvWYvv7nCTnVkWVphfyuXwhpYkGlpWIzCM1dOQK2Mxi0VhySX2q2mYovt2rzWatvSbOLs62WMz7Kywgx7d/3b9tRTvxKvvOZCubysv4zvKnvxpZftV08+ZY1SArt377ea6mNCIFX8wU4/o32hH+3lkkX0iPIQ2kRBD77xiJB8DZz/u3eB5MjEAkl2FArA2fmlx5AAJOtlaO7Zw4dIltsyORe7JQsYkShQ36HdmfLAywcPHbTVa9f4Aqx3t25zx2jRTTf712qJXjHVBCdv88YN9vhjj9nSN5d49HiqDIJTp07KUH3eXhWdDkrWHZCuqD56wqOWAwcNtomTJvuc1xZ2GFKdGGWhbjgiGMawNABlqHKoS7iOz2KNIvht/WGHJZxH+hDrEOLIgH+gJKEHcASZQ8/XLV979RX75eOP29YdO/2jRsy3fUP9h48cwWujRo30KQubNm6yr3/9X3xdy17Rb8u7W3xu9ZtvvCE9ucqj0hjN6J+HHv6JvfjyqzLYzzhdc2QErV61xh4TnQhkYageVJ+Dnxn+5z2m0XhkWXKOXVq88ugM6SSvOJj7+dIh8suFFkj2gHvyLAZkTnK78Nvmc8Uff+IJlyX7pXPWrl0vfllhK1as9IWFI4YP88jz0WPV9swzv/K5sEePHrcjh6vE+1WSv6k2Q473CBnbjJBVVR2xJUtetx/+6Ad2+Ij0V1Gh48Fi0K9/41u2T7QgqHHw4BGrlENWUFQsQ3uC9S9noXZiZw3QhB70IicFfcWpclGIPYDQH1c4Or5AUvYB01WQsSGfoPsBeIXgHvLuzSVvqp5Pe3sTaCAQiR205PWl0hG7LVvG3NjxY6w0XwaedNOJhnZ7V3VqammyYwekO5S++uRZGzBylC2+dZEV56Tb6jeX2mO/fNo2bFHfUp8rLSmwQ/v3yMl5VbL5DRnYJ6TH9/uIW7psoCFDh9koPggjZ9ORpO4JZDnB0xyJR5cN9Jn3XyApp5gIsLoShm27rl9+8SV77pln/ENEJ4+fkCyqsq3vbvW+PP2aGT7yniG7DPlGnzh5/Kht3rTJ3n57ha1Zt8Fy8op8h6MS9Y/iwiBzli9bYr984lFbsfIt2YVmA4YMsMOyl34l2j/7/ItyxBpk/xyW/NqvNmT0ZKxNmTjeshMzTGM0PfBG73G+jI2QnCb5d4S+XyCpzDuIBhPq56cQY0g5bsCP0cdXxNjChx0K9h88YKvXb7CTtbVWJCWSLYXFZzIB/nboT6oaBKHYLY+WZ0To2rrYBUGCVfc9EtfNFnchopLSLSNcxjbPPB8MXx0Y1OhsugiPurs7fNjJx2c8vqkqdre5dw5AJyeYVx2FraTKoFtCnIgLi+giIIPJ271KfnPmQozlwzlJRL9S4HLuvMM9LyHibeLRyfDIN9hXpxwqpTp18hRfAMhwFUYNe2uCOhH9M2eC4cpiCaJUGAV46SyERHlgbLOimq2FmB/p+ctL9kL+DYOPNHiPEq+IPnj9CIj4RUQi/UdkELM3KgoWeuTLYGau4W233epe7WEp/rozZ4wt6+66625fzR4BJQ/PM3pzSIZGnJOMkccuBdCOvZi5h9JifjuRWmIhYb/gREYfNqj/hOFuhsCIKNZ4hJT5pMzzQ7FjDEMzhn+ZCkTao7rPQlsMbVidr3/xqWQi0AB8CI35HDMGHfkgcMkHvjomo4aRAIx18mPKDEor7pjgRs7VogkAnuobp+vq7WRdg02YPE1GzTiPPJ5MrGIPIjLFxuj+optutFnTp/hqefpIQ3OrG/W337rYSoryEgqfr+bJGK85KuNrszuHHtVRXZnLS7/bu3ePNUvJlpeViU9G+FQj2BaAzthRQu2qAVFsFgfxGWoMveuuu9brAY+zxZnrJeHHaAVRW+o1ULx+5113+ZAsc4kJEMBzRMeROfAJ/LG9Z2FjcJYoBzl0RE4Bi7uKRYtR/nXAsBUiIodoupcpwODrazkUnTEUMTIUnvBtyOR04OQz8ocMGThgoKdBPmCIk44+zhQP2peP9JAPPI4jzn7RfBWyXg4dhsmAgQOsXP2Npm0SPcmXqDk0RMfh8EIb9i5nN6qammrfpYMFo4PkgDC1JOLqjJKAMMp5ZSDyIW1AHSibkT0OIoPwP7g01De4bKT/O62YHyzjnXq5LJEMYBSItoaXxo4d5/KHqGGYh4zYTjXmue/Yvt1lBmVxoJuQ4/sP7HcZi7zFYSsrL/P3kcsfJoAv9WKb1PjtBKeHZD38wDSTxsYGx5PRAPCDTqTHIZ0zd650y13ukB6XgcmHXk6LFwbKOWFOc2lpgetk5E+98q2RvEYO84ExZAlNwojBvr37nKbwBA4BU9nYGjCJNT5UwA0hUAoCGN8EV9AnfBRuV8VuX0fGvdlz5vrXJHH89Vh8JQdS77BN4mn1LUY658ydY+kZaVZ76oRoe9blI9Wirth3jKTu3b3PGuub1AFkn8qwrkeOSxft27PH6TNI/Y0vSMMe8f2rCSnf+O43ujPSsmzxzbfauDGjA0Ln9F285i5rbW7wzpDBXCWlamxss9def1NeVZ2EwUS76cb5EkSdduTAXvvhg4/YmvVb7Ld/6/N27113yuAusG68YmWOAO5OYcsgCbWOFmXdrjzzrN3SrbU9xdJpJFnUqUxbYfzAJ3HkuSHuw7coJZ2zWk9bWmedWU6ZVTapUfMyrFTtnNPaYG1iytzC0pA4Vca4jjYZnWnpSqd3VbTKYYhXLS3zv7OVj4yoVmqV9IwclSgBIVyJijPUnikHIsNxknfPeyCAFHLDPKEF+gAQSggXPtlLpIFoyQMPPOBDHOcDxjAGHOlhYB/cEk4YzAhs9qzlfrMMglTdz2Whgt47oY67Z/cu27N/n+XkZtsDn/xNGdLpHvnFcWqTUmxvabdpMjz6l5axzXCYllEgz1IZuPEveC/jih5+JAOpzk2ZnOK9eVwY6GAIlWXLlvkUhz/6oz/ye9SdM4d7rES2vQSUJqMa7bZx8xbf1zOUy0dtcnxRHkP2eNMob6YadcgIrZARXXvqpAtLtiFjYWSmOj7KrEUdHAUb982FvjctWuRCF9xQykScGKYrK+vnCgdlFBbRdPoKcAxvn6rRB0D7f+/7P/Q5rXPnzFadpiaorZqq7k4HbnAt2oQv8qU4LZh3zH7ICDoUB9HxoYMH2aABau/u4IwRLWlqbrEqCUoWorFvKcIcINoNHVUxOyl+2yfjsWLnDpsqY3zypInu5FVLWVZW1ng50AF6sMiNaBU0CwvamAucsDIvEdxAF0QlzjkCbUDfYfsmFnPOnz/fyzg/HXwD0C6smq+t3GNH9++0ltQca8wbbqct30aWZtuMMQMtPRW6iZaqa1t3rh2pE0+tXmH90pptRL9cyx06yTL6D7EsRIHauKP+uJyU4x5x2r17r33uc5+3/uXsElAnZVMpQ41dNtp9wdsw8VBxaT7N4wCPhiMYfPBOGOO7OFBPINYtAlFWdnu54cabbM68eZIlKi/xjLPzC0fifa47VA8iqseOn/A+lJqW7nKhqKTUne/yhCG8fj3zdRutsKDQv5A4cOBgD1aQlX9gRWccEPgIPtm4OXy6/5Of+k0Zj6JJ7Sl3bjGy2V40PT1b/W6Y55WVmWgv0AJRUBQvpcdoSwLO/dULvBY4JQG64Wn1Z9Omzb41HFNF/vN/+k/+GLpBOiKVOAYYOxh+1dVVbvgyglg2YJA18zEn0QfHnDnUGFJEYelfVXIYMK7gd+bTEgxhkScRUBb1DRH/8/0Cttjcu/+AHThcZUeqj/qCLJwU8t2lfsQiOxDmHZw/AltuUIoH4Qugx+nQb4Ip6Yx+Yui8L0XOhfP55ctf/rIbiixyZQE3jzt8viZRP51SKZcFxN12/MRRq66qkXFN2xfL2JTOkK7ka4c4WYWFbG05xPVLS0uD9EqN+Kna8+uSEVDev9wNbbY+xFDFsSHwxpQR+IPpqBPGj7d58xa4cUo/wphtbWmTDs/w0SL22xZbngPUKble5/eFDwLe4ugkYKM8MGyffPJJlVvvI6lz58xJULZbfUJ4iCge6RcPwSfxK5cEfMK8/HSfwsD0mvScQhs5XnIxQ/aJsWtXi9U3ddmOylrVSc5rfY2VZXVa4dAJVjR0NE1q+aJz86lq27HnkG3ZsVeOVoYtvulaG1hW5COn++S0NDa1WJpk98hRo22IZAm0cVvX8TwXuBfvXzpVegG6slUt67T+83/+zx44gc/jM+QrpPdAp/Rploz+rtZmOygHqaryiDUI17zCYps8dboVya5IlYGNSmpubbf83AzfZ/t4TaUdrTxkrU31onKatXbJHsuV4yZZMXLUYNdXLS2NcswP2c5dO+SMVtl9933M5QVGdk3NMRWNTqq1UaMY2RxhudLfrS2dclqDw34ZLHFJwHaBmzdv9uDaxz72scTdC8MlG9s+B1r/fEWwDGOIsfKdtT7vcMDAoXbd/FkShO12cO9O+9b3f2qbtu21P/mjP7RbrpuvXttqzVjaMqpz8oJn1tbebJkpLJpCJGZaXYs6XFaOMWEC/ZbSJS8us10XndbZVmCNLZlubKdkimGziVk3CjUZ22n51phSaMfUxsVi9NJMotqiapcS6rI7o80601v0PosM+nn9kB2o+BTEMUNwYMR/He26xchlupwKGgdc4zvhEBU6WbjV5oYOU076Ci7V2I7pojABRwQ7zhAfY0GJEFnhPvPfwZC5jNxoOltnzRJqe9UJiLrcfOti6+CR8iLagiApUqfISEm3LhECdd9jqCijDza2LwTnpkxO9d48Lgx05osa214/5S4DisUjRAUyZdzWS2hiLBKVOafsROHQi/3DmULVkwcpScCl6k6kj0URGIhEb/gYQ2m/Ut9PFuAVPHK2j8NQR0mCG4Ys2VCUL6qQAo/zTf+1cDnGNoaAj8QwcU/IYkBF5UwVAZI21df5fFd/Rjb+JFUCMdQ9LHhkL1zRxI0pRoIYderyTw+Xi18Z7ibiREQjNVU0VxnkzR/OlOcLKXUBvVkEdTnQd8Y2FaQOOrpadJYSlLHdkp5nxF1zdBuFl8Je21BCRnlraq5104Z6Natd8kcCBgP8TFeW5UvvEO9Paa1z4/LosRPCZa3de8/HZJSVhKJEARw3DKfIXhxEXSLEe/yFcpdKHeoJRJkQ4dcxtgGMTnClzVMwoJUv+JNMtxM4IzsZto//oHEid7JUnVnXwCgK8oktI4lOLrz+Oje0spnipnZh/isLvPPyi8SnjEopV+QWAQ5lB0Ydes7IKovpkmuYfJ0MvKPie0E3PK3+nG9s00+JGMLLLGrF2MYZp5FwxDGoMtQnCMIwLRI96M91xmH3thRRSOuRR3hOefqXHpWKxaUOEARI0HL7zt1WdfSYG9NTp0yRAS/FJjzdaBPDMI2QIAL40K68hTHnc8upjK4px0dkRWO3tEItLwrn88uFjW36WWhr6tLYeFbtw65FYXF+GAXjd7Z+h/7lM5KUJcP5XZ1yWrLTpYvYh5waZ7jB7fST8cg8cCrMgnPqG75ey7Z5m90pHzd2vE9x87yVLzmwABOZHXgH/ENdYj+nPvDU+f3gYgDaHJdibEdgO0xkK7olBr7AKbQJOhn6yQBWXRloh0Lpese6m/QjT3YLUy86rSil2dJSJIMyiqw1JeipNPFZhgzzEyfqbP27O7wPTZs0xvqXFSoTeA+AIyBCqvcfppHmSP8gn8+vPj/jrcujTADoezFjm91SdGm+vlr9oltOB9twhgL5I+dEBgRBTYKZIpO1ih9ys1PcRukWn6cyOdtlixLI2GvpQEeJFpnpdla2Cw5Oi4z4I4cP2b79e/3rovQ5aE/ZzZI39NWsTHBTHmoH+JeyOCNP+hIux9j2OdtEI5g32DNnOxnENR3qFG6I6D+dgs/kQji+dMiKTzZXHz1qqDpaq506Xm3rNm+36tpGmycjYMTAUqs6uMfeeme1vfT6Ulv69ju2cctmKyjMt1NHK23FK8/b08+8YK8sW2sVB49b7fGTdrBil73w3BO2YukLtmrFm1IYO2zjhsO2cdM2W7rsDTF3l+WLEWt2brKfPfqEHWvqltLLsS1rltvTP3vQNq5aZ4P7jbKCvGI7ffaErdu43J565il7a8VqHeusYucua5Gh2b+szNLVSJs3bLSXX3rFXn75FVu3fqOtWrPOmmScZ8kzzZIxA+OiLNEyzt6ihQs8etZ7KfZrA0wL08R5p0RPiAAQZUkGhG8UKAgYFnUReWIv6WhUoBBB2Zld164M1Ptff+1V27F9mwzCbJs0eaLlyZCnPh0SAhjrRF/TJUgZ6vOhQzhUgDDhObS4cI0vdPe997gTj8uBS5qzjYQTsHCECDKLLDzird8Yi9DEd4rgf+JVXoFizPvjR/zwj7eF986QF8NSb7651PdBZn40Q+VEsTGiKZvPWYchzTBlILYNhjpnhGVfRbUB8gxztjN82BqcqJJXC6kD8EPXGLfOF45TMPYwljGE+O07TShppu6j+EiHUmcY1KeM6KF/cMLnRqbIWGdleaovhmPO9lNPPWXsnTtu7BgfUvcv+omHiLihkMnPP6Tk+IAXSokf5EWUCGGpn5cAtAsAfWN/iXC5c7Z7IIFLe5uUbLvaXHyeqVvEGKiv4636YvA1NrVZHlEbZCLvpsvQEM2wG7LSum31Sj7Qs0L8Um+3LL7V2JoMRydMhQjRMJoCXoQ2jEZF2UqbYtRwLa5L/Ls8OL9uF5+z/T4gvDBCccxctogPwNOz1wGu9BeXh7oZDW0UritdaKe6wmtbtmzxud/sOz1mzGgZc8McD/IQd0rOZnlEFOmKYQU5KIszdKLIEElMGK26wb3E5ftCohf0gKfVH6Y0JM/Z7lHWvKECXc7RSLzgdOiwhqYmj6wxCsRIp+OW6FfOk7Sj8kA+UWcO+Nr7E3mRBuLp/+lTtb7jTGVVtdpllMt45nOTJ4toqSuGDDRwo1149vIOeIEYeQX+4G/AN3H/MiDyy4XmbJ+bpeREJlNJVC/HIzjeaezyoPYO5hJz6gM/44zQxkwjwoGhnNQU6IZswICC/8P8e/KvUXusfHul9O/6MCVC8rVUzju0YItEd971HnPVKVfFewMjp5yPRF8vQ+mT+8D5ff9i4DwgwKBP/qhN75xt8Eau4WiKJgn9CM8wXQpcvL/rPrtyOM+KjhiXyIj0Loxy+nmaSZR4m+fC1m1N1tqhdswIzmR7S6tt3bDe1sgeUY42aeIE2Sul0vHwHWUrrfLGiQVjymSaEfS5UHW5FW9f4PElwQfP2Q48SHuRf7fwwpnFedZN3QiOEpF4AoBIDtowfvWUd+Cp8LLoI7p385v2FpGgE/TetHGjrV+7zqdyTZ0yzcr7lcu5QHcrH/1jVJXfTJdkKjJTUQAcu+C8e0Z9Bn07Z1vIQUCvLcyduA1gmERDD1ElCqmx5bXmZFuaDHCGkFlMmJ+ZaqdrT9oKdegnfvW0HT9Zq/zSrViGHp/nfEbK+s1lK6xJTs3Z+mb/VHlBbpYNHFBi725Za6+/+prt211pg/oPF8KpPg1ixYpl9urLL9pTv3rcnvjlozLG18ogbJPBk2Eb1m2w73zzh7Z1034JAnZIYL5hpYyCJ32uJftyhkVaGEBpvmgOWbh9+057/PEn3bDLkvDHeKIv0T7e2N5Q0CEoes5XA2BsyqdjAygLthdzgaz68MUmZ/oE46PQMXx4j23K+vcf4MPYDL8gGD0Cq384ECi75tYW77zk61HdVhg10RE+EBL06Tk+bFCZtJE6KLRguDbWA7q4ogqpvL0BjGM+tCBi+W831JXe35fAwBgFEJpMhUAZ4dWjmOjADPWTGZ3Y+4n6AZEp3ouCHhz60tC+XKCOzFOnrzpOwsX5RMKZeYTUEP5AYQhxybrAK1EROq/rTB+AvL5YVoILg4DPBrP3MXuKl5b2c+PfQQIzKj539AKrOi8G5RhI3hOluxpAuV42All4Z2SrH6W7oY1vECrMMyGqM4tH8yTLUlF/0CYtRGaZ8cDuYmxvVV4+wMaOZb9wPq3NZ/rRpMz/7ZBzE7b+g6XIHqOlxwkB/Iy6l7LRP66vFjjfireJQHIATKljDQg8EHk7GNqhAm5oqE7wje+mImBLO75CiuMzWob2iJEj/D50I394g7nNBBB4HzsCXokkQUE7vXSDgz4J7/QlRLlAxtQJstNXulTf2A8wHjEuMJ4x/GhL6gqe3j/0ErKTOvEOB/cxFD0/nZslF5hChFHE4kEcduRwfl6Op0XWYqDSLwGmopAPeTqO4KYSCXgF0G/1Y/ozUfW+JgzFeZGJa3AAz2hscu1yj/Z2BUm6cIbtMbR4Jx5OF1UjOFLQNXwwiXVH1HnQYNFktHhE8rVIxkuoc+gntDtz6KligrX8GXB+GQD5BjnTtzRxUBHQPOAn/UmARuDOFTLUUQjBFooHJSL+3m7+gzZL8Qh0VggDS/bgmIR+xkwM9AqjlnzngWmPzIH3vAVhtClcY3gHwx+6oMvRO/7zQwf4F4eU+qBDfYRUNIEWod6iiZDz2RFCHzRJzho++rijTb10pDpPcUM6uBvZ0OFfm+0nHTx82HAbN2a8ziNUf9VX1VfPk8wWXWSTMR0LscqUM0ZXmlsaxItBbl1NCC12EWA3ECjhjKsjMjAKOhgkopbfYyuiQKh2Zd0iYcG6uvLyEhtQ3k+VTbVjJ07aiFFEwMo8kl6Ul201VVU+p2fwsDH+WU+Mmhuuv85uuGGBiMQXmRqttHiAXbtgoS1YcK31Ly+FlSXwzlpNDZGbCmttbbJxY0fbTTdcrw47xpa8sdzeeXudsRfq4MF8DGGw1RytlpFU6PvmEukJhlSK8YlTPqtKhyd6ylxKvNnCwnzXt1QvwQOqAy0mgQcD9TGEnM89kiFQmE4VpE1sh6gMaEy8OQQZasBxJ53OQdCl+Aputl9jniDCgVKggwtAzyHk6V6r3mG3CjpIL6dGLEI6IPnOhY5eeP8nfQIRR2WNEo/Drwghhj9pP7Grs2qCXf0V6OCLK4HY0DoSSTwqzhQQPuwyc8YM/xBOGBpO0A06S9mFiAN5BjzcqMWB0ZlpR1dE8F8KiF8omwPUfJhT1/CNGzwRLZ09Gi2hCSD8MaRwQOAp0rX6FlzBvMLhIIJ80003+eIvPh7gQIcReAQKWipxrLvzoV+FHsT2VAlyffhAewkv+L+tSzwinmchPxuQgBJ4ETCITrWP/GBZI91FNx5BL3pRptiBPjds6Aj/yuSkiZP1vtJ65SFJoh8JfBqN805gNZQlgQukCvxEaShm0lwtcJkuICCBXCTi7gaW4xUAvgBi9BUIU42CwYniJS0G5TXqN+xEw/QrAB5zQ01pnbF0OK8IoCsH4JTnceJH5J6+hNg3PHfhEHBP1EnX6DMWL0bj2vEVRkTcSINzCoK8B62iMdqTVPc5uObASZ07b67NmHGNnFU+XU75XW4kMELGNA3o7FO3hE+U95QVR0Mivp630vjPPgaJT5WX+JFE98CXAQfo5DJEdyBXognFE0qhRoQm8Am4089I44de8PUs3rdCEIgIP3RhzUuoc6+WTZBQQLl+K1H10F7xAGJ7csR7fQnUB/ycX1VGXJ/AKLJvhylgNgAOtvMxz3RiBxaXCUpPO7LOA6MQg5H9w5E/KOwUEY9+N2T4CJs27RrJ2JEesfW6UKbOvse2CAkOHPRBH1GisKsAXk39iaW7M0J9wDfckQ6GNuKHYHb4+rmYPp79AfVEv0LP+HooQU77MJvhO5lMtLycPMlcZQbfcUXGjgRbudI+kCgY6lxfAVa4LOipysUAZRAYGIMFhQtDhbN3tuBeOCHb5IGyV2KLvHiMYivMtVEjhvu+w3y4YdLkqT6nuOHsWWuur/MFJv3KBlhp/8E2asw4N2gmzZgug3eQr8wdMniIPJnJNnKYyeCeZ4sXL7I777zNFi5cYGX9iqXgBkmQT7LJkyf4V5s+9clPW05WgW3auN2qK6tt0CC+yDbSSuQtMx+ZvX1bWlqt7kydMymbqBOh48jPZ3HHCCsuLpUwCMIGvqataSvqzxXb7X2YrefFJgCj2YUL19xIPKTTu8HnnTkMLxFZgvHTsQaUuj8RbR2snGbYHQjtB89K4ekf01bIHUGKgYGhGbz3ZCyA839fGEKqS0v7rwavCApJfOc/xbPIQorX4c6hzvz2W4l7KH/S9oASubEp2qEcWCTGbgTFJcWuJDCwWfwEvT2qQzkqiOi2Dwnr7BEI0Y8pG0S1orH1oYPKxbBmGgh4EWXDEfF6Uzmh5RF6r0aICKEM/IGAobgQ0QsfAiCi78pS91hPQNTSI9S650YCPOgSlS6SpASVJZfkBc0gh5MkFPOhg08ZElIIfbZJjzX2ddO64ORDno6fhBsyroOPnPCe+bZ0DDNzjSANQ+wZUoy5VihZw5QD6ke/xHkt4AMcShdkqQ6VwMc7+HhU2OkJ4yL066ulNCPQH+CPMEwfeMJHfcQ/1CliCf+7s0A/SLQz814ZSYG3mLaVKQ+GHVcKCgv8OXl43sqXIV+my/kULPGgs6GygdcAdiqIOpTcMUTpbn0J1M3B8w3yErxCv9YzUBFSTKXztlS/L8gL+xV7BBx+90TBYUCuxullyE4yZvFaTm6e77RA1I+5yMVFxcqLBaV6T5mRP/0n4IMx36ueSeOGtj/DLQv3/IL83cjrW8LQz4WS0x6gzakffT060t72wokpVrQpQHpwTbzmvMAzlzcdIYKP7cBzdA9ylumLRYVFVloSnDGnifKH93gP2eXT3URTniVYzSFZxgA8j22afL/PIJFnLIe+2tsW+iOcXS4k2slR0cEAUbdeZX41XyemdRk9wShnnolnocQ52cFQLC4ts/4DBygVbdEejEnpEwI7fFDIHZ2egEko0x3CK1DlSwGmGdF/qW/YyUmIOAGomH4Jfx8ojLd04Gw4myeSOnDhBzIn6Fl4Ab7Jy8m1Ytlwudm51ik64pwS0fYMVS58yTccoAOylSGFnFw29Qjy9mpCb2/+IBD1MDbwvGBedlagceMnm/0LaVAOhSECcYmH58IVaomxWluaxSAtvhsC3MCKWubybXv3XREQ4yTd54KWl+fa2PFjVSgM3Gn1Msb9IyLtIV/2a2c7pBzfh5NV2qk2YGB/3zKKsmFvhrQLC4qs9tQZO336jNBqUz4y7MWg7PXIXKyKXRXCodbzpKURoj6Urkb14UKYVtTBGfNZBlRD1WNbL+ZzXTGAdhyJn8kAqhwuyIS4C5mYUr89Aim6qwe6svD0IJ5I4tMEuCs6pWVlupMBINTZ/5Z5ThKdvlAFEeLeoQ7ySUvMfeJdz8OP+Lf3zvnHuZC460S/cIp/NSQUHwuG+NgCwot5wXRUOjULdmBJJ0uCLtCHj7S4YAY3HWDmkQlVF2PTt2Jyg0IedMLIbhU/QyPSowgQCsxT869fJerG+zBSoXgV3roawPQG5xWEtc7gHObJ8tW9IJypK8IavmEHlrBQTeKJ/qw6UA+cvKLiAvUHdnJRtf1+MMZC3UKtoRGAoYbBEsoI87NJ6yTWc5wPhtX5fTWAiCVMgbKHHqDR1iJaCSGUAOwRt6VyoI68o5Rdamf2vmWuMfIgkUJ8kqOj90M87FQQIpRhBIl+Bj/RBtCEvgdvIXNCJBzgvp735PrhQ4bo4YahcHSHG6UmnOF76ovcxVCgrYnC4cz1GN2qEwua0jNljImoOJsYGVSHKYds90d60tE/UZRt0gtOK3VfeAsjXa85RCr41wkT130JMUoJv+OIutMMfshSFcgCSfD0dR0ycDyqmAD0BHVx/pZepD/413QF6MkIwUnVe6IX7cwzjFlkER8LoxOwiwdOFzQEJx9dTIJAV9qB8nDi1RaOrz9U3pFSfQM5OUTZhVqinwO0sRvNOsOfjKhSb+qfk4PhpzaWHocujCgiU1hUTjqMdNrVF1iKv/F1eY+8yTPIm7B7EY4X9KIcRsxCFJznvOSoOPg9vR/xi785XymIfB5thrDNJXJSOKhcys4VDyBTuNXWSpuGd6l3Zm6+r/ehGnzjIzNT8iIjW6wmiiofn3KiZ2yDjA1JszI91gNI9DnJK/YZR0awFSf0h1/YUhWnh3euGghX1Az4AHwFMiy2TrQPJNIZ+Uo/j9DeHqa6OlBhdQx4gnvIT/Q3dGaaoret/vtIqgQMeonggO/zrWfQhD5Kfwl9k7KurjwFkqr7ASCk2eEBotGJ4m4LbFHkDe2CMyhyCME/nkOTNgkZ7lNxiELlmWT/9ooVnpb9FJk7jPcbhJ7Ko130jLmvCC46HwxOfhDOiSZcKJtGCHNkiR6pUxIhURnsWUmU2vNM4EwD8bWl9Rs22LPPPmv/+I//YN/8xjdt1/btjjPztPn0bBD6GO6U1QsIxiAwULh9D3SyCwG3kx+50QwhAM7+UGdX1jqrt9FePl9QQF1Y6OSVoSdCyKQDpsbIcqYVnYkyoAx8CF0AbQLojNTAqfJ8EKzsVBGec2rrkLALKR3iuQcokxR+7kNQdixac3rQ0RN1gy8R9PAB/T3R53vIBw/GERro5FFbjFO9R2SSHoLSh5bwqNNC7yD8MTq9YOWFUGE4Gf7AMIH/yQ/l4XSlyl7Khw/02cAnAfcoCEPEMrQuPB2mDtG8OJQsiiYCTYQgKC/PRmn57C1tDbu5U0pdE9oE3vRFuSJ0UHrB2CI/2gF+YUqN96/YCFcTJD8CLuFnwClEpGizdtXV5Q1aAuahQoIwp5ChyyDQSesvwS/qQ63NwdDiYyVEfFHMJAhKB8WCwRL4LrwY8u3oklxjcY9Tuu+B4h2VCL1F9wCLmzwhtAB3XYM/tMEpReG1Y1BFBab68jzIb5yIkGUPjzCXMHEPWhHJ9r6EYZFITJ9htC2KVt11ecuHKcCXZM7HgvPQ/VcD8s/bRRnjFPEPpxnjyfWZKuJ4goOee8RbwDvUh3rznP7j/UX3qQ/XbBcKkIZy4H+IgoPHu3xVkbIA3osGdg9OCeA6+Tc8hsENH4YRs4BTXwJVhhXABRnGmQOIbQGEKQ4hLaTJykoP89Nb5ZSJX9ihCVwZMSAd1YBf9DO0MxcCr7PqBWBgQX8fUXP6SJbLQou0j8A7GOW0EwBdPB+9S75cx2d9BfR5x9lRYcSBaQqhftykjpzZqpCioYf8VOEZDGF2aKLNOttbwy5heq+tXTJSuPo0XF4nB4rQY912mnkQA7qTv25QNxxiH4lWPqTFIQ7lf/gAjjQf59BL1W+QCeKBVNULvKkCzz2JgDMpccLoG00NbHsZATmsF3QwYuiyhl+iQbCBSKI/Iip9KW4kEfRYsEXDOzj94icv6eoBNflgEMLtzNj3y+B9+HCGoLb2tDMIHwZxrhLTIERi50HAQATuI4R5Hy+XedEY0CwQGT58hKd3o80FiF7kSBCQTsN7QZBL+KrftXWIiT1t2AUCg5znnlb4kFeLjPz8/DzfPgllCnooCYa8mbPMilrmZj/9zNO2ZfNmN9xRAjQieXldxeRUnWB8onpiZpiaBhab9GXbvU9e3I6PepMIB+9cgdHYMseRBclEItqIekQmY0oDj53AnD0dhCZtMBi8XXWLTh0NLJJTFi93tPKFKPUmXSNgEHKkhb4scuhOpI3ZexHvgeSnF07x64LzHYdoEr1paJSoltefc1MTThodUb/1HIUQeI8obPCEifLztTqEo9NE9PP51/oXhLno4Aon1MM/2pQoAOUcDXieyp4LBV8tgCYCcMY5pYL+LxDAzzSx85MO6MgBTagAbUykgK8fAm6Q8K6eeZUT70IXFtN65M/zDIZHUKChHZzPREv6KLLA5QN5XQ1w/EP/AGiyaBAAKIZY1xCBTagG1Y+oLv0D4H1eYY9XtAe8grxjmNONA95XWvoGO1n4tdKHvhLWFkAncoJmV2JKwPsB/TxGU1VJEHUawL/tkonUO/AKyjA48LC9Kzvh6yCcQz1jXb0LujxwuaAkRLgxoMgn7FIRnJXwjnhDB5FQ/XIyY3zwyOW65AsjimHdg5fYp+B4eMa0SwIf7gnAl7riLIIYDrUfopVHqhNpko/Yf8Dd+VuAAcBBYKKJbx+ojcmDPCEd6XmXfgEvxN89PKZzvAZC/iENtIa+vU/7Blpbg970YBp1E6KMyIAHsgHewZmg3IBLMLZwkKi79wPnZ/UFp5mqC5uRp+4hg5EprkcS9eVMlJK8kstl2oVPs+Fft8oWjXrkO++o4Nge0DzS/UoAfIyxHNpAukP4Ujb4eeUQHAKngepBM3Pf5/jrsaodnqdIT3UmRvZkTLqjqrx9mpqA17xdyVL5eMfzC4HOyfxFf6WPXE0ANUcvgaIwF16SIQlnCUK0iPddNujgTFKuUUvQE13sBPM+gIxgxC+M5DijAZzjAakpFEIL+EaA84QO5Fqr+IZk/n4vYlcFAldcBFwoCPgAwap3VtmGDRts85bNvvUXXi0LGp0OKXQqnfFaxUR8KCQ1Q95GGhFCdVIRsKWpwYoK8m38+LE2gkWJuXnWSPRbHn5aN4qazqo/Ik5GRq6YGCUohkzVM9pABYVFFeqcaohU5d3czDQBom18bKfZPyN8tqHWhg7v7x8m6e5GsIWqDh821ObOnW033nSjznN8qzAO9veEvWk35tF523pZ3u5+Bry5/A8VTdzsY/Ds3ydrbhMVCsoZSAhhCKMO1ynh13yq1reX8rmh+ofyZCjfyeY5dFuL0p2oqbHDcnzYHoxoPkwKU7ar7ejIbgzwDrTQiTLd6FB5LOY5fvyY73tdKfodPHTYao6eknNCmSH9eyAS8cJP/3UAnsLZGzAB1Afe5SMsfGjklGhClDUIfgRmQImoPjvQ8MW2yqpK/7hPMICgXsgSQ8CnjAgwTCIdnDmUCtqwPeCRQ4fET5W+JdCxYyd8n+/kyOlVAfD0w3+4cjhbf9a/CHhW9eY+RoDzUQLRMN0jzNFGuaDM2Et8776DTstmOSy8w33qh1IN7wVFSAeC/kwB47PCfAXtEJ/krq4O08ISzpAbWFeLNqof/C7/2bokc04cO+rT2xpaGMXQc1WDoCwKUch6PRvPNokGB2zfvr126vhRd9LVumHHaScz/Q3HPk19IXzkwgmcguHCx42aw4dSxCP0O6a1MdWNnT6Ypwzp6HDkpZf406cArc+nN85h4OfEDckL+IM240uYbG2FfPRoLzwiUKt5er68y9qbamTAgQN2RnXBKKZ9QyQv9CEAU5Zrp5HXLeTRqfS8D38cOlytvlPp2wSK3KFLI4f0DvwSHcC+BJcTOoe2g0D8kJxVHSgPIwDnmw/z0LePSk7Qb3iLpCh1NwQTOPIeC/P50MYx9bF9+w/41/POyrmEHsFQC3XnHK5xSnF6Ql5Me0SGsI0lB3nFdR8982HjIYajXD3qU4B3VXU/cNIJxqS7URim3FAmX8dEf/JBEb4ASL/hvhuBSgMtQAt5yhdEDxysVDtTn1OejoM6+JaA2AiJfOFR6IJB72fJFb7QCZ/AGy6rE3rLdZVeiG3FbyD+7nOA0Dqc+io38id2Sr1/AVS4qe1qa2t9RJn+xbQz9AYbDvQ4RrJ56utO+5d66yVPvR3V/qosT3tkCuB9lvsc3FN5TPf0z/ofPOQHX+wlgEEXuVrg5FabMXXXERW+TbL5kK0HD+6XLjgWHNdYLx3UEQeWaZiMCEEX6nf6dJ3Vnm6QzEzYFCSOkGgDz8BtMWyTDv/8PfxRxddtj1Tbkcpq6XOCwsih5Aw+fLj4PtvyvtKI/Il4r73+mj3yyCO2fv0G3yaPje2nTp1uEyZMskxppTYZuHv37LaVa7fakZpaGzVkoI0fOtByRciKg1W2etNWOyBD+Hd+5ws2aeJYy0nrsr27ttozL71uKbmltuD6RTaAPT5bGy03N81OnThir772qgieakOGTLVRYydZTgFDjmmW1tli1Qd224tvrLCas502aeYCG1icZycq99uqlWvVKWvtjjvvsSkzRlhT+ynbvfeg8lphY8dNsTGjRqqhOm2fcN27p8L46h3DLzsrKmzLu9vsppsX++dxc/PzVFZY2EBrw8Tq9oGh4H7vAX3YgDCP8kOgIGCZczxxkmibGB4JwLzPMESNgeOROISLXq0/fdoO7ttvO7dvt11791jJwAGWlZ9vGQgE0vO2pCF7eB44eMA2bdpou1RnPq+fnZtjBcwrFh3Y1oo5ZWl0fuXLamm20cGxpiMgeDFI31m1WnTdZ9t37LKK3XvUTqfducnxjzGAYYBeKtEpqGMCsEoukX6XtM82gohb0ET/iBKdEk58NnvHzh0ehRk0cJCPqiCEEeqsGmcu/7ZtW23tmtU+yoFS7VdWLl4TPZirLpRpGq8Twl/18P2XOcTbPKyTIti8eYutWPG2HI9DVrFHxpgMNzbYZ7/YDEZEwBNk+wDA/VL32UZ5U1+mxhCZPC4neeu2bfbuu1t9utAA0STUi8iqFCtREhkXDFHWynhimtbZ+gbjw0JvvfWW/y4oLLR88adedKUW9r8NkRaUI0YsfLRt+w7bvGmTbVd5lBlHtcrKynyOquPrfy4NUGqAG0i6TuYB+sXl7LONMQFtmpsarUZG1DurVtlJOWYZuQW+yJW525npcj7FH8iL03q2fdduW7tuvX+GvlGGRgoLIvOLlGeaZdHGzivBUcFAY1485SDqW/S7Ytcu/+jOVvHbrl0VblBlZGRJ9vYT3dK9fXAIMWw8qncZtAGS6wmcs8/24CE+5xegnUlJGX4g1LgpaG7kk9k7nD/2qn/vVt9mBDMvv8DyC9RmSs+WqozmHJNhwbTAVZIFrMFpVhuwtoeoJE6aD3FTlg43KvUfZcvIJHOVmfqFvHvjjSW2ees2275zl/NIk/oqO0QFwynMbScyTJ+Oo09A4nRBSPSCHvC0+nP+PtuAG3iUg0OtF2k7+AnextA7eeKkfzCJr8fSZvVyGFlQT5Q+GuXwPnTiC747dmz36YrQcJP4/4DqRH8qL+8vOsb5ukLHhXIwRqEL25CelsyClm+teMu/qLhnzx43Khl5LSoqdlxZ+E79aAuMPZzj0O+ozaVD5JcL7bMdP46CvG+X/g97FodyKA8ncc/uvbZ69Vr/yiPylW11i4ulpJ2GLeJlghaSOcdP2IYNW2z7VrXvoQN2WoYoH21jikmYcoPrIoNVNIijJh4sUj3hTeT+FvHZ2nXr/JPv8CX9HJogS+AT6MKZd5yeOmgTp9ElEiZQFR59/322IQp9hnIwoJ0fhT/ttnPnTlslWm5X/6k5ekK6O9dKitRnusPWj0Swu1SfNgzQ6sP+xdBtu/ZaV3q29S8ttgyZ2L6rieQJH5tDnkj1Oq90iifRPSKIy2C+BLxOsgj+2iN6EAwBFz6SFLfrjADuEf94vly42D7btBfAlMq21hbnH9bqHTiw39auXee4NohH+HZJdm6+23GeXlVCzvpME74cLl6D/m+v3mjVx05LX+RZUWHoM+fiHuyJbvEYdhk8SoBgmfrNdtFmt+ReVfVRyd023/0ui+mkyLk+hMvZZ/vixjbMxybsIuB2CZBly5bachkUp06dsXvvvc+uv/4mXzRVX3fGnn/uKXv++eedSAeP1NgZeTH1J4/bERnYy99Zp2ONG2ksvBgzerjtr9huTz72c1ulTtjUqU4iBhs+qNwmjxtljWdP2Xe++w179dXX5KGctYZmsZnwKB9YJoEkY7uj2Y4e2mtvrlxvRxu67GxLt23fuMbWv73Mzpyqs9tvu9euW7jQGlpP2pK3XrGnn31ZBuEhGRFdVnnkoK2XYbV27Rr/4l1JcZFHwzdu3GSHjhy2BvbDFfOgXAoKS8U0CcGog6EfPlkb6ELDvZdivzao85LfBxvbzA1kDpi8ef7xjv43qqOvfmeVPfHLx+2hBx+0p55/zq69+SYrHTTABYMLcgwh4bxj67u2fNly7zjdqstuCfOTtadUXp4NGCTDS5CRzscvpFTV7hhfeJ2NZ+t8r2EWlvIBoD/93/9bdH3OlvCxFxn4CIHFi29R+2YFejm2vYcj2nMmwaXT76LGtv4xT51y+UWEYZMM58ce+6V989vfljJZ5fups5MNRiDGIHUi3yWvv2GP/PQn9vTTT6leL8sYksF8pNKGq08UFLErTRDgtA9Gts9J7qmgjHopwhVvv20//vFD9r3vf99eVX4rZbgxXDxs+HAbN2Gc3kskB70+gMsxtn2hl65Zj7BPQvnnv3jU8Xz+hRck6Lpt5sxZ6gOF7lwh3YPRnOFKlnUPy2RgP/TwQ/biiy+q5bpVp2E2bOgwX6AcjCG9pvec9qIH7YIRu2nTFvvqV79q3/72d+yVV1/xL4BiNMyYMcOnkAU0Q/qkpvxA8HYQ8A7XyTxwucY2Zz41//ILz9sPvvtN++a3vm2t3Wk2fqrwG9HfslB6Xcw7TbVjMsZffPV1e/zp57yf8LXNZUtes607d1thv0EyUga7UuyWoUykEzqxXRxKGIeO0RRGAh/52SP23e98x56TnFy6dJmM2l2+vmTixEnufNCeLDh3PlN+vVhfGiTXEzj/ozYY26ToYV9PJeBCdGLE6rXXXrMHf/ygPfzww/aU+sSrr74q2b/TcmUYDRKv8RVKPuZxVLR+RGm+8c1v2JNP/sqWqD7Pi0cwuNkrecSI4V4HgJ2pGFFBfjByGEYPU6xSDtwzKuMf/+nLtkQy6XXJku3bt7mRfttttwonjJgz4ptG4+uRGLfJdOnB/wKQ6AU94Gn15/0+ahOMVVIl5oD6Gp5mN7AfeeSn9i3Jkeeee9Z10tI333T+HTt2jBWXlLhMBjFGPzDSvvGNb9i/fP0bciIkC1a+42VNmzbdd+RiBINpF8hkHBYiusgYyodGL6pf0j9/+fgTTnscXIw+2pDyfFqLZLKPvgkH8Pf5zEL9g+hxIYj8ciFjmydNjTJaZcTk5cn51A3WtCAjDh08ZD/96SP2h3/4R/bG60vEM697oOGEjOpZs2aLV3LkXGTKwGxUe27171esX7dJRmK7L2TD2Xz77RXi/YEyhPhUfxj5Dh/OYlpIGFnEaEQOLV261H70ox/Zjx/8sfedVySnkeHsP92/vxwYnxeecBoFnOO8+fP7xAfBpRjbyDBkire5gLVrp2tPC6dX7Dvq2w/9+Mdy3NfY8rdWyt7o8N3SBg8eqJSSkXK4Tje02aY179iD3/uG/d3f/Z1t33PABg4fa1MnjhV/C3+h0C2bTGantylyhXVE/oEkdtUQXXD2vva1rztNXlK5y1eskJG/2kaPHu1tyBTaZAD3iH88Xy58kLHtgQEh6wa3eDo7i3UdLfaC7JDvfPub9sMfPejB2pdfecVHe4tLS21A/4GSdeJ9Vctlp2Qt8laK3Nas3WDf+cHDdqjylE/3HTFigONNn3P8aVPxYbd4Uy6PmxJHZLv94tFHvaxnnnveXnvjTR+FLO3XX3beBMsXjxAU6ku4Asa2vNTWZv8MM/tg3njjTfbZz33e5s1f4FsY+T7GYuqCvGwx1lCbNfdaW3zLHXbjggU2Z8Z0/+zq0JFj7ZrZc+2BT9xv10yfYqNGDLPC/GwbPmyILb7jHrv1znuE7EQbNqi/lUjpZGWm+37a11670G68+R6bOec6GyUjfOjIQTK2Jay7Wu3o4X32+lurbdLcm2zijHk2ZcwImz11gi26cZFNnz7DSsoKLTUrxTJzMqz/wKF2y61320I5B1MmT7KJ48fa/Llz7OZFN9rUqZNtuJTD5MmT7bbb77AF1y20WcJ16LChlp0tj1kkQEC6YBQtUlNDh7wcY/GSAE5SftHYzpaxzd6jGNs8CU9Jpiu/AU66Izwy5TFLKllDXb2dPH7cTtadtjs+fp/1k7GdLY8uUwI5XenaZGg+8ctferSEL0jeetvtatdyMfcaOyzFXNKvn+87rpw9wkYn8m2wVAzeJx7kPjHw4cNHxAvz7dOf+ZzdLprdedfddsstt4Vt4IJt954jIB3PunMZ9LuUyDa4OqLhv4QBc0Mz5N1WewQXY+PaBdf5KmYMbRQWUewD+/eLb8WHi2+2efPmuZB+Z/Ua69d/gJWz3Z+Ujy9coQxwxxWXYvCotu4xZLhn9243mj796c/Y/R//hHjtNrtDNJk2fbpH+pnHmKGODnp9AZdjbHOQHuVExJFI3MlTtVYnh2S0jF7oiRGDHHKS6g881tDYYN+W8sCZIpL9sY/dZ/fcSz+dIOESFGToDxK0lCe6+FllNTY22VtSAIMHD7X77vuY/cZv/Ibddeedduutt9qEiROtILHOAlyI4nq5lwDO+wLa+3wj+vIj2zhPqZaTKfzbmjyqOmTsZB8lGyKnPrVTxhBTSNpb7VdPPmFbK/ba3OsX+yeCZ0jOFGSl2c79h23d1gq7duEi9TPJJdHC6cEhueh7vMofIeq378A+2ykF/hu/+Rv22c98RnS53/kEGce2ktKwkjMJo4kDXB3TS4fkegLJxvbAwZKdMlixR0hFVM5HPfQDQ6ehvsFlD6OJg8XLHxcf337HHb5N6x7lAb8wSsN3CpgK9OrLL1ntyZO+h/bHP/EJmzFrllXV1PiXEYlqjxw1ygqLi7ws5u+6Qakf9Hoi12dP19p+9b2a6ipbdPNiu+Pue+y++z/u9L1ePDl4yCCnIwtr/QNjIiRt3NeR7WCQ8SjkBl18sZvK5suGRLQZybj//vvtY8Jt+PAR/v769eskO/v7XtkYexiHRC9Jz6L/j4nvP/XpT0se3O9ydpzohhGEIQ+905W/79Gt9+KHtKAHcm7goMH2W7/1W3b33Xf7cfvtt9vkKVM8AONf4oOekm3u7ArtMJVLNQhVuGSI/HIhY5tPq+MIsHUjOh6jBt4mUrly5SrhesA+/1tfsDvuuFP8Ncrqz9bbtq3b3EDlC5AE4Yhiv/LKS3bwwCF74IFP26233On7rfeXvHpNfFYgenBdWFCgtuVT2yyEE+gPdaO7MzWC0fTBogm0/LiOT4g32d9/8uQpPZFt6kKfDqMRRD2JroeF3uf3i/eDSzG2KQs+5BlOIe25d1+I7E+cOEF8cp9k6vXSO8fVH47JaU+xmdMmy27JsW7JzJbONEuT/ZIvlY2BWNfcaVNnL7D5s6ZbOpNH1Cfbu/lWCfrG3BgNug1Z3mUnpLOgB9Nv77jzrgSPfdxtlxtuvNH1+flGJbhH/C+NEu+FD45sg7Yw1jkDuafrQ+KTY0f5auwo5+Eb1V5Mq9m6fbuP+CKjCXSCT0tzkwztDtko3VZ74pj9/Be/lPO92nLyB9iMGTNt9KiBzgvKVkAASW+lYGQj2xntb7b9Km/Tls3SUffZpz8ru0R25Q033mw3LmKmwhA37HmtL6HvjW08B52JZPHlq4GDh9jYcePVOUNki3eYc4Ugx9McMWKsOttYG6OOO2jAICsoKLKS8gE2Sh1w0qTxUixlMmDy1cGIpA6wkWPG2YiRo/XuAOsn4vOlIMokgjJq1BgbMXqiDR42wsr0Xm4BBpSMS/l9x48csJeXvm1DJ8yyOQtvkaE93sYNG2hDpVTAK00dNyMr3fJkKAwcPNwmTpomYTLaPc1hQwbrergNUflFMu4h1lB1qvEyBAbJQOiveuTmMjk/wai6oKG8jbs7vTNSRjAY+wjgJpV2TmRbjgFb3iQD2x9h9nokklckXEQUKf9sZ3IMyMM11Xb7/fdaP3nUubqfqbQsGty0Yb29JK+PyMOdMn4mT51ipWX9bOmyZbZfQr5EHuc1clRYWAkuTkcIgGGiizNSrm+vXOmjAOPGT3QlOWHSZBszdpwbs7JTA70ucARk41l3+tjY9kWz4E1bSSEzbAsN90mBYSjgRCy6aZGEBIoN4aB2bG/zCCSb5E+TEhg/fpyep9vS5W+JFybrmCTFWSbhFZSwTx+hWCnJWB60QPEyHWDBtdfZjJmzvH8MHznK8gtyvVl9brDy6CtuuSxjW/TAqMJ4YKcZotVM+TkqReAOyLULZCzkBuWvdERmT5w4aS++9LJHInCCb73tNhd6o0aNsHylpb/HHTYwWHvKFrS0NLuB99TTz6gP5dmcuXO9zcZBEzm1DHOCN4qbt9w4jS9fBPrO2A6mFW1dxJZlbQ22cvVaKxky1sbPuNZGDu5n2akyiKT8DstIJkLT2J5it9z7GzZ54igrkyFRkN5luw8dtXc275LTMs6GDChXXwvD1kwdgQ7wC1HMvXv3eJSSEbTrr79ePDJTsnCyjR49xsr6EbAgSiacEl26pSVMzXESXQYk1xNINraJSrMdGTxIGRh8HNCfMwbwsePHPLpNdJI2Gz9+vA/3Mw2Cuce03fU33OBfZ92xbauNGjnCFfxM1Wes+g67YzClrEn99JprZjhvwiXUg6Zj8awvxBZ9TonHNm3coGOTnNJrbJ76zjS9M27sWDdWkbEYMji60Ia+6vIInZOo5geRJ3BKL3ha/Tnf2OZMtBDakS/GGlFjRiRYk1Irx3TqtGl24w032rRpU+VADvL0b775puusseI1PtyDIQGtGd2lPefKcV943ULpmVE2ZOgw3woXRwG1ASLYQ+6880vEwWBeLjnMFIQ8GaHXuiyZ6W2AwVdQUBhSC0eMDa5xasCFNuxrY1tZC9eQZ7scTvQOfM0IDVNl+BLxLbfcapPFx0OHDvf22rLlXZ9HfNNNN/iHro4cPmTLli+1Q4eO2G888CmbOGGs2wPI0jdef82j0qPllJX3L/MyKcvVQuKa6TxMxYHW7Ok/e/ZsGevTXFbjyAenn+lXGHrgeu4BBH4J1xeDSzG2Md6ZS06eGJyMNNBnmAqGsT1NvDJcDtnR4yet9owc1OJCW7hgrmXk5MqITrUWFVEoR71Mtswe9ZVTje02eda1Nnf6JEvvZu622jY1yzqdP3Sg0lwQqK072kTLQ7Zc+okpksjkOXPnOX+OEp8FI/i9wQt+xlvnPbpk+GBjm1wDHzpnSoe0q+2KCvNtguTCFLUXNCkoLPKphbQd+aCL0DvYVHRz5rBv3rjWtm7dabv3H7P+g8d7m48cKf2mIigl8LqI0i3LW4Y2x0HJ6JWr3rGKPXvs2oXX2+y519qEiSpzxBjrJ/smKyvF1+YkWKvP4HKM7UsuG+WIsITJCMc7SXXDWRMKiBLsF1lUXCrmKrZSCZayfkWWJ4M5NStP50IrK2WeZ7bOxVLC2T5No7BUCkrPCpWuvKQwfCxAzCsVoE6Ua1k5hT5MVz4gT0TL9CgRQqC+vsknvjc0NNvRYydFzBx1XBnxpeq06lwdXS1CqtW3nMnLK7FBA4fJkCwRToXWX8YTBpQbGFK2KEOEG183Y7Enw1pZfH9ZQP3gcw5q6/9U7zg/6eqAkEnQ3M8QRDilSxHiDJWXlTuOGHju1XsiUUOCg+E4hCHzN/maJIKKyABOEsNjzOFubGny9z3iqPd62lgCsqryiM/n3Lhxow+RohwwcHzrL9kLnlbAOV6fC7rrDzhfOMWvCyiCoDiRTmy5lC0h3t/bFCOT+sQ5mRSNkYhimTJlio2Vgi8pKXbDAkONUQ4MIeZIohylz3yIF7o4JIQLQ6LMu9skeixfvsxelXG6XZ47hh9AamETkl8tQJiJF+ADphFgLKDkGDFxeglJIv0ANGxuarY9e3bbz3/+M4/Y3XDD9TK+Zvl80vYOFoCJ/5Uu9AVe0n8IBNF1g6gnc03hE5w4piXAL0R+iFC6kOYdXrmKQPlE+vMkqwaVl7ihDEpdqZIJ4mW++EbrVVUethMyQlmAnVtY4guXqMAwObJ8qr5dvL9Wjs/Z+nrdhvdCtCVGejgzj5/pSfv373MeWb58uZyCSqcFstVpJ0DOcOWOTB/TJ8oBsuWKKWUYCm6kqa7gwlx1jLypMipLJRf4BP/8BQts+rTpep7uRhY8A+Cgzpsz141NlM3oMWM92oihjFPs/KGCmMccFoWxuC/MgUZhnj5da7t27bI1q1c7j6xbu9YdahZ+MbqEARV5xHWNymVaATTqSyBv32EiIdPDcDjTgTrliOeofmM9MDFk+FAPODEFij5BlJo5qOCJLCE6t0N9n2knjOogHzfImcBghw+YOuN+RqJMb2P6pt4lDwIKrGugr6x8+217RXyya+dOGXztei9MWYAGPe0ITdXvyO9KLDT20RnlCZ4YnV6WCsXhQj7eKCertFT6XjITGYpRhGyhHnHnGHiKYAZb7m5T3Y4cOeEL1Vk0jf4nCuu7gIkwtLnzFvXSyxzMTYYePof9rbdsyZIlPs3oTN0Z120Y0jGt4yyE4/14vhLgX1ZV3VzXqGw+vDdm7BgbMoRpVqqXdPDECRP9a4djxoz2XdOoGE0OSjhOA/qXe2SX9VEQmt2v0LFEt8Qqwl+viP4EhZwoApyPo0eP2WbRY83qNa7PV61a5QGG8K2AwA9XAwj++bRW1QGeJgA0XjbG4OHB0WT0YqSc89mzZ9kkOSUEOXGgaTufLqTr6qojtle6g5GRsjJ0VJ5okCG+cBK5XKYPifD6L3phdKfK2D6039auW2N79u6x17FL5IywkD9DNimqCZpcLbpEuDRjW7VEECFA2dqLRRCuJBAeiRw4Z2WLaVJRpPJwojEqAmXkplsGc5EEeLS+MlcHizy6jHyyJIhSrLO1ScYLH4EQ8aWUM3MLlV+O5wGh/X1RrKW1S8p8n23YsFnCv0mMVi0hfcRqa2UkdimhDOycEjVSZlgNLTkGSj4spqZx6FRDEXkib/aBZBGoe6zC2z84oTSkjQ1FPjC6K1ApqKxc8Eog9SECJSLYXcDAgdyhZ1JBgS+a1Jm5hkQofQGlfpOS9mMnGQylAQMG+Mb7zBsk2sSQL4YVyo5hKurGe+TKgRCjY6A4oBFVRxn82Z/9mc8bQ0koK5cVAZMPgounuGwQPnweFsMB5QCfYTiyWw5DfdCM+ee+NR3PhQLtjUGOAUh66l2xu8KOyxlZeP31tuDaa91Y92Z2IoiOCeEKw0NbFtedOHHco4KbN222b337Wz5PGSHIbh+AkonXgvK5KqCC4W8MS4C29K3daHvxNXQCN3iK4X4+OrJ16zaPUs2fN1/pU90oOrD/gA+rs1MF6X2+nfqa75Dg9A79DacNIwRHBqP7e9/7nv3VX/6lvfTySz7qggJlKy/vU3JKyOtqQDD81J5qn/xMKXudiUimZWS7QYcw72ptsS71j6bGBjtztt7qW9p9LqUzRR5fvSv0tSZHqmo8musKQL3NH+s5zj79jmFODFvqzLztr3zlK/b44487TenHNA2oyK5yyM8nYhau+wpod2gd6Q0+yHAxsrc7ix8Z6WD6HAGVmIZpVMiGcWPH2ZjRo72P0d6zZs70NR5EuZk2pJzdyUQ34LSWy5igKLaLpe9hYNPXiOCybgKjwXcvaWm15559zv76r//amN/PQirahTniKt6BKD+GL9DX7AK+4BYNNpxyRsTyRA8cByKb0IeCWfeAbMWIw6hi+k9ebp7Tg/unTp10Q2r/gQP2Q8nFv/qrv7I3lrzhO1O43FEbI3sIfLB7hQtM3YQvWDRI38GhWbdunX3tq1+xf/qnf7LVa1b7NrvQDacg9Fl4VX1QfOsfXhLeAfu+A/qA/jvfUF+MYWjFV3QZJRwqXqFNeI4jQWQcehHhY742bUgAa5IMc+TuE088YS9LBrCWhoAE8/qvmX6Nf1XaQfkgUylUlw4Ymiw8JCDGgv4f/vCHfrz26mu+64Q7OsLNZTwEEVAu7QHgJHgf72OAV2JbUJbrWSGNY8SuVIwQIeemTWdE5AZLk8NBC1E92ZU60oNhqnvIzzYfZaXzh3s88iv98brwQ0D/qjtb56MLGNiP/fKXziOP/PSn3p/gXdrtagB6hD3RfUcVOQxiinAI/0bJTnZhWi3H4Jrp023e3Lm+RoWP+hgjJpKb7OLCdK0cyYg5s+dIBhWqz1CZdHfaI00Afqs36UqH3mdtADvjQJuHHn7YvvS3f+trk5iz7TZc0rtXC7yu7wHqFw9ATMSc5WwZ0ywy4wH/YAI+vyoaOxORHu8XhZWeJU9OebP1I5WFXxA2bsgqP4bT9JYzGcNvmIT5MmAZos6Q1oM4PIeqCBmxNtlbFkpJDH785Clrauuy629cZGPlLZ05UWOnxODhK3l0Or0nhQ7EVa9ZGcJa+cIUbGGEUESjdatuHpkTXhhgPdXWLRiXqtE5MpkjFzUg6a8EQEOdnLni9XkHieh0zHELxAdJYSlGx3BGUMGwtJHvB6w3OmRYNDSEPVG9cyOE9CwjO8ejnaVFxaJXhx2rrlE/ER2UjjdDebqmvqr7guuusz/50z+zH/zgR/Y3f/M3NmrUSF/Q85OHH7ItmzeKrl6FnuNcSNwFwZ5zH0GQSt7J0zLlOMFnokuHeAUl2CzHCqHrXyOTAeQLjHCchAL8UF1VaS+9+IL9/d9+yb71ja/7sGFpWbmliN98X1QRJEPvsv0kcyYDgxIpzrL/+l//mzr2L+zb3/m2R3uYi/jNb37DI3VskYfcycvLvLJCMDZUhKSyMKrdMXME2KIqbLuHomSPfPpiC5vJC3BA2UmBxUtEpIgivfbqK/agDIcvynD44z/+Yx/67DGSdXh/lhJm3mm6eIn5prfddrs9/JOH7V/+5V/szjvu8CFIFgO98uqrbswz5YxIqe9cA7NdBYhziAGWNDIHsqGuLuw+IvB5tMKP6Wj0n9raU1YjBefowjiia5toSf1P6xnKPkVGBwqHubshGhmmNC1efKto+GNfRPvv//1/cNo99dRT6kc/sH379qkv84W00ETNTWqrPgcaSn1fspQ+gaHQA8gQIUQQoVCGNUYucjBG7TAa9gpH1iQwhM+uKb4oUAaOKudOHHNt4SmmXIyS4z5zxgz5InlSk+J9tTW7lzQifyRHiGIRHZ2/YL79+V/+hb3w0gv2p3/2px4dX758qT3/7DO2b+9epQ0GE7oHHQAwvO98dwmQaNoAiXf83gXfl7RUO2JEBacplJcjfYQByTQs9A5GOPU9faZOzsQAu/W2W23EyJHuUBDh/exnP+uLS7/yz/+sPnCbDzF/XX2AjQVqZYhTPrs7hcWeWa77WE+So37INMv/8T/+0H76yCPusDOFBEP94YcetnfeWenbAWLUYniie2MTQg//gEof6yT6JTkiR3GS4BucdEaR+VgT21XS5txnNAL8kKW33nqLB3NwkAYOHGT33H2v/bf//t/dOPxbGUFf+co/O0/94R/9sU2/ZobLDhYSehu4fsVwZTpWmjvs//E//gf7+SM/ta/pvYUL5tnmDevsy//0Dx7gaebrjHqDgxEmcbHn4c6RiI28x2EMNUk+zgXaJRzh37mQ/DvYPTic0fnwBa5qF55Rx0d+9jP7/G99zl544VlLkxal37gCSc1w/eiTL0QnaMe7ALIoky/P8jVJpUW+4tWjO/xLt8gbd4ozfD44i2dfePFFe+CBB3wkkUWj6GC2R4QvQl16jw8DXA+wvkt16pBTKiHDXV+H8LNHH7W/+Ksv2suvvOpTC7Ej+Q6Bf8hKjMYi0z27d1ndmVpfR8caosbmBv+mCvock65d2YnlPNuw/ojRghRrkqN/ww032nfkqP/qyV/ZH6oPMerw6M9/bj/64Q/Ea6G9Pyw6vB+k3XP3PV/EgBwtgcGQ0HsQ8tbCCIWB6QAwFcwrlvT7OpTGecGT6m/SDTqs6OK3SMs1aXxYG+YRFdPJ2x/QQYKxG/Pjoie9/lEyi/1KS4ps4qTJNvfahTafuW1TJtrwQf0sB2ucN/UOSoG9uIPXmcBa52hM+g9yJW+Y3sunFP4FnOkK/p7/Bl/y8l+6GZ/0ASgbTFvyPlJVZYcrj1i2BH2cs91r9oYSEYBxBXsy1J86YTtlIG3evtXu/sTHraS8vzsJGShPcekvxfQoLIaFr7lmeqIjp1rFjp2+hVBzY7PdJAeGqSgZbiwE0QRFmKMMLoxgMARIdINdFIj6VQpftvlhcSqyLUGhQGeBU9RRjXf5nThfAlx8zraw7MK5ooPr2qPYLS4M2S6KfW77SWneetvinvqgDMCVrYrqz56xs+rop04es0MH9tmqtessu7DMSgaOklNGpw4An6QkjChKx1HBOMmX8TBgwEDffYR5aEzHwZjlHofs+1jrPgGMpg0bNkr5ZvjQ5UDmbCcydz7iQn+cb0RnHCy/Jfy5ZF7ou1u3WpkMBKYNsHqcubEdEm4slmUInDnPixbdLH64yWYzjUSC8fnnnvdRgBGqJ2WSq7OgCseBYZEYW78xRQWDCpnCsPuQIUN8DiTGBxGt4Xo/ON6O1iVDjD7S9lwn88BlzdkmHzcyJb1TWDB6wp547mUrHzza5rEYe0g/X7DD3FiGZ2uOHbcDB6tlbB+Vcz9GiqLB9h7YYy8vXWWb3q2wG8STN14714py6atOEBkfDe6MsSaGYWe2sCouLrXRo5mT3N/OnK7zyP8oyV7m/vIc1mKbTQC6Xi59kusJ9M7ZHuFTxXzOtvJ3WaznRKFESfGFfokmYcGkrt3S6jb2i968+V1fDHfNjJk2e84cGUBs/0cS2kCGu3NZCAC88NJLbpxev/B6GzVipNKI96QhkfGsxWGoGeePvoexyfaqDDGPkNPOmhlGzpiqBjrz589zGQee8SC/KPPC3wuDPwus0vMuf8D7aM1RH6HBoGbeaOQPN8o8oeQ+vKkz/Mx4KLqPT83Tfw4cPOS7DU2ffo33nbx8PurGtDVoGyLeA2SIszMEfWTDuvVeZ3h+uOoI31F/DFPqw5dqcezIGwOOkWNkBhFiZMhGyWWmWtCPyvqV+Ts+uilnBDb2dQGia9zB5nIg8ssFF0hi2Sh/yO1TSpz26JyEviYaJCqBT4Xk3dat77ojdR9rhSRXMEBxDKAJBvq+fQetsqrGpw/pJf+4XDZTKHQd5GqKnNQwZQadjEPIDlME4fg2x8DyMt9YoUy6f8OGTTK+Uq3/4FE2ZNjAYIDp/YT0p2IJ+gY+91uJcw8k+CM+gRT+DQ/dJ8q8UzqRiDxtxrTLSCuMZCHt/QS5Cv9AD5wmRiAY0cTx2C75euJYtXRshg0cNtLS4Q9lgU2BEd7e1GBvv7PGqk/U2YQp19gMFlFijasyal3LTA1TOf0lWFPlwZfICfRvcUmp6xtozQjR5s2bbfKkSdLdZR7MANvkA4jnXwc+cM42OdMI0C9BJ/8AotrylBzTYydq7Ux9k/Tqetuz94DqIOdy5Gg54jkIITu0b69k6yE56Jk2ZdJ4Oy258/wbyy2rmE05ZtjwEf3UJshG0U4HjiW8EfienYOy1UfyrbioxIYOGWbDho3wHWIOSJezO9q40eNlG8K3jlqfwWXN2YZIoXw4Twc/ko6gOOgMLBaEuLCKWl73YTbnAx2kcoDQfnCtZwleoW9yhCTkgTBj8Z0OESvmy2sh98Qf5eVGuadmQCFEt/vLYx47daZNlWfMwsjJI8qttEBeoZdNSuGaymdMg9AkTw7eD2jEuyCotAknQjVKfpLAKnEkcPG7XgYp+wagPjNgOFgYwehJ/B0FCGI//qOaCBP/OhND1xgOuhfEDfP6dEueY7owZxFzBx+YwJNWx0e4eZ5kSsqOLmuVkd3d1mn5EooF6sydreSpnHS0M+GSvOVJqvsIpzTLlnc6RMYMcxfvufsuG9S/zPbLMz15TEpMCjvSDTw4AuiOM0Lf08+RxeDuJCJAlBYFD28HWiH0iTyq/5PSI5U+/KdnDO8U5OXY9KkT7b6777Dbbr7RTp44bq8tedN27T9ijSIFZjxn2gV5Ag06daTw0SZoKqFSKMNy9qyZ9rnPfsYXhbAau2Lndh9m78uaRqC65Mv5fIi3wJWpDL5doSrL1AkcFhQhUbIotLhmmhBTjzAMSDd69CibN3eOzZo5w4f9rltwrQ2Swfb2ihV2YN9+pWf4T7TgoEDRo1u8xUGEm/KYB8+isjvuuN3uuutOn3Jz7Bgfg2lxfsRAiwb0hwsqk51GVE+o2ATuEtg5okMe2/3pMZ9VZlSjpP9Au+Wuu2zxTTeaNdXbkpdesFeXLLVXVq6xHXv3yfmX4TBFilLKNCwlDzyeLt6A35CdaWnsApIhpZDjSuaWxbf6Qsk8GVHvvrtZbdIgcrEAV+ykwjudh/uYLuIFd0rVaOySEhe89TCn2gsZ54tp1SZEk9l2jylFc+fOs7lz5lq/0nKvE8AHOtrELxjbfKmNfaWzs7Jt2uQpNn70GMkeObQqLkP0yJIczhA9GTrHUMRwZRF2F/hIgw4dPsxuuWWx3Xn7rda/rJ8vvmxtbnJnAP3hhqTKCUcvyhcDkbMnrb93AZK6oS2cAHgSfiRZt+7zEmeMKqKKhyurfQ99sGAnmVIZv77rkQwPjEqueZ/53Ox6dfttt9l1113rI2dHq6skqmWwq96MQCqZj5QxuouRx28Mb9+Pu39/3+3pM5/5rBt7/kEdOU6gBD0wtAOnObeJhOgmr0IfgfKFjVEeIprTCJmnDtHexjQN4UEwS23KWozKysO61666zpdTMdQNHGQJztqRw1W2UcbxXMmQ3/v3v+sLatnd5pvf/o7t2rNHRrPorcJQOSlpmaIHo2/gEKY5IZsInpTIyJ436xrJ6Nvt2nmzrbrmmB2uPikeRB7r0BtRZ8b2i/oy8TRx6DfE9nM4xQP+gNPY5Ste87cX4BV0l9pORIBfoAFlYViyzoEF4Z/69Kds5jVTZEDuszeXL7P91SesXuLG25jt7XTAQ5jVFJyK0yrUWrulmyUnUtPAs1H1brbmtnZrVR1bRRfok04EXDhkyVBlNxZ277nxxht8SuOe3RUe/IpYn39cWVBdnLyiEQ6k7AXWvxT2K7dps+faPR9/wO645z47Un3Uli59S318p6dvOttox+UAF8nZmyi9mZmtPmQdqmuHpcsWT83qEg2EPyaaSN/W3i3HBscXe1S0Ss8WOZj6x1das23sqNG26PqFdsPC+Vber9B279yi/tLyIdT/gyFImI/gqoN3Bu/cahSdaZioGGJHiczCXCWEP3OvOdziSWQQ7oeMmBfrURApM4wqoqF4wdzzoTDcRKVDuZKW6AVRJgwqBDfK1uc/S6B08D556xqIXj7Di3i6LJgBiEDHNB8+CCesPuovwZcq44cIBfPsiTwguBGQoO70SChWtEp+QaGNUCe94cab7L777/ctAA/KWK6REmlr8ZyDT5PUJgBDy8ooPND/LDkhk6dOdeMEpclcVujG56fjux82sLAzGhTUF5oQVYYe0IApRVzHSBv8wjAcq+uJxhFVw1Hp37/cFebRmhqf384ICe/7EL/qxvQc0nGP8jDYOROtY0HmokWLPNIdcfBpaDq8Da4GUCxth7JXixJRcwWt+9z2RXOiCdMGZs+abQ984hN22y236BlTss56BLb+bJ0NHDDAprEtm9o7Gm3B4Mr360gPnlFvfrN7BfuNs9MEtCQ9R4f4iedXAkL7B3zgf8rzKLHuMWoFL/Oc+8gEoszMoSQCzG4jTA/JyoJnEmRL4Nnc3OKjCSxiI7LGtwGI7kI/yOFl6H+c4+pOHmVQpu5xDbCQmUV2bHeKExb5I/JIpG1fQ6BLkAfJtKeP8yyukWFOKFumIuNi29E36DscQMSRfLjHiA7bXRItjvkn1yf5Nwd8Qh/ycnUm+kufow+FhZZB8vAOQJorBeQNTrEsgOuIL0A7MQ2KqQzICtov4k8aFuO//fbbvjc57fp7v/d79u9+93ds3Lix9uKLL/j0GBwJyEb69HT6Hzyhfqeb7PCEYYlYh09Tc3L9y9M3L77F1xUwegl6CbJ4m/UeYUQvYNq3AK7xoK6UR3sj39ii8RbJiU996lP+EbXDhw5727lfD+gdlzmcEv0wAuznPMSFH6EvUv9I+2QeJS2jVixgZ20B7YCMuSoA3lCC+ugIW8OmeNSXvsIUy//8n/6Tb8xQc/SorwPCvmA0cvuOHXbi5Clrbmm13brPyDB1adTB7mz791dKdoRifA2IfvjoCg3vzCHwa8la8R9TutjXftLESXL46hyPyCNXC4Jk+Aj+TQC84AZ3PBK/zwcYDcbxDwAQQZSR4KCbcio9YoRii68yKp2TnSGDMt+H/zGCmDPnC+bUKVi8xLss9CkpLvHFUMxN9E6t+3QaoqF8WAJhz0GH9oVuMtToTCgVhqm5dmFxNSBKXejBWQQAbzdwEgJNdx2yRQ8UmAs6HWkyzBHqGOhE7BcuXOjD3kwxoTOj0vLCGheXJUGmhAVhzEf1m14myjLDRo4eI0UpA0VnppqwYDDi8KGCimT+MAKb0mkbDCEqwGIs5rNzn7ow9YM5quGDNgnJJqCNWRhGRIddW6iPZ8xfnQKfBNqiDFwQqhyGYAH4hXsMiWNkYoRSHkfYieAq8QsjEh3BoSSiSI2YCoPhzQg68/wz1JbUD+cDh/K3v/A5+7P//cc+J5MIXqHqwsr6sWNHqo8R6QscRt14j6FWztQf2hAFpL7wHgYYU12Y38oUBKczbaV0PI959SV4JFuAYeCLqXRQHkPg3sebw+evMaCZ4sLHqq5beJ23HfWgqTigE/KDg2HU9RvWex3YxWSAHCumZLhRrbLidARo4g6azgxzkyd7aFPPkK7D683uSPAJ05AA+m/kxyvFK863OrxtVA/vyvAoD/mhY/u27f7ZdPoAu5NAQ3CP7csBruRBEAJ60P4YQwwxUy+ngdLEIXjSIW/Jh/fIizTkBS9AI4zYuJf0+wHvXAmAJzkigANtRN25zzQlFnNSB5wCphAhV8Cf+rCI8fXXX/ffLJYsKyuVbL3O/t//98/EK1PsreXLbOu7W5w/MmVoMwKbmSnnJSNRV6+XaMNc5hTdEy8RUWerYqL/vjaJ5vFUieRJQLt65n0I5El7uTOi31Gu03bI2dB/szy4MH7CeE8LzXTLcfU/ok2YDpVwsNQPw+grz+XE8GE96C465+fnqC9J3+sPZcT+EHmJMzIVYxuHNXl6x4cK0MHrpD4L3wg337VK93HYcUnYsnHWzFkeoOA+afbtY9/2lfbSSy/7ovGHf/JTe/qZZ9wI37lzu+/etHr1ajtdW6d6m3+Dhbn41J0yobmI7oa2XwugB1PzcH5YjxTXfFxNuEpa7iO4EDibil85+5F8nXSEhZoM0kpJ0fnYVUVnBzqsOiUHhgwM2cZwf3jqUSeGu6prqu3Y0WPKMBjPbCXEJ7qJYLFSnnIyEHqy1NmfkoWrLCh1JS2JgCJxo1zKAIGKYGUrsCtlJFwcVCZGNgYUnRtDTx2QBV8lJaWOF7TwecJKzRQIhCJ4+7vc5Fp1wwAh3ajEPuzZmcxHRagqe5IobZs6MDuQ+AI/JCR1lqfNQtIzZ88a+1Sz2wvzudmJpLCoICFcP2RQkbQTw9woRxQhdWYhJEYmH6th3jZGYLOeNTU0+Jw/olDMw8QAI8IUDQcWo2AcYgiRJ9HsZCBv+CPQOvAK/MB97rFFGI4ZfMPzqDQ+fKAtdKABwVe8wPzRNPEPc1NlA6ptw44czBtWBWQIiH4s/FFXe+rJJ+z1116V0ii3//s//UfLlS1AF0QZApz5GAcGE3XkN/XFwKYdiGYTuUEZxMglR4yU8l7Mqy8B3qZNIlBGmAea43OPWW+Ac7Zt21aPCDH3GifD2yw3yxqb2mRwnhbZ0j1axOIn9hAvlGzgoy/svYzRcOZMnT9jygFl0MLs/0s5sW4YKfAGRjl9EWMCmkCH6dOnO37gym9oAp+Q7krwC/mz/sHnCqu92CHFyxKe9Jm4SxPzpvkoC21IuxKxxOGONKWfgJ/LXaXhGbtpEIQgDXliCFDvyBukpZ8BvMtBXyMdeUCruB0pz3gHfMmD/ACn8RWgC+0FTwLkT7nUg3oh99evX+99msgqvAy+yAbwol6kQ7YQGGLRG+4LU5jYXnfRohuVf7bTGAZpbGyWIcXUUhmboj8L+tndg/7mfVWOr6UzPaXbqqtr/FsefKU0K8m2xJdMJkPvNJDkIwn85+XRLdLA20JOJ3qA+iIPo5zEqaXuGL8jR4V58E1NHWrnNh9FUuP5AW/TJ50uksftzFvT/6yCfJhJzkW7ZE5wdiSCPO94eN/RGX7gDH+w9S95Xg3oUH19/o/kSYacIBwO6A+9cKqhF/wBP43hOyzqS9CRHVt+//f/i/2XP/gDe+A3ftM/pHXrrbdJz/S3fuIpghmMmBQXFykvsYHowNoAnGJomKa8YRGceq5jG0MX6M/H6uDjqw1p99xzzxdRhAwR0llowPPhQvc+gj4G+jtSQrSurkx81EbKn2FZPhscIbQEfyVcEwKWxTbOgWK2I4cO2br1a23T1q127ycesFJ5/zA6i9/YdaK8rJ9/8bCxsUHGc76NE8MTwXrppZf8E6r3fOxjNnjIUDsuY3HV6jW2e89eX+VdKqZtldLZsH6dG2EwMvzCMCHbOMFDKEgiUlEQ9CVcfIEkfxJCU7gwVx/jt6Ghyd56+23bs3ef76Cw+JZb9JjIPFMB6u3QwQO24q3l1ikhkC/B3yEFyN62y1astHGTp9nM2XNtYHmB6t7m+0avFU0a6xtkXGXJ6Umzw3zmf8MGbweMWnanoKxjx0/alGnT/YM/ufl8MCa0Wl9RBeXKAkkEfM9HbXoyD3TgN0KcaST8iIYWUwhWr15rFbsqrL8MZwQZc0zxBTCIWBXPyAj7t2J8sWcs5VRU7LbnX3jeFt98s++9jJFEXVetXu2ryXE6aJOTp8Q777zjhjmCFQF74MABN75wyIgMct8VlPKAdy4VoDNAOVwn8wDK7dI/auNXcsik4DrbrOpYlT3z3EuqQ77NnLXARo8e6MYk8/k97trdaW3NHXb4YKV/unv9xlU2ZeoEu+vu+23ihGleDxWkvnvYFxExtI7iI3LJ7issDqWf+P7mUoZESMGTdmQUJTkixb1Il2S8LwXOT5+8QJJt/ZhXThpScdDm/kv3kCf1chSXLHnDnnvuOY84EbleJ4Nqx46d9rZ/NXC/72CDYc6HJJ5++klbu2atl3Xy5Cn/AAlb91FX2p+PRGFswkts+YYBNmgQe/o36vcmpxN7EBeIz6qrj4pPDjodkCXQKtIgnmNbnl/P94PkVLzCb4awkz9qg9FLfjjY9Bh4HweEvoLDwcKzn/70p1YhOcmOKsg8psywbzRtTZ1oU9qZfaDhd5Q7+dPGOyVP4Hui2xhdGJ9r1671d+kDMYJPO5Ev+TH6xJmvUbIVIO/Sb6ADeHGGFhxcA5dDlwgx/YUXSJ47mhDzp57UnYg1C6lJB59FehClhKb0cd5lweDrb7yuPjle+oEvQGfb0WM1voPG5MmT/MMsfPOiUrR6441AP9YyoNdop1XvrKJTWI5ozPqXw4crfZHd+InTbDSf4c5nm8EEL8cDfBOHTyFIXPdC/KWzPwy/RU4HIrPJH7VBryWSONA2zEmPfZboPjxP26IXW+WUr171jh0Xrw0bPd5mzV/oeGap7dJT1W6tLVZTXWlvSc/sPlBpYyZMsRnXTPNFfJ3tct46JMv2VNiaje/agSM1NnjoSMnbFDuo/se+4/AVI8nQlz6JDgeXBZLLlA+P9DVc7KM20JmpaG1tLXKWWmQ7VPi2lYyWMa2DYNWmTVtss44Rw0c6rv1Kwj7j5eWl1r+8n3R0gX8IB8dq+apNNnDoaLv7rjts+tTJ4okUO3KwSjbIetsnBz9fPEIQ8ExtrfrNZpclfBcAXXVY9GFRN/143rwFVoShLn7q63jXZX1B8iNj+98QeE/v/YIkwooII97yewEDICFg1H7sBYywYh/ttevW2t6Dh6y4vNzyi4p983i22CF/rn3OqQxGVuQzXw7Bj3K47vrrbZY6EjuU8Inzp55+1pUkEe8JEpQZ6sDLly31OXgYT0R86OgYOQx1Mi8LXOGnvuaZSzK2mfLBgfRUXevqzto6GaRvLHlTeB50w6FEnRHlhnJkCgWG9S9/+ZgdVX1P157soUleYbHNv+4GGzZilOVmpVrtqdP26ssv2puvv2anT52wstISG9C/zLcoe/6FF4TbIatWp6titf2ZOhskh2XCxEkSMkU0k+OHyuorqlyOsc1/HkEvlAFf7FsimmA8kw/R/zI+OZ2bLSFNtERKQQY3H7eBD9lVg8/zk56Pntxxxx0uL8gLQ+SJxx+36poaH0Hgw1EnpFyffPJJ27tnjx0TTYiAoaCjQGJIHGMSQwG4HH6J75A+Gl4RLs/Y1vvtHdbe2mb7D+2Xc7XMVqxcLQXKtnTljmtJCZ+U71aaZtsh53Xl26tt04Ytdkrt339Aid1w43UyFOZKiRa7r8suRxs3rLOXX37Zhz0xmIgIE+GmH/EFSfgYo4p9l+nfGDfRiEquG8oyGedLhfPfSTa2Bw0a7IuPQu17D/4QtWfbPtLSdqtXrbZDhw6LlpVqYxmWcjSZY8mONDNnzXLD/PkXnvF9k32XmZrgdLM3O3yJUTpJhtSo0aPdEKCPrF27RrIqxUfPmqWA2Q7vHRlmR48ddYOMHYNwBDFuaD/6aKwPtOG4XNmSnJLX+H2+sQ2QL0d8gaag3cD9zaVvOk2OHzvhNMF45kBuwse0IY4VbfvII4943jhT8D3RcHiJaDgjQuCOcn7mmWdcjiLPWEeDgcvHcAh6IFvpL7yLMke2Qg8cMoxzjJz3M4QvF+I772dsx3wj/eljzFvnAzN8Z4G2p67QA/yhF/2PryjS/whA4HDWqT58iIa2Pnz4kBtGGKw3L77ZHTICH/SZX4nOLPBjNxb2dz8g/cK9qsoq6bdKOyJDm118Bg0Wj0ycYiVlpa4DEfv4SlSHGnG4vAV//3c+vPcO92h34GLGtq9H0ZnRGLZSff2117w9Dx484NPPDjMSoroOlkE8deZcGzh8iPSnZITeaVP9qquO2JZNGyVz3rGjp+osPbfAP/jnBmSOHOKuNlu36m179uXXbevOPVYoHuJjgceP1jidli1b5vIXXoJPkBf0cWTJlYpsX8zYJrglCnrnYVvdLUr7wgvPu5N6RrqYAF7Frj2+0xlTSfjiZdjdrduyVOcMpnZmpctWybSG5jZb/s46KygdaPPnzbExowZahhoUQ/31V1/xL2HjHPP1UfoKDt7bb6/0jyVhaDPyQZR75KjRHkUnLXxyNY3t0FM/gn8bkOjoPdNH4vkCB3+J0BKtRAowDH7y9ClrlGEwQIJh4Q03+DZEPszZ0urKESObBRlz1VnmzZ/nwzAsTDhzts5ukwHF8E2JmIat3Yg25eZkewSKBR4YUHQumIqOTXQH5YugxcNGSCOso8FwVYCycZ/5r3OjjEUUHsb1pEkTXdlV7NrpUVhomJ3FsH2OK4MTqseu3XvskAQ6e97ec8+9NlXGQlE++7mIxF1SPDrYIo+vCbK7ALt3sKAUhVsjemCQ7N67z9Izs2zy1GlW0q/E0ens6kHrqoAbtjpjXDD3GmVOnZlPiEKrUl0Yvoco8AcRa4zpz33uc/6Jb4Q5RhiRnE984gEbI4GOIUkebCWHskHo8EEPFDTz6WJEl/d4Bs+ggDEs4COEM4YCOF0tYDcN+g2fPT4hQ3PW7Dm+uAm+wdlsV32Z6oDCRdFUVMDvJ+zmRTfZx++/36ZNnWJFokMmOkcEVhW9XtCAaC6OLwoR5YdhTd9gVIjIFIYZxgg04T50iLSIBlRfA44X9ek9emnP6AfOMx9WAV8UB1vXgRv9mpEPHIfRY8Z4xJk6st0Yi6kZzucd+AynHQML45NIJkBapuJgKJ44fsLrznQNAgBEkTHOMNTZqos5v/AeeZCe8iN9OF8JIEAAf4ILso9pMMhL6IHBTbnUhWFv8KKNOcPHGDfIPgJV0AlDlUg0fE8ggjrgXPi+06IP9eB93uUaZ4jPb5MO2kXZiqHH+zimRMXpN8n1h6b8diNHEM99CeACL1IO+IEv5RK15jd1ZgSCOoM79Uc/QCfowjXPMM7+4L/+V/9s9v4D+yQnt9nZ+jq76+477Jprpsn4KpWzKh3W1uKRSraRZecV9FZ2Yk/v4+KbXbt2y5g9bOwKQ19lhER2WULeB+OXnuPyWgdwrpndNzSC1mHb3bDRAPRBHvI1avQtAZx9+/b6qOGcuXN8kR5GHr2NucMEr3BGcbQw4lmMj7w8eOCg85vTXf2DMxgTNGLEA5lCOdAVeY3+pd+AA/SGT+CxqwMJ2srATRcvYFswcs7aL75PwJdVoQlrNRZJfiL3MjKDTIhrOjDWLTVdRnKWFRYV24L5830bwGwJWHLnoH4crIFiZBZ68ZvFsvAnASGcPvbKZxefcaILdhKOWF8b2pcLKd/+9re7Qfbmm2/2Bju/0yZ36I/gCgLMhlUmltqwdo2tfOcdK5Vw+vgDD1i+DDoUJf9C0nAlMdjrLelGvZRYe6sEFMq9uMTaulOtrrHZ2DQew5m517QkTMc2QWycjxJlDrcaWU9I4L5pmAOlPlCxZ4880z3Wr7TYZl0z3QpknAJEJcJQWqcbElF5wC8uJPqQZ8gThYQ3jzD7oz/6ox6+5Mzh9gl7JnNAFcpXJU7JIGBaBPNx+ajSCRlLzEmmrgh4hGZHe6udPXPaF0My3SZHgiKroMjqm9osPTvPMpkhoLzafbu6Dv9YTbsEJnPJhg4b3rPIsKWtw1rbO+SlS8jk5bjsAKAlaGUlIht9ASxQ+8H/196bgNlVXfeeq27Vrbo1ap6FEBJITAIEEjPYGBs8YGz84sRTvo7tL4nzJV9//brTne500s/d/dxJt/v52X5Oe8CxHWw8JwyeGcRkYzMKkIQEkpg0gYYqSTXeurfu7f9v7bOqrooSgylKJT2tqn3POXvvs89ea6+91trzV693vFavOs9WnHVmKkLlJC2Cgz76tu4R3CxESYqnzoU3+z2De3d3r4wKNdDmiCbVQTl6zBB65JQTMllgikIRvRqYR9rsuJISDYi+fuZu7nQFyoKUJUuXuFKlj4N54TQYMVZR0hgMYWzgB/+goF8P8D4QhnqtYYoRx7A7vRzvfve77QIJa3hjdDznTZAYYs5lyfoGD6quDIgm81RW9VJkChbdmpsrVlDZlwd7La9Xhoo58UCdNU9lmJM5tmrEWqsaG3nRccDa25rEP+bGFg0aFOS73vUuN5jAH5ypGxgrXFGwXFGc0IH7yC/3rwd4Dxhd7+hRpweS7dZWnb/aT4lkOz0/BVbv+El2GT0q4ikaEwUM5hbJBTUay+JpGpKz58zzNRyIqBJbbw2wkFI0EoGY68znafgPiB8G9Q6jSC0tzMdVJpT8gf0yQKVs6dWkJ5PDsJiy5PypesjCSd7DsIIu0KCWLgA4Im94Ho3nWECeiAVl/F4PPD+69jF7+OGHVCYl+/M//3PnDdKFH6uqqBgIxPMyU4MaQ469rzEKyCNAHogfhnrkjUYHRjo9wLxP2hil4IMf+QY/4jMKg1GNHwYpPdfcY0BgWMEvGK748T7pceX94CHk7u8Do/nls5/9rDcIWNRHTzrhERbfjkYy+QIX8MWYppwIIz8RL2iCgwasA2J/9wHJTYCDTZBHTiPJJ3KDPuL59ttu94YYi+mYk42gQV9RV+kIKKh8mN+sD6Wt/nSLLKLuOSTUlNdU3ngkrTYKDvEiJnRO3uyC8eMf/8i6dWUkdZVkbEYOB3CHf+jhZt45uFDudE7Rq8tI87SONh8JLOVa7EAp5yK1WRKmuR4ekkIoDUh+lizXNsP29evD5UGbPb1VYrhoDWXW1gxZj/zXP7PTnt+2w1atPNtOmDfbaQrN4Rc6uygT6gkNntpyG08gXebnf+c737FPfepT3ovO9yLMdwbRNdFUDbOhQWPfczZrKA0xdx/5x8FPszyuSCSdiPwR5Ty7enGoaJUyh8+xMLTRqo1TbYByEWk4lzCVELKk2557Zos9t3Wz6z4a/Ogy6M6aKdbVtHdM8U4v9CSHlXFUPKOPI1pgfOC+++7z0V0a3O9973sz37FhvL99HMYBRvdsw4fBaAAVmz/u6I1B+BEJo3zajOnWoiscjBJj7hsrtunpPdjd44IToOXZ0tridQMmdQNNSSalIENISgVlkPZ2rfNFMKSFECUOwgYhWmsk8Mz9m1HZXxuAAJVWuHBVfhBIDH1DH4aSOF6ZuesM/yUlK2GvPDOnbObs2dahRkqj6IXgaFXDAkObtCoyyAeL/XbfPfdYT/dB7+Wj947FVOx3ym4WLKjjoIEWGdo9vQOGXsb0Jzv6xBEDejFpUFM24IyC5B7BhMDEGEB5IpgAypYGBDQgnHdZ4MQoAA2wwSKLSzG6Um8ohjxXGl3wA7wAYHjg6AWMeal8H/7g+6R7xAAWlTJgP3AM0CmM6IhHhIoMKIwBlGMSjzRG/XRM8UUzC5e81mBcqcGpuge7d3QknqEnO6ayYLyAf0ojLfTDOIMWGExBB3qroBn1imvQb7zB09Zf7AfNrjJ8k0NnsIpzqhPs8ED+yBt7QtNbB5+DL4u7OD21salOcVq9NwnAQCI+fONGtuQKc8PhEWhz4EC37evsdAOBMqfnGr4K/ogFuFOmdHgew5CELvAL6cc38Oc6noD85Lv0uiErvBzk73Si3mR8yrcpNxx4xJW8YXhzn9IRnwg/+J5eSPKLA0cc36td6wI9oDl1kG9TjxgtxKDhPeLjT9zgDdIB+DYQ/uMJpIkjD+BG+ZIX8gFulA94Y1wTjqM8U6MlvYfjngVtvMd2qMiSQTe6GUWTPlG6dF4wUvjEE4/LAMv7rlnsalMRv7HYnIY+BhSHRPnOSHqm00jJq1ySoQ1XcDonNCFNnuH3BGPwzBherxWiPvsaCP0hA/FjSh6jM3PnzfUF8m7h6TtCyZokCjgd2zONk6fHEbS15qWrZGgru05j0ZIKxMjspo2bjEN1GHWG1jhkOIDsRsfBD9AZ2sMrRwTIPOSWMU35UPbM46YOMSefMxd4ZscZ0G9shD+EZrYoVIXsu86wjziGsr+rcF8wW6RcWTjLse67fKotu2ZBa6ZSIqvRwzTWoQnyLem0krWLxuizI70jifg/KT8XMBBLQKWqLbDaMKD2nrijKzzX0XFAmutxeAWA86CbLpQL4C34jJbydgfElXdcGfCunB9eghQiSI5bkmIurrdE9YxgoEx5D4WSyisJbnogMM6YP0nPHMYDp4tOlaBjeBVAqITi4D54KNx4g1faoEfGi7Xf4ZlhcN/zGgSVJ0ea9zx/iMOUBj3XVMw0BYdrvSt7rpwM6UJCV4Q1tMNGrler5+DB/T5fffu2F3zbInp/mBMGDZkzT8VPgpD0WMUvgUE29L5nhYyOI5Cen+jmdBiVunuN+CVaiUaiHT0xKMUAaJCGzUfqLPTxOHoPvzAS6bwgJRotJMk0EYYymbvKVAKGRHkvZEeib2qA1X4TCGX1eiF4LPHsiEO24CKMPOB4Jg+JBgk83OuVHuRN2Sun/r6iOvsAvrBUAH94XPCiEZeBT82SkUrSlDnlwTQR5jUi6GmgxvQRABrU0oMrEH6BG8+vB6i3fKMWxwD8SDu2/Es1wdH2O8ed71G4+JEnPbMHP2HEIhyXeiwx+Dyq+/lcSF0THdK3iMO9G1FSrEyHWL9unQ+bs2MCNEkHKIVBlGjDu/AZ34n0R9JMtBoLx8OBp63EM9T9mR9oNZpe3ONcLuBPuPyp3+QH/EbTOZ4jf6HfCOcd+Jvw8CcOPMl8/TVr1rhOZLQHY4mwqDu8z7ukUZs+LuoMcXiGRvH8WoE0A+KeK851gHgXqE2T76TyHmm0c+WZfEZZRX4i3UiDdPXgdcnlre4J4ZdG6769e/wEyifXr/febN9lxGVO2qoU40mJiy9FFw510ctVuZRGckAarSSPGV38L2Dkbhj85YwGWd3OUJB/4onkwCnhQRkFvdCVKWoqD3pY/V508RfknAbp373C332choySmAzCZIRyMBQj1E+JFuvXrXfDeunSJd7AIa2gPffQHxf0D/83A8CXhkBA0GDke7rGPVehSH2CJskpjwpKeZR8Vb1ExPrptXi4gpHLoXsUR3Fhm3KpIr0tPlHjnwPAmAoKzmedfZYb2Oh4/XjBsTGCn0CqNOFLeIgd1dxWGS7Y8QPwB14LzeuvvfbaT/MCipJWOBAMBcSVniuEAwCxECA8x8d4Ji5+XOOecMIinOcIP+5GHEepc/JiVdzH/FAWnGEcszAGpoHRYHR6oZkjm640YJIQ48/nYTqt6Wlh31gM60T7YPyYu61qAqckA0zhKFfmqGKIw5jsTcm8pxkzZ9rixSdJyLPndPZuVubAWLiMt0NJM6xKbyGKgN0z4FH4y3EjH7omdqfhmHiOK5UAxz0NiV7xsRvm1HQBwhkgPXqpkwElpQNNVDm9B0Y4M/TOfFa2ImIeGD1RfJ+K7Yf/QHuRBTfE2KYAKoUfJHODVumMhePrdWw5xa4PlD2HzdAzP1y3qqmMMBCitxr6EIbh4e+LBiO7lOSEL0O0GJxpOJ847P0avQExhA4toRVKEBqzGAjZwNH/HWqQJayT8IHGnp/DuNcrC1KZjrw3Wr7AGyy0Yx4sw3oxtzjCa+Ua+RwSbZynGfaso06hPDCQoBGuJDzEVyr/HISrYvChRKlPRb0l2laZPtXkigP9fmB/l9OTkQ96LOO70AN/em3Jc7jArdYdzv9wjvgA99CE73HFUWdYjMbe8fS2oaTS2g29K5zgdyWQrqQl58P5qiuMfKS8pLR5xlXE3zTeWVTJ8f7s059onI2KQVflBz1BfYRHGAFgu7eTTzlZ8qzBG/H6sKePHIM2bOmWoZLy94ac0nU+jvQSf8DH9CrDJ8RjATrf9jj6eMIj4QN9IkOJl7lLjbkUb6Rxl+iUvg39HS/Rn29Cc+Ly7OkqDlONGPnAIUuQ8fgj42vTIy3/fpZ27Xdq471eR7rkje+RJ6ZfYcyxGJArEOkHrrXv1/oRBzp4na8JB1/unUbUN92XK9A28Zk3ahCVKiumiJAXerWXnXyKG9iUIe/T6NNtegZfvTIUeKsuxjdTGSki+Xa/LH8RNoxDLS4j96wjYORmsFiynt4eGXWbPE+UUcyZR4cG3n6Vg8+jzOnMoP6gViqqHznlZ9DqrTiEESh0xeNMF+H02jrxvbSyDeUa/YRI8t2U1zM6p1y03oNdVqlvshNOWuajrvTwVkW/kby/3JGHsfzfiAM3cKWXnR1nONCJBgDlij8OXmIaGvYL066QkZQUdQjdmWgFPzmacqnOUfywgZetpyX85PgmJ0SWZGgzwsbe2rzYuXev6lO926vIeAC9mvIK/dM9VxdCAucJcuNxasv+jTvWIyFLaDCzQcQrQd0Xv/jFKnMdWS3Ngh1XvEI0WkwAzISxA9ArkQR2KgRa2jxjEHGF6MTH4eetUyqbCBWOb+B3HEaA+ZNlVXIOUmFl9+Pr1jlDs1qboTfvCRIDM6RNhXZFqXdoCEJ3713A0JQ/RmOZSq1KXB7CDE80T0f6JoEB+RFCCER6vZiniSJCUbKfNi1Ljtrle4QVpTBzqjykNZEAjvARc7VZ+ICSYuEelRdBCJ/BY+CCsehCO1P2PlQuuoAsDRQMAVd+UvYYkih9hrjgxDQ3E/xSo0Qf9mF2DElaxEyh4HtKzNPEcCctTp4siW6pbos68Lqnkq7hh7FWr/KTKFXYGwfK6oc/+JHqX5PX3eWnLvNypHwp2yjjoBH0iENMmNPG0csJF4bym6Qg+nz+XHGgR2lLwdFTz3G7mb0BjhhDTBNhcQrDp03NBflVrLOrUw31Kf59+M/pJ/AG0DiyC2UOwMs4cIP3vR4IWfiEObAsQGQ7PQwp+Bv8iY/MAig/5hkPQgc8GpXJBoxtThhlD+R2vTOggF7pjH7L11UwsS2fa1E5Fqy/2GNDdb2WbxaO1iZeYCg5J/opj2UO/8l5Q5nv0fsPMLWA7zIfF5k5nvIv6IE8hiaRNngzOsUuCczZXipDN81HToVCMSF3oEHkhisH3CQ5rXrCSI94RsXsPI7AwT8vo6BU6pcipPEgb/k7n6ju5eoavE6yow2v0KsFHeAPlBJMsX9/p/KntORQsPTmoRRZGzA+wN74GG+pp3xIRgr7ITPkzK5GmzZtVPiA7w0e5ZEUcVLG9IwFXRM59aw640aBwkOPxT3vRxngB+3hV/iPTizkCM/kBV7gHn7lGVoByBPeJx3eJ03icY0yHQ8gffKF4548fOtb33KjksV60UilbgHkAZwCRucF/EkjcI70gxfBVzfeqMIE420MbXbv8bqZkhFgJGPcI3R4HpGlQNynIGiOvB7JV4onV8NDI3f+VnaV84BaP2Rhs8qEfNMIKdo9997j5Xb6aafb8uXLRI966cJUdqnck6OuEw868If+ZWeRqvCtV/hArtX665g+02hNFbb1k1yRMV0ng7u+Sbq1vtWKki0uZ+T6Duy1jkbEUlH+rVYpTLHegZLChiSHavGdGIAXKCcW/f70pz/1ucmM7FJvoAV405jJ06PsRScekHppkIygMUTdS7JDdqFsEjqjcjl6nBVfcgN6DQ2hWyXf62hcpgZZvtAmecw0I9mZ6GzJCuqIPuh6G/6M6UgUZyrNVOLJ51AIuTdeAN7IVzpHaYC85z3vyULGhrq///u/r9JaiflxMA3EpYLQwoXIYUATzj2Ck9Y4zyDMFaKTBsYQgB/xQskAxKEC4jeewuOYABUcyn/W9Jm2Yxc7HzzldDpn5TlesTGwqejMCaNXCAVFj1Lq3UYghzElwezGDsJaNVaKz99XxUYAUhuYJ0f5sBgohKILRExBMTlTInAYEH6EtfLW29ud3htP6+k1AnnDSKERQsPwmmuucR7FDzxQVvScMYWDfYKLg+x7m+bGEo9DOuA3Dpjh8A386GFE2XIPfq74lVYMb1JdqdAs8iM8jDqvzIqTBG7V08S4R5hQwTGsieP3WUoATzk3tsdHWPLtjU9u8sWfrLqeM3e2aLM/Ez6UoQSbHIIsFCVDbtTF/V0HRdNm5UlqzvGVIixxyuSABGBVBlmbG0pdXQecH5qkENzokrBkrj/beIE/9/AkwL7t8CjGE/zHATmsFainNThOAK9SjiFzQi4B8cy0FnobLrroIu9Zpq4QxnuEU96844qBchfulfqSleuKohqNDtYxgD9GetH6eroUh97tsoxtyUNrtoPdXdIkA9Y6pcly+ak2WC5YgwzQQRnhDbmKKyHozLeYp8y3o1OCukZ+xhOCLvAnjvpAnaFhhBxhD+C3Xfk2lY0aXV7eqQ6HsR2cWldVmG6o+4xkYfP0s+ARmtEogw9EN0bLujrZ0q7VOIQEA4nGH6m0FKAfi2M5zCQZmCxO4hnFy4IxDCXqHmTwhpn+qa/eIz5utgRznekRKyjfjFbI6FGdZ575iy++ZFuf2eJ1GwWJznPekDzF2EYGQCtoQq0GoC+NjHQaXVoIiaM8gVr9SLmjOykH7nkXWcUzfME7xKPjiveSfE6yGCCd4Oskc8YXSJvv8R10Nvn64Q9/6A0hdolAbjLVhbySdyB4KwD/CANHIHCgcQGvg2PQh1FSOm1YIxGjiW5kZZ0cdGjQqw1N4YPUG5lkKmXpXOrfC26lZxx5Gp0XKcyd+Djdj4bIv66ux2odDSXqkqRAocnn+T7+xOO+QPzExSf66GF390HHkXKDdq5/JW+hEw0n6IMeYU56R2uLDQl/tg3tr1PDu2mKvqmGhw364seK5C2917nGZuupNCZjO6f3q6oDg73WWi97SmZTubHDequN1t03YEz3xhifaKB8wZkOLxZcx17e0IIw+Ae9ikzt7+0XnfYbZxegj7E3quRZegD9URlCDmOvSB5yOq9IPyBZQI99o2RJoTkv+qmM8VcDQxg7n7EYFbYJm5QF1dRf7hMbjlXeby4gT1igSiP1Yx/7mJ8q+0pQ9+Uvf7kKo3ACFMoJxKJSQUwqC8+hQLinEiHMEVKEU7EgAoqFcMJwvA8gTEgXBg3FfxxGgejGnr8NMpjpweXAB4bl33HVO3xhYvRmQ0MMKmjux7WL2bw1ndEaQycxH0Y2Qpt9r1WWep9eX7VBFQbz618OAx2hQdmySpjhl9gZwOchN6QTrvwdjA4XTBMH8BP8ydDv2rVrvQH30Y9+1PGnoodicuUlwy/xbqYshSDCP+LAexhfXHkG51RZk+Jww1Q0DsFflKBkb3HS4h2UN6nTGxzpMe2GXmCECd9NigDxfWjlTyEqv3GiHwrpW9+6QeWT97lrHH5EFhjex4DB0EY40RiL3gPwoEyLxZL3JCL8mEpCWpRtk6T5ECvCKWq9w7AfuNLbyE4uGN4IR3pyoL0rUtGNBXHsk0tvd74pzW8lLE/jDyYbB6BcU9kmYwRHmcMH4Q+f0HHA6vBLL73Ue7bJJ+VMPOoIZeblLUSa5AeyA0O9NljtlyHAgi+2kGJbNxYHDtpA334r5MU/1BUZ2rihivigvt+GchiiUp9yStGaRb/q0IDzHIAM5Ft8M75dy2/jBZFe4tHUm8g9dKGXn118Lrn0Ejt75UpfDJq4c6RHOxncCbgyhQo29TIXnVpb9Y7KkkYsA2bIBFeilaLiI3eUmuJhIMFr9AB7TzepKW1wp4hAmR0p/CRB8Qg7+2DcIr98NwP/OtdxAH0PvoVnfVqI6EF9QI/RIMOQ4uCNP/rQHzk/QyvyAjDyBd+Sbx/WVl4DL+oK9MXA4B3KmjKFH4EoY94ljDh8k3fgwSgj/CJ+lFXwdQB+Abw/XsD3qBekH3n6+te/7lMlMKQYoif/hIELDggeBshP5Ik8cx/pBg6kP4K3GmTgqTLmNcpCEeAcXZUmYTjokNUR56taFzzlIWFsI7uSn/nUhPTeiBsN0BSHDox7QOlX0SmJD9AT9OJyPfe8c+2cc86WTEiyBjpE5wx8zGiJl5Wc/8HbakQUwLs86MZ2tXmaT/1rrA5YU5WJJaKT5Ig1yI6qNll/rpBGPmVsN6vBTu93falPhnaT9dXJnmpp9/iETzQEr1Bvfvazn7lRyS45MXrnuAvocGBqHh17yXBWHZF8UA1UaCqbgaLwdkO7oHJm5ITeb96XbcFhP6JLWToIGycnG6YxzyLk1GnE6L7P3ReQJ74ddTfyMJEAj7JDC/vOM933Ax/4QBYyNtR95StfUT6rPuzK3qooJiAQgLHiOSpeEJgrDqbjPZQfGYAQAK0h3k/Mmd7lnjipMh2HYYDeEkhcH3r4IZ9DR0/D+973fu8ZSsoJQZfoHkOwzJ0NP8oE+ZJI2yDGRmCmhW0EIWBSGEqUck3Df4nZEYBKT39JQaEAEbKpnPQpgUTdBPdsgxP8xNxTttmhx+Wv/uqvnJcIC16CrxDqIOg51jWmyQTvET8UIDwbSgHa8S7+icZ1MigwNlEcCX+GyZwW+ocCNECc1/GHwLr3wMNCqIzxAZT+V796vYRNi52nhvKZZ57h2UgoQRd+04IWFDv0AQf4hR4FeumIAxtgUOVkPFUk5Ool6CtVFKfquwzz+lxSJKCJ8cJ92rIt5QEjplBIOxCkBbd6F+WpeOAKR40n8H0A2vNNL3MB/oyqYWgzbeLKK6885MCSKF+AK3MLGyhb8lpXlOEsxZejUZt2XBG7uKsMyQgXzzsblGUklkU3ichqbsCK1V7Fb9V7MqqVdFIdSTHh+C58B8BXuOC58ZR/1A/SJU2+EVfygDK46667/MTP81av8uP54UNh4CXjhjbOU0qAYnPmEDaEsNMOEUqii6J6EDxTn4OnUs8lPEUYU5B8hA1FqmemckD7hHfKU4P4BznihqwYkPym0Ti4JdHnDQMoqkKIDP4N5CfyjfrMSZaPPPKwK/RPfOITbjgnELYK99FB/SEXmX/KuxjbpAe7AOBTW6bgEDKIe3gz9B7hCX/ol3ijli8CnA5yhEf5hR9uvCDygAv43Oc+59NHLr/8cp+3zfcCr8g7earV35EnrvAg6YF/LT8GOIdRHjy4noNuqmOkQ2FBWLmEM7QmYpKYYWSne9JKwfVVGZ8Y23i6T7jMKHf/GvBH3sbpe6OMbdheGHhdP3DwgN1y883egcgWohjc4ITBxzWVH7qp5DzDlIiUvnyFR7GvV41vCQrx+AA924W0riOnBmtzHbKS/KlCSQ6XZUwP6FG2pqn9YM31uhnsVhYHJGdabSDXbHXSR3hL8qaPTCAEryBLbrzxRvvkJz85bGwPhyMPKDeKUT+Qp044lstpu1zkQYMa6SKHAiQrKnTswVPCW3Hd6XWKrKJy9bnwSk9YB1ldr1CHvdSyPEU9OhLA99E1TCVh/vi1116bhYwNXouCeaKCkAhX/DDGUNYhRALJMGLoveEaSh3BFXEBrrUVr/b5uKtx0AQDmuF/0TxtZ0OvNcybygO6ovjYmg6mY8uu2IHDyxAlp3gqIP2nHhYeobxTn8qqb+DvYXrH3yUtcT1CEgVDGAsS8uyBSQUgE0rAlVDkd4IceMFT0QhE2MNnjq/jl3iS+XCeWZ6JJ1yISzxc8G28EzQAwBtwP3hXV5lKKgvMJyldSQXvGZO/L9aBVkobgU6ZpF4O8poEBo7GifeGDjvoPDaOv48DJ6a5pKFX+CUZNOA4rKgznMgb82a9t1tx8ENJMEWAuezM5fd4pKsr74EvtEiNPNIiTk7fosHsZPZvgj/4kgd61aG5ywbRCTdW3n9fR965BvAc+HAF+H6UJ3mDbwgHIj4uNRol6bl6nZDw9yFtf1Q4wn3Ih0Y9bXhLNBBZHXxIm/qmBokubj8U2etRwDe9ESsa4gDykGgV3x8bx9/HBZCuywg56gh54J5ve73n28LjEEde5PSQkJaj3N3xvhw0ZeoIwfLOqlmqF/gxtYR0wDXxGfJfNIGH9F3CKAK+A1+SntORz8kv7Q6UynA0br+3U1oIAt16nlKZ6Bt8S558Cz/olOiDE868lwHxotw8XHmM/AN8J8IAwmpxiHIgnGeAcNzItIP49gj+AFeea/3HywGkSf64Qgeu5BXnsiOLiz+AH8BzrQMiLN6pxQlAHsALfJq6xTSSpKt4P+mqlIbeJ80awek60WUrYYlNhx1xSfQQT7ksHz7K+zKX+N2dEkz3yZ/0KH941nc0oWzDZeUQeCXck67R2/qF35PsJQyaeh6IK4cY4JXad8G9osYoYTzhfAEo9HBP5U1ylfUR/uioKc0JdsEP5JuyZOoRfAJ4nR/m80QrnnnHbRPqoN5TSjCKp5HsiMDHk3HwNhjx61hLRe83DXbpXukqrtRjkiENvoGrrYtHwoFn8P+rgfKdMg6xuAJjJQBRGcJncQlHsuLidDjm8mBs8w5z0+h9ZOUq8wXpbcKfjAEw2+gMH3eJ6zBwVM1cITSokmHs+fQPMRT0Ryjpx+kIk3nvSSkpeK7793fZNj9W+ynfm5O5tbGnpYo5S4PYfM9fGwbKiErucfyZ+M7jDh7dszl2/t9MF7wYzwB+OOjgxpXnN+HnQ5YyBJhHmhR/OnCAo9g5Xv2ZrVt9ZxGm1QyD4iRBF9/ST1b73V/38c1El+xezuOP5WTIHepejtvv6wDwBX/4JuUrNZj8GT7K6jZZRKEw5QQlx9Aox9mySwUrqR0D/WBcIeCHhb1efOml3V7nn3n2GdXpFx13eiThi4RjpnD0wHPkKWB0vt+IA8BzLKgNB+9QavFu4o2Rd+WbMg2ug0U70LlPfLHFXhSOxQH3Hq5bQI/kGDsEPfscx3Vvtic3PmWbt2y1LVuf0fUle2Hbbp/Dx3cAvhVlEvcBkafxcpRxyNWA+HbICUYharLwyiAe2N/ZZc+KP57auFFyfqt1uoxPaYCi2lneUONApN2ceLjxSe/h4dAo1wWqH3y/0TeqB38uyS/RSOWk70QZ8SxsDsHrjbnEizQIoo7yy9QoAHphEAG17wBe19OtA+9Dw4PdB13fccAWeo28j+Qf9BJ+4M+GAn5OgdwIzgmIB69EPQn+CAcED4/kbfwceeE7XL2DRVe+Bz34JmHhP1a+cIQhU9H9bO0IXZjqB958AyBOpEGN44JTses7SkvxqhUabcqLyintYiE6eURPQsDN8MMh5eJPfKrW8eP3ca1xtRDhNRFcVyhvjNqgd122yrlMlS7hleAZcOIZ4xw/+IP9n59G927a5FMLcM9I32Anbd26XXyR6Ofba5J30QZeielLjim8J5eAOJRT9igYXZYT4YIOQNQb8IAuuOCPVNap3JleyRRGOniwW7q6Ou1p0YMF7Owvn+pQt9Kn00Z0gSS6T5IhOaCuSsM84wtB2tkkfdOf+SY3JJS5sXB4M5yXpa7kATq8GtRfc801n+aGoSPmbMXLQCQGMBGcLvNbbrnFbr/9dndMdaCiEYcdEbhyRDFh//qv/+qOyeMMT9VuJxRpHodDwYWYrgguTqCjRxe6xoIMzBoMRO9hlaOX2w0kCSoU3n33/dp+cuutdvNNN9kdd6zRO3nr6JhqbW3tikdrmo8kngxmTr0LCA1a7PR0SMDr2eduy1BHIDZlpzwdqWKDkRHqGH1MVWJYj0oPTbhGI5EKTm8F+3mSWeIiGBAUHBV75513+JyzrVs2e+Ny6rRp3kqn9w6eZMcN5tVJdHi6TmsZqamHD0GsMpBj3jOCGZlI3rxXDvooD+FGKKwrgmGYdsM3bwioo7/73QNeZgsXLLR58+foPhnXzHFzXtJ3UQLETXNOc771IcfcstDlwQc5RW/Ilpy0RNnC+CHPDH2zHqDJG2o333yz3X33PfbgQw+5sc1x5hz+IfIkEN2cLzK0QhiDt0LGCdtDgbLCIUtqZRSKC4VPRwDDemy/B1D+IXeGHQVG2Qz0yYjeZo+sfch++vPbrKenbNNnLLQpHQXVgbQdIjEf+N3v7JabfyaZdqt97wffs5/87Ga77c7bbM1douNDj/vxy2eevtymdiQ5B4QRDITCGp3n8YBamVp7z5WV8ig2DkiZv2C+L2qNL3MdKxeMCv385z+3b3zjm3bLrT+xp0TPadNn2Ay5hsaCDRaZB08vdUXGxUbJm5vtq1/9mv3qttvEQ/U2a9Zs3yKz3reShCdQTMg3NQzyqWeQLKZsSkkrneDR8aQLU5roRY1eUZLGaHpRPEJnEHX3jDNO93IaoR9lVTMtRx7wVee+Tntyw5NeF1iojfyI6RbpvRGDY8+ePT7lDRpiWDCdiW8QRhzuGYLn3dr3cMB488dogP58A+CbyAjkATqaesPiN/IY4ZHHVG4pXzTY4SvWSHzzm990fNFbdLbBa8iAMMQY/aYDiZNHmYp2iKykfBTmI2rIbQ9M3/AYfpuekSjpmnzEXfpNRmDESdfMERGIoFpwv4gA4CGeVhEoy17mGMnwy4L5C2zuPORrqstRPjhkLvDCtm12609+YjfccINspJvtJtk+d95xu625/Q677a57be2Gp6TLV1ihQfpUyYAzurihqdlHx8AC1BllzHuPPvlXg2eozgar6Hrkt78y4RC8wJaqNKg5op9FsPBwkvVp9AK94fVM9GGaDB2GFCWnxt555xr7l29Bm1vtpz/5uQzvLc4LM2fNtZbWgiNGXHCknKmDzLRx/Uv9dGscY5uOx1RulEdt3a2Fl/u8ORCNTKb8clz+K4FsKUw4sawQTz0AauWqJZF8kxBgyIutvVaceYaddcZpYsghe/yJJ6wqwbpMH+AjtGI2qkW3Y8cuX9i3ZOnJej9DWemyW8QgK9AhjHN0OH0nc1Gpw9FmkQjSPfFS60be7vwH4UQ83cKsXgYeJ/kp1O89rlzN7WHcy/MwUU5fzyguVhOzOhOJ0Xy6AuGQEn8fvhlhJY6FRbhjeN0mZXfHnXfaww8/otb1U/YP//APfrzqJrW2IaEP6Tpjpvf92/qjh4p7lB7b9AAoSHqlGsTxfJ6FI14MvDPBDlrgYjoJ/BhKAMCI6e/vs0YZmbSEWeAJj7LzAT1y3/nOjfb5z3/Bfv2b+225ePWKK99uK846WxVkutOXFjYVmGkZzD9mUSTCg296magxw03aBzSVR/R0kx+oGXn1PI12vJzd18Z7I04/aTRKeaV+MFfWR0bk73wvh/HiW/vRKJOwAqcd27bbTf92k93wLzf4dl/33Xevdfd2O6+5tNM75cGiPfv0Jvv/vvRf7Je33WHTZ8+zM04/3fa+uM2++J//X9u+6yXrFZvokyZ7yhUAR/GW9My3+XrqfUhlNF4OQNGFoRBCFl7AAYTRgKKBStkgkLmGUhg2euWkSb03CkP63374I/uXb3zDDcYdalSwXCHKlp4nemUefvRR26JG8L6uLp/L2bV3r4zNTfbo2ketc3+X91ZiYJCXyBvf4pl8kR48BYyF3xtxAN+M78aVMPLgho/7AISl8GGIQF1/8IMf2L333iu5sttefPFF36nis//PZ12+MCKU5lyb9+L98he/sHvuuccVDg3+L3zhC/af/tPn7F41/B2yT8lmkSOv0CQZsOSLfNI76EPGgtF4/f6OxFR2fE+sgewCUNxhLKHIkSlBKwfdpufkhyzp6mTE8Hn79d1r7NYfq6F16y229okNVqzIKFAccXmqP/pWz4ED9tObfmQ/uvGf7dabb7K773vAegbUpmPwTbyIQckCsqFyOnk0+DkMh8gbAB50GISsGy+HHID2QPAkdOA7fC/ioSvSNCD4ynPkDt6nM+i3v73ffiID8+1vf7u94x1XSQYP2E033WS//OWvbPfuPfoOvZDUzbSrTWr4UP6cBMjezBiTSpNkXwaJBiPXdBcu8hKXYQf4fTwIasPDm/DsPnmDs26UOPhSDtDD1za5X5I5URZxj+6EltQLOh5p6FNniLFn7z577oVt7r9d/FOQ8YlOwih1kM1VrRlxgk7Bp05w1tb4NJJkaAJRNhPpAHCERzEqaWghTwLgVzZrcNqQf2U9Gcd11tfbZ1u3PmMPPfiwH/a1RzKTXV0owymyKadPn4rKkW2IDpGs0ucIQx7AO6nyKh/oE+UBXmXqJOVBZ1gqD48yhns5LuPtyEetfnklqH/3u9/56UquwU5YcorNnD5NirMsZFMPIRqHVkYIppamBsvXlW3Hzl12/0OP2tXvfb9decVb7YQF84R01R548BHRps4Wn7TEe2Q5LezkpUttxozpvn807OpzJZVJB6iq0oFgGJi+W4aCfG6cwoSOhFlZ70kou7HNO+RJF49AgStUeSuSrPLAal3yO8CQp9LxBRiqMM4cwqmquHwXo4TV9b49GoYTKXnYoY60JsJ5ppQnPflRpCwIZOu002QcDisEovGj+6j04LB3X6f9+v7f2KJFJ9pll7/FLrn0Mlt6yjLb8OQm3+aKEQvKAuOZyuCfg35uMELvJPAl5l3A4oiSyit91vMJS3CdYAew5R8921R0tnWj4hMWTI8gp1fAt1QSbShK3vm2GhsPqfExc85cu/Kqd9pZK8+zk5acbO1TpkmW0SrOcFdavJOcykFpuoBVeMpDcn4vl/JGXJ7xqsmv/tOP32TX5GrjvREHr68VXjQQ6LGcPXeOktc3CDvkm+RReFDuKnPmILe3tfsWifTuLThhoV182aUyTqUEKHBB976X7LEH7rMbv/d9u/CtV9sFcktPmGND+3faTTffbFPmL7HWuUttaquMpKE+vSGlJMVQ0vskoZLRtygDaJfoNx4OoKxrwctIQDiGAsP29DacfPLJfm4A/iEUIx73WXKSZzLOmwu+x+3vHnjEpgu3FedfaicummXiDueFrn17bY/q0ZwFi+yKd77HLrr4AnvHFRfZxavPtqbmDuuWJfW+a99ry04+yVqb084TkV8gfe/l+IynC6i9B+iNYjh70Ykn+sE2yBIo6DTh3RRN/FSRwit6o5UGyOKTTrKLL77Yzlm50kcm12/YoEZMh510UjosiESef+4Za20p2NlquF5+2eW2avVqV6wcYjNb9e20089wwzw+4nmlGDzPiS9TdlOEhMt40cqz6NcE/qRvmmTiLumwnRITQ97rHLxBeMpOkgf+rCuypr2Qt5kt9bZry3rbe2DAFi5fbSsvPDdtgIHO1DsNlQZrFh9NaZLB2rvdduzpt57qTHvndR+yRtUVeivRRzIjVE9ST37Il1pXCzy/mfwTadf2bPte6KIXurqqhgHD+N6Dq2d6ers699nDDz/kvfxXvv1K38GE97ABnn56sz3++BN26mmn24yZs2WENFmOEY5yWhjryQhFdO3wqAMeDrpmNPFI7h+O37ime3/yuPCYri594l3C4jrKOegmSz/9udQSrimUcxeY8oBMYQRjgWRs5BPdC/BMPYLfd6th2tbW6geusTj7rW+9wi699HLVmanCv8k7K6684i3WxKijkqEnfzjPslNIGvPUw/wzygjhvpBdZcT3PFy5nGAXQCMCg5md69KR6GlEGBp4XOcZxddzjA7tfmmP6LhRDa8hu+a977MrrrjSLpOsuFA6fNnyZTK424ZRpZuItLBHSA06eHrgn7lEkxQuDw9Pzh+HXQquDX9zHKM7dDRwJsqrHWqTQ+Co2vtJRbKTBbR4MUxhKKigSF5D2F2kyebNmGKzpk+xQkubTZs936bPUoWSEbe/q0tKbrtNmzHblp68zI8qfvvbr7JFJ5xozb7NmIQ7xBQT73vpRduzc4d16trH3De+I/D5dWJkDlVgqK9ULVl/qd8OHuy03q49vsI3KoNxnj6TK1X5+3R5sbNsL+7eZ/v27jYOTACLIeWZPZB7ZXTRC4VRun3nbnt+207b9dJu6y8O+sIfyQhvRTGN4EiBk17IidJ+pRc1jAQKNYGuuvc53HpilXZJ+e7p67eFovNlb3mLXfeBf2cf+tBH7A8++Id26WWX2e69e+zpzU/7PqdOOzkVhVfaelVkVX0pAH5hbjlykMUbBj5LxiIbRwjgDRw9urUAfZg6IUvbGtTYyolv9osP7v/1fXbnnXf6EPg7rn6XjO132dLlp9mUmWpUimcpbehIqxwSqxYIbxp1UoYM4zm54X2cKhdlkZUH8ZNC9mijwF/MXLyf0hgvQLDRcsplPBOCieaa12ePkVxqWFG+9TZ12gy7+MKL7Jyzz7Z58+ZaY6FRweI3onlcs707t9vGR39nXbt32eqLL7NFp58iZXqinblkrg0c2GO/feRx27q3z8qKblUmOLMiX3VNjzR/8fZG7jjiG0CdCOEekMojueFeXGf2kfjxTjjPsPi/aeo0W7xsuV187nk2V8ZBY3OLlRjWJQrxILPkAqfaXXnV1fae666293/wA3bdtdfYlRdfaCtOWyYDdJGdfubp1tKWTffivQxqDaU3Cw6Xdvgn3OES8UNim+TgC0qrJh4yeNny5TKeL7Orr77a3vvea+wP//CDargs8GhsEyqUSMnmzJ5lq0S3d7/zXfaB666z915zjZ0tvmJ6VmLIlLyXBO/IcU86aciZCAI8PVL2PG4A3nwvPiDn+YEfRkZDDgXqSaIVjnyy9eHMObPtvHNOs3NOnGlTZVRV8h02IJHDrvaD4npSd/lZaLJlZy2xy86aZyfOn2vVpjkyuM3jUj9cw+T0XZxLn8MD5RedCuMJY/Fo0IJ7wEPp1VWOXS6y1aN3bg3Z7t0vyYBi3u1ztkrG5ZzZc2zu3Hm2YsVZdvY5K+2xJ9bZ+vVP2oEDPW5U0s/lC/6VKA5zghFTphmlETU+yJVvj+VUf/zvUN9kntKjSE+xXBjdnlakO5bTj+MfKZEOfroIKEv/WiY3gKBXLd249ykwumJsXXDBhfbBP/gD+4N/9wd2zTXX2ntkXK5YudqWLllq5597tnXQEKeO8U3Pq/QOvddKEizyurLzUeJTwtMoNp2N7EISdtKRgOALRqTQv/EcshVw2kT+XbbkbNOmzfbwQ4/Zzp0v2YL5J9gll1zmWwdeeOH50j+zJYcY3VJDTOimUVI0l1gPPUxZSkY7Legpx0XdhPYZHxN/LDdRQN0JGrwSKOeIHn5rs5cRjF9dSMwNCyFHTw8Jc5gHRjFGHD2IG1T5ODxkjoTSjBlTHVsUH3stMnRWHix5PHqe2Pv1d7/7rbemaSnt79rvFZvNzVmwtX7deluzZo33oD///DZbt2GDPfjww7Z27WPW2dkto1j5Utr6oPUePGCbtzzj+6Y+uvYRe+SRh+zRRx72njsUSk/3QXt26xZ76MEHfAssWuPMbX7gdw/oO+t8OCwNnTHvKAnNyQzQHmOCMnFGy5juqquuktJfonsZzhJw9OpxGthUGRMjCyxHSjYVp96HYT1lwWRH/tUAhcFIhejDHO0f/OD7PlrCHG96OlnUNNDPoRMJf4BRKpwLDzxpeZHOUQMjhRZ3I9coWV2HCxk0E9+EA2+/AsKdUZUNG9bb7FmzbJZck2Q+PaL0aNKLvmXrVtv14kuireLTQ4P841W54dxEepMalFuy6fiPGMV+T3D2w7Q4ziCYP3+ee9FZSx187tnnvJOBusbona8VmORA+fgiLN24gsgKDBlNGbe2tjg+HJ6F/GZqADRYKSPqzBVnOj9QVWiMLlm61GbOmOF0YroF9Yt3V5y5wpaIXk3suf5qVSn7/lEB4g1kpvfIQ4QMnE2AuFE8b6sjX91gcC8PHo7LHZ6TFqqSi+zmJHxVxxn5cDtAeDPy8Zz0ZvReMn2N+jBz5kxbtWq1DRYHbePGTT69EaBXEzExqdF9HUADyPWFAHnBqaw0NuZIPnKQFOXOlMz9+w/4FEUOyTnxxEU+BSJ2jRrm+0OI8kqV4SioKKAimYJcgS7IGaazPvLIo3bXmrvt+uuvt1/96lc+1Ya5/Wn6Iw24BNAF2jrvlbPps8cQjEiMw4EICBGSYFaF05W9JveqIsXcL4Ypv3vjjd77xaR55o/CQ/Q2Br0wyiH8jd/9rv3iF7+Q+6Xd8C//Yv/0T/9kt956q69qf/aZZ+0H3/+B/W//4T/Y//F//kf70b/+m33vBz+0G759o33+C1+w//bf/3e2RgZzV9eAGn0sUKv4Ao1vffObvhiTfTG/fQNpfsnW3HmHde7ttP2d++w3v77P/q/PfMb+4lN/bt/85jeUxhr77ve+Zx//+Mfty1/5sgz659Vaq1fembeWGh+TFWBiFpzQwmSOKHNTMSQ59QvaU6EpKxxTLjig4KTFi9Xy7vAWNEzMkB4NERQhQ8dRRkc9MBdOlZdV8hiMv/rlr3wxB/ffvuEG+8Y3/tl+LV7YvXuveFd87bytV3zeXBAB2hwrBKkFIeuCPRkL7oT8sCNMaLO2YueunfaM6uIMKU8MMPqN6OFrEn8tWLDQp/Ps2rlDjePYzYV04xcxcZTRD4MIA6qOIV5GepJgdHxEl3xTwZrbO3xhKJjhz4jZs889rzo46AdeTG1nXjwvTG6gmJMRqHI6pOLLT2XcoPJuaW3zRcHUI+ab3nbbr+z8C863t771rXbCwvkeO821ZWoAfXJ1tk9yFlm88ISFPoy+cuVKly+9kus0Zo8JcB7BjfDHMJ8AcaP6xPZlqY7pMYs/EklRnkkAADJHSURBVDeLOMmriddj8qhyZsQjjUbUe6caugU86NENIwlDc+q0qVYcpBOuz+0EAJ01QqSjH0K/4qIjckqmfyMcIxK9s//AfpsqGrEvta9NoDdf8dP6uGMN6lx/dKuBwT7lHBrF6CnT0WiY/1KGNjbXV77yFbcZAagADbnzkSHVGdKBpySRiHLMAJi9IoBu9PrQ68fE9RkzZqq1m7N77r7b/vEf/2/f6Jyz4ZnLM2fuHBmuGOep94fX2ELrgQcetFtkVGPM/tmf/Zn97d/+L/bhj3zEj9L90pe+ZLffdpsbftNUWZmHyvygZ559zt56xdvtf/yf/mf75J/+mc2aNce+/NWv2ToJ9e6ug/bEE+vsxz/+sS1Sq/FP/uS/sf/hv//39uEP/ZHNnjnDrv/qV301cFNjo737XVfbxxXOHCNOlfvoRz5qf/3Xf613/sR70B988EHb9SJbdxVVyEdHEVOxGc6hXHweZk3lhe5s0xgrh8+/4ALhznAM9mi9K9sECIzs9qiHqvUfPOh3CDmOqAZnRi6gFXPuGDX5X//2b+073/6Ob9vGCAlAZfcKDzHg9aPBanrdINyywq7lldGQpmGkqWXsXIHA9MHkCgsLq9Ymo5Oj2QekTJnq5GlKwJLisEEBe+F/+M9MEsgyqPwyJYuMk3WmSADD2c8UgPfuMSqip4H+Aevaf8BPz2Q+Znpv8gN5dANQP8g654XRjSNFWvvII77LxBe/+AX7qmQpo5Gs/+ju4WhzdkRSJNGL3uzf/PrX9o//8I/2d3/3d3b916639RvWy9BK001q1wIc/QBnJD6BO0bKe+QuhTHgTw8dIWlYPNwI6OlQj0kH9MImfNJ0Gq4YU4xez503z7Zv32Y3fvdGX0iLHmLkeouMKOQCejf0TFMThtOxA8jIsWQoOoRefoxGFqWje9DFCxee4J1hTsoM4vVXksVHI7Agn7nrHN+OjKGB/ld/9Zf293//d/Y3f/M3fmgS9hY79dC5ik3GmQ/YhYAsEt2nxZhucx5D8KpiEBK4IQLi+qdHFUOO7c/mzJ3rBt92GTf0ajCM2phnyAmGlLhhIo6AXg+2BHxy4yafD3jCokW2cPFJPsfp/NXneyv53nvv8cp51lkrfDumxsYm39HkxJOW2LwFC+2kk06281av9qklO2WIM5T94EMP+rHmS5cssVNOXmrLTlGcc1fapZdcbDt3bJfCeNj2SRBMnzLVZk6fbtOnTVNLa54PdTIkTkHv27vPvw+Ow8PHkxxSIybllIoPU9OjjT+Vl2kxbE9FBV8tmi0RfYbKMhRkG6EAKdS0Srzi85WPDUmYGh3SEL5NJT2zDP9fdfVVfjoqU0kuvvBCmz1rpt191xp7Qg2RAzKW0AeMwFD2Lvf4yYyrY4QwCZIsEyDOsr/Rgj5D180I0cAP8HGDWv8Shuw2IivLp+lgdbpRWlXcTFAeQrFEzHQ/KSHLG8JKt5hEFa9TYE/zImJAC3BUA4TevUxistVXb3/Rpk6Zpsb9TJ9Cc7SAl5OjxR14QgDoMIIF83DPPuccX/zGFJo7br/Dbr31Ft+BhGkFTA2gjBlZYwHZeatWeVy26PzlL39ld919lx042ONskFH6KAcIlhOPZAv0xzCiR6oTsiQb1WX9h65MZY14RwdkmCELnVkYAUy7PzAH+eKLLlK5L7I777jTd6O5++67fX0MnWoYSiyybG1pdX1DEsOkOQbAe12zupN+EyBPaZCDK3bSthde8FFoFhXTox2ReZWG7rEGHGLD1CKAXX9oeDCNla0TmVp23fvfb3/5l3/pvIG9+MS6dU6H1JBjLnvikjS19dijT6Y6XgGEf1pMkpQugLKFiZadcooL2BMXL/Y50/fff7/tkjFMrwYMxWpjmI4ekefFeEwVWSoD2o//FWPOlbG+YsUKvz4qY7xfRi/zROfOmeO9kacsO9VaZTAxQb6tY6oM9dNUgFXbs6/T02OIc8/uPT502dLc4MM0c2VEny/B39JcsOefe9Ze3LnTF5FRCWhxsgMDRzqzRzjD4eQfYzQJhlcnx2QBhN5YrWKm9qDwNm/eYueee57vQkIjg7jM3Q4WjmGsNKzlt0c95NTwg0fZS5rtAWfKsL5QDTpWCTOMd8EF59s73vF2e/bZZ2yzjIbOfXu9AZL2pWZoT7wNXcag69EN4FODV/botzW4IuDSnH8Jv5wabyIItPEms5iE3l/qcGO+wZrENz71xCs6+3bwfpYsaUbYpIYRQlSEW2pk8JuMTmcFbsA9XXwRD8CUOMytWTJKvZGXkpnUQIOJbB6SVVDObhPCcpItDP+ef/5qe897rrGPf/wTvp4GQ4oDO+hUSVs7Vq2pscmN8Xe9650+RHz22WdJLm+130oXHDzASNNRQJjXBFAJzoBPgJcb2yNNFQzy1BNcx04lflcLhz5NVhieRuL1WHVAfMGuJLNmz3K9+X4ZTxhOzz33vO/c8djjj/sx+KznWnziiTZ9xnRPx+2vY4UNBLXGthvY1BkBfhiKdHphZ3R2dbnupVHibXqcogY/xLvx/jEFwglegSbYGtiLTCVhihlryaDR5s1Pu72SDr5hqlLq5IA27AbDNOFjCV6TdQnB6EGFW+gNbu/osIIUTFt7u5137rm+z2aH7r/97Rt8SyB6ivPZ/swo532dnT7PiyO1m0R0b8nAdLq2trX7fovbtm/3+U0YScWBfv9miwzg+nr2CS4ozjTrmDJVAo19PrutWw4FUCoPWmtrs7eeaRBwvCm9l1OndFhvT49ctyqHlKRa2wxzMbXi9jtu9wN6uhX+7ve82w2xtCNFUqqTnfXpxU498ezCwX6UQ860ACd40Yjg+cKLLvSGDCu/2XbJGRq6i5t9uz8MjMmO7OsBeutViTEY4VEUAYLRG1oKZq94+JVTqDhtk0Ua0Ck6GUaEH0+Z57EChylneAhUoycB47rQ3GKNhWZfHIdhHfTBIN3b2WXTRMep7S0el55uVZ5hQZLkY8Zkkx28oFNevcdS+JFtVv9H7t0AJ4oaH8gQeilLxaIf9FJoafft9JAaHMAw2TFGeYXCD0jlr9Lza8IVRYiC5MRRFoV++MMf9tEhlCHT+4DomGB3EnoyZ8+ZY6ulRK993/ts1sxZPrqELGc7zslOl9cO9eIT9t4XTnW1xnbSG76blyMrmcNOE/qDl6BUvSLQaB2hxXDkSQtuBLrjid1D2JM7714YkH/8sT+2j37sY9KfS2zmzBneubZjx3ZbuGC+LT91uR9sJNErHjm2jKYA16dC0Du+9EedQK8yssxUKsLnzJlrM0SbOAMhyInjPcDr4DEAnHhdjy6QXQdufoBW4KYr93RMsHXvokWLZMf1Oq0gRtDRaSkiYS+6zXkMQejIwwK0wnihBwOisCH5nt271fIo+Rzr5pZmH6L/1J9/ytY++qjd/5tf2w4Zzv6uXCygKRYHZUwfsJ27XrRuGeOuxAT0QrIB/vx5831le6GJbWUYWqh3Q52KCktSyZmzzYmIM2fN8p5ves2Z78PcsXKJs/OFjp7JI1zNosDWlhbvie/r65XhkPf9v696x1X2PimFt11xhf34Rz/2U/IwUGmJMV91sgPMSKMnjG4WSlLRMR7peQKX1atXiabz3B+UMJiYC18ajGEeMb88wRcBcPSDEMQYaipIuM2y2bPnWJ+MxSbxE7silIdKwr3oPDZr5kxf0OLzCrO3A1gkRyMwicNjBYQliLrgS0KPexpb3HsPdQacZsZ8zMUnLfURpKIatMxTxgDr7um37Tt22tKTFtvCeXOsUKBuZ4aagKFyBIrvwHA00C/QVv4xtlVZ3Csni9SDsvDBqCP6KcqA3Lltmxq1+23O3Pm+tz30i6QmM/jioyyj4DNc7/GjDN2pGmE0qC5xgFZaD1KxRTKu6KlEnhCtsRGji5EPySFGlOTJO6wRYY9uOlboDDl2QEhLD1bV6ErbfyYecX73O9GTi9MYgzx13tSrUmBkh0sx0+9kBx/hol5kfOJ7QwtJdtjAUJo+fYZd+bYr7YMf/KC95S1vUbkv9hOj6b1kYT4GKAaTz9k+OlB+TRBGNhCNzgAM6j7ZN3Tq0dnD6Cq613lBN25MZiMG1D+XxccKQBMhRecWtlntFdkAptgsTOFlUwemn7m/AqBjki1OLLdvRtP2aIfXhA3M5a0MGaOtrW2+LRS9ywUZvGyEz2pbVqt/8pOfsMfWrvWdSdav2+hExChmmJEhBAzun/3s54nJJLhQ4IODJVXGgl1y6SV+BCgr4FmUhSGUY49FZZFCYo/sO9es8Z5x5nyvOGuFLT91mfLR46fgvbT7Jaq2DZUGvWccg33J4sU2lwWbKjg35PUuwmD58uW+oJO9wHfv2ePTSlhUBxwNahOGpEzolaVcwAu/3/zmN9bZ2emrf9MhNunI3Oefe14t7U2iSWJ2t4U8HVEXgys9HvVApQbmSdCfsuwU711jeJPGIVjyxxB3R0e7lMFcNx6gEbKPqU8s0oAmgC/Y0P+xAyOlTCOL+gHPuHDLwnzYTrcLZFidseJs1ak9vs0XmwoUJTR36Zn96VkfMW/2zDSlAjql13yfWNq7EK5CC4+KPmmBvMn5ZFplGsNCMok6Up8ZUkDCAKTgnqoN9vfaUxuflDJotBmz5qpBPzXDefIDZZ0Uf1Y0+kGOZEgmgBxSgPRil1XmrO1A6SFnkOMoSY+meK4MSZBnxWMkkTrHWhGmbp2w8AS958HHAEA4GZs5GdHCmy1wKfbkoIG4I7GJgFESFggSbygdO+3xsmDAhfDw0+SEqL9ZXjESmYrIlEvsAGQCPMV2vjfe+B376U9/ameeeYZ95CMfthkzp8uQyqnRRRND8vWY6dRBNyQ94+WruoJjPQd1BAddWIyPreFTOBUXeUtxo6O8zh2LAI4Zbthp0MdPe4Q+lTT6jnHNQVvYhaeffpp34tJZCHEIg340Vmr38j5WIAfjeGsLRQvIOBtdK3y+tujYqxYtp7OxVR77qj61aZP3pPZkc6052GDe3Lm+hzZTStatf9KNP1p45553ns/XZr9sjkRet26d75u9ZctmCfCl9la1jFnljPhB0NNrziK/p5562jZsfNoefuhhby1eKqP8RBnbtIpWr1plq1ada/fcc7cb3Bs2bPDN9n9z//1+cuVFMjqJRy8U6dDzi2OqBTj87oEHXPGwZRGrh0HbD/A5QoDgoiy41vZcj66cUdlhRlqOrHr+9re/bd///vd9C0R2h/nc5z5nn/70/26f+cxn1MD5meMMcZGb0JjixqB0ITDJAXpQEVMrOOUXmgRt3M9xk2DX/axZs32++rkrV/rCHdYSbNq0UbyxXo3BR53XTj/tdGtTQ5HiJkV6JLzHijTkM4rkkxBSjzS7A/npbgJRxK9RolyDp7IHG5Jg27plq8/pZ3umnTt3+l73jB/5e4rD0Oe5qy/wAyruu/deX2i87ol19ti6DW6Iv+Wyy2zRgjnJzsIAcWUsfswc8GYJSnBBIHMNXhgNfDvCuAYNDqlH0IRKUCpalxrcW5593roOdNtzzzxjzz+zxTq7evzoYCia5rALT8XvOdBlDz/4gOTcfJs6fZbzyyFbBR4hCEU/GmrxB6AAZEj2U+YvD4yAXsnGjWpIXP+1r/lJofDFU09t8rMJmC7CTk4Y0cwKYEred7/7Xbvhm9+0e+66S/L0OZe/yOjZs2f5zlQcmx/fPBIQeAfuPNcCfAJPHE6+AoRhJPRJ9+14frtt2/mS6swue/7Zrba/s98GioMyJJl2I2NS8Rnx7d/Tac++sMvXL3V1vmRrH35I75e8Xcdc937J7BjZPVIAXrV40inDMzQibHiEt6pnFTj8QXOTUQ/idXV1+jkVd9xxh+sd9CmG9vve/37fHYzTjyF3YOny4Mii/KrgJpDyOFol1j5Sx6JOuT91SRd0B50VHNv+1FNPqeHZ61MlGIV3OmSJYHgS17+j62ienKwQfEFdwBAOwxi+GcYh6pEe3S555ln7XmaTsEHG5i1bfCcS8Gad3CJGBaW7sHNIG0e62D5HB1USkO+xZO9oqL/mve/59FBdgy08canNmTHF6oeKkjaDcqzJhzHSXF+Gk1+QEnr80Qdtw6Yt1j1YtYaCWrhNDTZjarsb2TNmzPJ5ert27bSXXnzRt31iTg7z+TgyHCJifLOoka2zOOKUKz3MF190oe8YghB/csOT9lsZ1zPnLbCBUtn27tphL+3c5krvmms/IKP9FJvWkrf2Qs6aOzps8ws7raJCGji4z/bseN53GFm5+kK78KJLrK3QZFvVILjnvt/Yrr1dNmPOPDFD1V6QcHj88cdsxvQZdtnll/suKPSs00L1nSmcPGIAv04MwLQIMnoKcPRYn3LKKT6UGwwdApIy4Z758VRuehXYLJ6DBOil37Bhox+d/MIL22z69Gm+F/CC+XP9XZLS656GG9sgOVxPxsA48+KdIwXwBdNjwJcFFuQdqK3o9NhWVfmpvBwt3aJG1JNqsHH4EiMge/awv3bZF0kyT7+jvU1x0zAWp+nVGvPAEUT3VYGe44fVcG1SI3Hu/Pk2QwYODQZHRsAv6sCfoA3moPjlgBqeT8qgelSNjr2d+3xxSovosHDBAqWVt7zep7e/XbRr6ZhqG57aYgNqWHftfckO7t9n5194sb3l7VfblCnZ/ttujsI1zGeVAlEWmIaRPgwNs5txAoRaGAWUV9QHgB4SGg/wP+XrQ9ngrri18YBKedB7HYf6e23Lc9vs/ofW2uatz7oiYK4pSpLjpr39pvjuKmXr7tpnv/3t/bbirJW2+OTlvhVi7TSSMevPBEDg50aNIHCGFiwkZwcm9kjn+Gyy6PpemWaKHVdOtsNAIO4tt9zsdORsBA7mQE7Pn7/Azlyxwo99Z+oI+uAnivf4Yxw01uk9nvv2daoMBu1UGeVnnrnCOjraDqHGyL3uKBf41X2zELzHkV+CBjjuoQ38AG4sYOOeEU7CAvALWsb7GA693QfdaF6vBsjenn5raO3w7UTbmhutuZHRQk6kVfzSoG1ev87WYVxs322DubxPZ1w4b5ZNaeWEUenVqmju5TRcQycUwIt6BK7QBBxZw8QoNaMX7J1Nh1caDcQI8rfcFsCHDis63dat3+BbQvJMQ+yKt11p56481xqbmEIDLf01v+ebqbwnKcB70gEOumC30HjkgJ6FJ5zgaxcICF7CYR2k0VRxrdOx6ju10fA4cOCgXXrpZbKL5niSpI/zd5OP0+VQyCIdAqP9XvbShAC8giyhvBk5j/3V8UcOe4+98A/a0FnKMeZs8cdoMnOw0cGs+eBof4xt5rIzQlif2ZjgRpqs6UtPRwrb1wbgCU0YxYAep556ahYyNtRfd937Pl2u1tvcBYtswexpUpmy0EsDNlhW61bVLd+QhsP2qyX7/Nan7aUd26y5faqdsGS5TZ89z9pbmmx6R6stEkPSy0aPD4vyOFWJKSEQePGJi/3AmyVLTraTl55sL2x7wRUjQ1Fk8PLLL3NjnOHL/RLc9EI++OhaO+u81al3qdivvM20d1z1Tltx9tnW0qpCUQurpVBvZ6w4y6bOlVFeVqty93ZrqBTtvFWr7Yor32nTZfzTa/WCCvtAT5+dtPxU65AiHZASwWjjm8w1Yy/IRYsWeoEX2Ws7erf1bWcCOa5vtgvmpbLSW00LEiEW00QiXrQqUQLQmL1uEQ6c7oawxLFwa8XZ59jpp5/hiwJJh/0vwcmZWD9R7X2Xgixt/Qzfx7M7veh+cZ1AB9CIwNgGT3rNoAEOcOWoeCgy5tRidLZ1TLETZRjQkwCvYUhQIVjMy9ZVNKzYphLgE0lI+KPTpZbek9FxONGDDzxgeeE3Z95cmyljGwTId+DgZSbauDEox7SAg2q0YBwVZRS0ywiYM2+eTZ850+fzT5XhyJXeq+a2dt96s0/GU2/fgAzoITv91OX2oY/+sS98QcVw4nQ9x+qKfvR7oazqMLTdj3x60HCe36gDhzCEKHvqCz0tgTPljBFF/UGYs80nQLyoW4CX7RALY2W4Dw7Yc9t3yeDeYfNVZ5YuOcnaZBSxGHueZCKLi73HS3WE+bcNMpSYDnfyaWfYrHkL07x1+Mfxxo2d9zfbBQ24B3hGRjBkS71hQRsGM4fVkGHmj/IGa144Wt9pxDuVId/ijXdRkKy5Yceo8y+4UEbHIivIkKLdVmgqKJkh0b8o/uj1RqyfILj6fDtNMofRzDQtS/Tji/rxvA0/JFqNuOGLrmPj+Hpd0CSAZ/gHhY/BDY4cLw/utfSLdz3vuiceC68fkwHdLLxPOGWZtc+cJf+SLZQxNQPDI99gRdGuUY3XjWvX2kB3r7XPmm9zFp3kUypmqOHBouLWthYvA3rDKQF6u+ObE+UCr7ind5Kex9jGMRaWh1xF/yNHAaYVHZRxzXShPXv3uO657rrrXI/So43OSmVIpRHN6cwRRFq42rxMJpcM5pRXdCuLHFl34A1VNdx9b/ka0Ft6LzXmoBcVCnoySg4NOdG5udCapQ/qI99y5++/VjdMvhq/iXEAOCJLmJGAPJguO4pOQDe0FYeREKjjdMiAMwj6evv8XXgMO4MOEGw+ptigR/QFva/ITrt0BYJHCazNy2RyAJ2i7P5GedMx+kpQ97Xrv1ztLdfbeRe9xS48e5nlqwOirFw1b0PMO6tnIYxUqVyu3C/p3Of+PXVtVlJYo5RPfanXW4AsLmtpaRNxIX7ZBTW9xBwuwkJHhBbKvMy8ahlNnItPGIsYKxL6PLNnN/u5fv4r19vnvvp1W3HuapvenNc3MKL0bl2TNTU3WFsdtaJbWrfR+qzJeofqLD94wFoqvdYoBreGdqsqP3XsByuFKiSsmJOQY0hYBRytbCoY5ctQPCvna6Gm7CcUOMYeh/HM9koxHDsaotBhZgyNQ5SGcl6pyhhRJYDGzShJASe6oSjz+aRsHRIpDg9ZZXA4EgQR0OMGTehF+eQnP+m914FrAiomAl2uptZyOiTGd68qPUO89Fiq0D0MFoAnMTgAWtgxrQa6QjcMkMkIQ8Ll61/5mrWrwbry/FV26plnuAFMUUVxhSuJNxrF9z5FRnVTDGOlSlnNavEOQq1BvC+8G3VPfEYHGO5uaGq2/Qf7vNHdIKugIMOz0NKqZ31fznu2oTcgmnLnY0I1fikHbx5QfsH38AbrL+ilo1HFHvOjIYQkW7KpFS+Pkvii3rpLOQn/QtZ4kGJoaJZRlPgEMwOXk78Ve6yrc7+1zphv1tSY/OXeXCxfGyAHXMa6QZ2Aw53Y//jSyy63s9T4RgECsDl5xoj0vgX4XOXGTisYgqzliCFvRhTpua0qDuxDOPGaG6VoVXeoX74Dga4NLKQXRfrEc8ikmTI0A4JGXN0E97JI5eEwAfwCMD2GHjoMKmRJNNoPB05X4ZujYaI8F2VM9Sqfvf3Cr73NmmVgDyrb4iZpIrPGAelJ6cOKdFOPHKeNtqiOtbB7T2NOnKd6pz9JF/87kkB9QFf/8z//sxsMbHZAJ4XLVspHBU6DvaI84xeLnylrl51yMa0APxq/+CGfcdRNL2XxlvOUf3WSgjLKFCnwpjPu3276N+8sZPeM885bmeIcAqP4V+DGt1xZdkc+Xzi8/hjT++XpHfrMS0eOgmtZj/fd7/ruREwnY/rtMEQ2dWW3L0aTmZfNyBn1pyQ/OinafDQ56W7nPYWhf7mHV6JRBy+hs+j4maxAvWGdHPKEDmYWCr8S5KgozK9i67v+ooRoXx8azKVxaqWkSuZKCqlMa8Z7NTBGzAqNDb5Qkt6g9rZWnxDPscYMSbHIsUnh6F5axJQHrUO22GIvzlYVFsMInhEVgLf4VVm71VrGIC/ofXYncUNYeWlrbZZh3iCDXelhIBUl1IZKHlaQ8YgiaWxpVj7TMARopI/qhXxTMv4VF5MC3FBKHNOez9NLmrifY4hpLIy41HJ9sx2CC+HPPRBGAYA/dEmGYdkd4ZQLeMC80BvmDsGHf1OB05yaVb4qKKHHHuUsSADXVCbCTzTik4FvGg4acVmgOxe6R8AFvlyhBfjiX0sP+JEFWvT4hiQjDnSAJ/1Uq452r7yZPS2gh090Ek/jqANsxo9LW1xNXPm/bqf6xDWd7MiBK3IqVLimLKNwUPWCebast/A5cAixTPATH8UHLzBqAj0xoGiM6IUUD6Uq197eam0thcRbza1uZDtrysFDYpmMTjCSzHel7WnIjTe/kO+oF1E2jnsWDm/QiOcKT+AXfMM9V+oRzgFylGQiCd8CC75kFHHUdF71Ax7px3oSCBu9rx/4TIhPmz7Nd9uAFuAPLWj8eBlkeZlIB46jXQC4MvrFFf5ABvhR6xlQ7tDM5anoAF7I5gKyFL0g3iE9eImrqov8GnyKIOD6Q/G5+mJK8Uy9DEv4hcWjADRSNmtcKrsR+ZJ4Bt4ZjdsbcbV8EA4coAUNAcIdtywOwHPIleAt/NAb9QU1VGh0CJ/m5oJNn9bheR7o7fe6g16hkwNdIyWZyZ4662gvWIv0GEDjvyx8xWEZXQ7N80Q48ArcAPRI0CNwdyTBReWJ7GBon13JiIs/9/RM0hsOntAIQIai/72jYkTQ+nvRCzw5HfWGKj7kdUJPvi7N600WnhbR19KPWFT/xDPwALQDV07GBhT9MG4S65ZRrrYOBX5RT6AP8sOFoMIhIgYzPEA4NhdypKW5xQ1tbJPEQ4luNEaQHehfrugi9C+dskBtPiabA8An2ZGpvF8JcrTcgDjUBeK5FhVEBYJoCUYqD0SBviUJbsIR0hBpOIrScGGnV6vycyNGFbZUhqkR2qrAbBsVRFUaO7a9YI89ttYX6fR0d9vda9b4yv/+3h4JLVo5dRJW+p5kgddjDAjBEJVYVwSYSlo3tKZTT1uahyVHLzeKQC+6MeqF7tl0IBbowgAwQzgi1T6/2c7zoitlUftc66BflA1XKkA8E8674Jh5OZASYX6IDW2oDOSVuUO/EU4/w26s8IlywcxU7PADuIKv7rJtJgUIwUyYeTQ59kimAvvph9BPYU4zhaEUcJBLr7lBwn18Z7I6hyjj8NdteIUfdc0RdT+qyAhvEZs76EPDA5q4Qab6A3mcl0QbH2KNJHT1FHmmrqGQ9eel4H7pJl1SHsbL1QLP0bAk3+FGC0QA/5en4wi6bGKdJ1vYNTaqoaVglxMSTcMpDH9aPpJFJE0vGDRiKkBM1TkSDgA/AHrUAjQIg8HR5R3hFkC5e29let3pIQ9e9F5vZLv3bsv5t4gnxzup3vGcaOvbAerPO1bwy77DazhomO6VB/4iIHPuP44u8lzrgOCNoNkwboKIN/pdPxuCetSQ9ByYN4oGdPTUO//DGdQb0lRoTrIIHadbRoV8MQPpyhG5LMVDzNpvHCkHrshVaII+TuXKtLOSNyKRpYo47NJ7iiKIegV4WqIFI4QwCT2Wg2U15Co0RFL4pHWOgIpJ915GAnjZecTRh04jeCbnr8il5+H3oEnm53HGcsPhr8Xxzlj+E+MCQpbQQRNyhvBhfpFhxlRF1hMx0oU/epYj/kviBXgr0oNGTls9ui0Izygs1c202Jiw2nxMNhcyAjywwV4NcrRoIRKEaMynXlKlkIStHAmxITuJipvcv1oalMARgf0xKTdFVHIiIIZf1gviLlNXlA17OxMNI5vYej0VlNIms+zfiXBn/veVb7vCe1uYg0tR1tOdzbcx/JVkHVIMvwxZ0vMvKQ4GFaffeYGRPj3bunLLSB4ock8GPNuC7OI3oBrOldMEOOiQDOSUE8ohnrniiBOOdwDCoVm8V5tWipFwTIZBikNHkhuUekbPklS4Qx7GcLV5nigHLtHqHY1nOPx9L3ghROMLSGWXChrFn4xJwlAQCieEmwxImeErrv4Vf3/yOugRhjNYpN+Ed6KLrl7A7p1Az3W8R0UQULfpHScNxxv6+jv1kgsIytT4JjxRLtGNgSB5eUM68uNWJ9/y++QibDwcOHENHgCcz+UHEB49JIDLJUHwB/GcZnqWR3JOQ1+pIv7JWYsUCUvDwZkp/fEl/wQ/4CjfNLLgtw6RxyPlQlaDG/IgnqPuDMsxilZogDoAPVIvZEYTQUUKtVam1NIYwBsl6gao00L0UrAfYqE/3nPnuiG9w+uHOHTJyzxH8BkPR74dL/++0hfU0gRegU4RP4B3wg/nz3rHK0B9Gv2S1NXjkK+ZyEvuuGyCFiTgZBNtFNYgIzv4CRqlTh6WFSd+PBIOfIIugT8ADtAF+gBRhgkfAToj4yv9Z9cRPIjofnEVzsOdGuCr34g76Zz4kfwl2iT8nUfkCAOH4KdD6JfhyzPhtbQDlPQruFF5mKQOnLgmfOqGje3A2XkffDOeSHJXNIEWio8fjnfjPkFKfxiyMA/WD2GT3UEDriM4HR7q/suXPl8tVhtt1aVvs1MXz7fWSo81Vgasv9pgxSrDzwhUJSzx0GQysku91tUvQdM62yr5VivkSpYf6vcWTWO+yYoDg56BvAQZkh2jF6UNA/sWWlmmMKRJk7miKG72xi6XimluuJ4HKnXWo8ZC27QZ1p6XXU0L2WQA5Ap6q96alc9Cpdv66xqsv3GKDeQaLV/qtvriARss6Rv5qZKL7das2I0y/oeUZlmGSZmKgwDA4hSRfE6QwpjDnQo6TT0IFlDs7O7NBwqN0QC2z2IhAov43va2t/nCvihQHPdAPMPcMU8TJYljjiWOMkAZMgdXkb1iYFyBPwoYYeIY6ifheii+QQfAQ2s9JgjAlwWSzMVlcdNf/MVfOM6UEwANaGBhXIIr8cGzlmaHgNMPbHXVP1d3RFMY7zktMEId68kHQ6Wy/eh737eCFP1pK860k09bLiNajTPh440N1Tu4mJ63nDzrRC+3hR1HBQvHcnXIiuKLwUrZF8mpxWvN4qN61eMhvUMvxuBg0aeZ5RoLiq86rARyis/JeHyBUyWpO6qZvojSExc4PRXmNB5HoGwoe3g8BD7AM3O2t27d6ttLrVy50he/MZ2B8i8Lt1CEvN+g/DbWFf160FrtYFWyrClvhaFeCZ+DVsy1WrUw1RupmFF5xWse6nE3JFmzv9pm/bk2K9SVrCC5WBVNqsoL85onGqAJcgNADvjJjeJ/HPMJqTfnnrfKzlxxlrW0tokeQko0YY2KUw+jyP0kWYUDo52MVOJ8ZFDpM8Um54Ymc3MVlQ4a8UK1nLax89EByfiK4qNqeQdeYGg96qLzXuIMOfgx3QeMN78ErwDwSchGdm1iByf4+9prr3XjwfMnF7IiruFfR30owuOqNw0VG1S506PdXCc6VXPW11CVHlI9kKIp9FatdVDxGoes1IScFQ+Vc9agsIGG5JQhxRW9U/YmFAJPaMMV2nzta1/zxWvsNMFCV4olyQvqcaIHnXK6IQGXtdFgIj3SGjY8vQNAQfoWVHRKKkwxPb3JCeABjwgDyX2mXt255k6fu82CQPaEplEaAD2oM+hS6Of0yDDmj05ISV+5JHOcCoegPkyZGjicXwAJJHk30QC+2CUcAPinf/qnvp7MG/HC3cte9Qp9E2Ue9QZauK/oQxrscEQjNzahqMUu7nnPAZ4ZTY5JBODNGiF0zoIFC+yaa67JQsaGus/9589WH3tyq9W3TrPZHQXrqOuX8pBh29Ai47TZlS7zsDr37pZ/yaa3NbqRfaDSbN2S760SPBjcvQcOGDuXNBdakpAWwYqDZT8tMrX882LMqoTvoBOwpGueuX3MyZZHWUq9rYX5xXpXBbe/b8CGGpstly9YdaDHqn0HjcWQA0MNVpKAarFea1Vei1J8A83TrHsoJ+O7zzrqS9ZYaFe8gh3slXAsDliblGxzW4vt7++zsr6FQmEeOFcWczDcRfEytxfjk3mbMEYq8ri++QCTlWUUsMKV1fIoAXYRYV4c+QkDgyE/nmF0nlGwKDSAOKRRKleEB/MwaW3nrFHhpMc7PqwswRlKtxaoHrXguOOlGy5HQlaSZ1a9w9QIv0svvdRxoLJDM3CmsjMvm8OW6I1lSLtRfAdt9h/Yr4acGoWZcPDKjyAQQuCEgeBz+bOhLxooGNrJ2D4C2vA1AHXksUcelTFdb/NOWGiz58+zQfFxvfDG2KZBiWGAEd1E3RNNysU0rxhBx+4JqgCyAmSwNjZ4D11RRhaLKRGbDTKu3QhRWhR5nypd7+CQ0qp3A5WFhJy6qK8onF06SsnYhq7ukzloOY4AvwePw/OUF3UBR72IXWvYVQEBSPnzDiN4YfR5PaoOWkOl3/I5GU7NM63YOMOK/b0ypnutI19R473V9g/Su89CHanNSsnaqr3Wbn3WL1nT1zTTenPtasj3WVNlQJjS0yluUfpHAhD80AIc2SYzep+QI+xsxE4ic+bOc1lMvcfBG+yegZEd8oB3kIEYyQMDRZePPt1PDTA/7EYVJhkSFfFTv2jDwSWqVwpD5rDvNDWmIS8jVI73lbDnEY6IK++PGNu48ecXyhq6cAUvGiHcc+YA25LBEzTKQnYGHxFnNGAktrV0eGdSX7nP6pqkg0RjGxAti0PW2yADjf6lUtVm1bXL2K63wfp+K+UldxgFVrxyX9nUVLPBpgZralbdKom2EHSCAT5xA0kOAF/OImCBJNuyoW8Y1h8UrpQdRiiGNWUcnVNuUDofZfnHT7fy9XtG1CAjBjhGOvOd2aa0nvlakxGUd/h8SDzs8mWoZFs2b/YdeVj8Nm/e3GFjO/iE+gINQByawmOpF5z6BDHgZfCNMo5rBi+zJHk+nB88iRtfefpaANyQt+xGwnaINMjoxAgZQxj6lZ3c0CPoXehAuSOTkQMF8TsMQR0kPXjOMYOO+uM5dcgmXkPG6OflJJpEAG7IEeyQSy65xD72sY9lIWND3aOPPlTd/Pwu6+qTUJDSaLMBq/QftLpCmwRKu/Uzl0stcIRjs5rh+UrRDhbFXB1zrLcsYS2lVagve89ZFcUkoUxP9qAKIK1QT4IXocvCAwSbV1A5dD19Gex5C0uyFRs9Zy786/M2WJe3Sk6qvfeA1Q32W3vHdAk6GZR6q6nSa4Vqn5Uamqy7rllGd5M1K++FqgxRmQOD1WYrVxqsQd9t4nv61pCUplSKf1/lqcJNBewFLsPK5wopwzADfJ12LMFNDMC0GAdcKUiA09jIXxjYrAAmHIEAwKQ4/ICo9BiMKD8QV7A7erJ9kYfoy9H29HpSJo6vYETxJaBq88jVQ3QzcdQYAfJHzx0O3NidxXvfRCvCoAv7ZXP4AnhSeVmIBM0YHQja0WjkCj8HUfToFRtDG2OCZ2jCbgsFxXd+nIRAtgb7ZeQpw76YTQ3VroMH3Ngmx27ICD83uHkGZfx07xilCmCyG1UnFCiaoEqIO6h6DOvQo10aZJcbmZJ1mNiqT7qvrwwqXd6S4SvlKdUt4xUDnNoFF6Ue3nTPF8cPKH+MBPg9jOdaowFhTkOMBcPwB2EIQxpp8ErwS0HINtYNqhHSJ/khqZef6nO1W6oyIIf6rbfaZHQ75NXoqEMuSP60yNjuyA1YT1Gyrn2+9dS1qjHfbY0y2lkoPigaplo5seCNB9EF3LjHiIwdjKAHjv3AnS8k7wCMa+Qsa2HgiyT7krGNQeWLKYWP24LQjfqhsuYRA4p3aVzBD9DT5b1kNesmkDvIe75Fo5c8EQdwjtB9cAfcyHXEZ3z5BQjaMPLhDUjxCT2X8AS9ueQPV8tHOIB8e95Vj3JVNTSllyoNFSvVSS9KxjRWZTjT4dNYZ73Sg1UZ260DklEVNWqaJEcaBiSL1LArq1Giv5L4pF9FAL3ywrUhkWVCIXCCJlGHaIBQX6gr1K20taNoIZIg9wMoKcjhd5lshG5OYxS6/HjfZarr16RLkw2hv9rEJhVIrmFriA8ADGvqDboDmjQ10bHjQS5foBmdWFwZNYYSMVULY9sXC3Pa6HDjYnRBx/MY/oeQiHCcPJ12E08/ypAyRv9CD2yS0MXwD2Eeh/ogWuFPI4V8wweup+VHRythIQsgKPwU7/v0HaGH/mWf7kY1frxxN0kBXJAjzDzA2EaWvBLUdXcfqB7okQKhFSujt9FKVpFiqWN/7XxBBEqGXV7GTJ5FHorTNygh2zJFBq0YTgo2rxpJLwmEpUULwzqzUZGdiPjR2lM870lxOie2kcCGWX2vVzzFqETIidAllLZisRcuB0o0t7RJoSlU8Rqk8OmdqkgJMOWlIsZmqNf9/EAeduBQYalg61WYUo8+zM7gd5IWpKxvIiB4kh+9fqnnjzlKHiV+JgSgM8wbDBkCEX8EGMAQjOdVONVChBOf9+mNcKVIK0M4JAZHECJMRBPFgZFJOxRL+n05vsOkqLlOJJC/EOhBGyo9uEbe8WcqSQhA6MFWQ2lUAFol4ehDnU47vZch5k+iFw0U0g560/hLqU8+gHfpRSC/1DGM574B1VvuhT/5DgeCCvZ3UgiKkl+a0MJX9IG+eb1LAyymfsGLTPeiXlaliKr0PJAO00h4JzOq3UTSs6jraQLpSsj4AmUe/M894DQgH3KUHbwQ8aJOoRwiDsCOIw0calMqSn5I1uRkWOs95F/dUFGyrd63GfVFt/oW0yXydCzUia9oiRSmmNSB1ZWLkjH0Xor/oMkRqCBRN+IenJET8QwwzYOGNrwBeB1QfqkTDuAoegVNgRFUKHRc0JtfyjvxFd9A5qMsoRfrAOAfwHf1Ie0sNecI/SfOCL+Ru3QdXwg5gcxA8TtfK7/wBD103IMD+APBJ/GcrqoraoTmZWyr3WlllbmPlukhL91Tzit98ROtrQap0oJ0kuVVFnWlNMWtKmNb8Srik5IMUoztBn0DlTrRUIsnfFOLq5el8pZXueEfBeIXxfG/LK4XnIBnpzHMIEjTFLM6Kb+UvkccTm/yAfmUzBD+4AWPAPAG4KTI8MYPnBJfJZoR5vRySEamG49eS4DDIT6G/+E6eBDaRwBG8Ep6FlxpcAAhL/wqfxZcQ0CfwQAh9Z/ogI1ScjkUdHS+0BX9zL3TX3/QFx7k3Ba3CScpQAvKngY8e7G/GtQJ8Qx1p4vA0c+eRiN6aNih740HRIrASG5G3yXgOfmFggdqczX6jeNwHP5rgDeL70dq1uHg1WNMLiC/OIR8gpRznkYkCTDin8Ii/GjB9Di8+UDzInGGYJg5gov0kPnV+ByH43Ac/isBN7az++NwHI7DcTgOx+E4HIfjcByOwzhCjHEch+NwHI7DcTgOx+E4HIfjcBzGFcz+f/jusxNQwHrUAAAAAElFTkSuQmCC;" vertex="1" parent="1">
          <mxGeometry x="1070" y="560" width="301" height="35" as="geometry" />
        </mxCell>
        <mxCell id="gWoi3BRGaY5b3Moeq6lq-1797" value="" style="shape=image;verticalLabelPosition=bottom;labelBackgroundColor=#ffffff;verticalAlign=top;aspect=fixed;imageAspect=0;image=data:image/png,iVBORw0KGgoAAAANSUhEUgAAApkAAACXCAYAAABeOkALAAAAAXNSR0IArs4c6QAAAARnQU1BAACxjwv8YQUAAAAJcEhZcwAADsMAAA7DAcdvqGQAAEDrSURBVHhe7d0HQBTntgfw/xZYwIpGUYqoGNTYr8YSK8WWGBO5aiyxKxhjLIkNJSQSu0ZjLzE3iZEQr94YubFE1GBFBWMjKoIKUgVFlLbA7p43M7v0onl3NS6e33vc7LRvZnbOd+bszOwqIwEYY4wxxhgzIrnhv4wxxhhjjBkNF5mMMcYYY8zouMhkjDHGGGNGx0UmY4wxxhgzOi4yGWOMMcaY0XGRyRhjjDHGjI6LTMYYY4wxZnRP9TuZMpnM8IoxxhhjjD1vpviz5k9dZJrizrHni+OEMcYYMz5TPb/y7XLGGGOMMWZ0XGQyxhhjjDGj4yKTMcYYY4wZXaV5JjN132yM3J6Axs0cYW2ejdgrV5FcrTn+0bgGtBkJuHk9BW2998C3l8qwBDM2fibz5aRLPolNC9dg3400aGGJBp3fwvsTveDeSCFM1eLmXl/4bT2LRLJGixG+WDemtX5BxhhjT8VUz6+VpMjUIuKr6fjx9S/wWVdryHPPYk6bHtjR5T+I/tfbsIAOSb9MwRepS7BxfC3DMszYuMh8iWWex6K+ffHZ+Sb4/OJZfNpCLDANtHfwZe8+uDDpGH4Y7oAiUxhjjD0FUz2/Vprb5VbdxsKzs1BgGoaLk6PegKkY8RqEcpMxZnRVOmLe1nnoYn4ZP2w5jgzDaJEuJRiX7ebjy/e4wGSMsZdJ5fwJo1JXMg2093DtXCRSpUpThir2LVA/6xqi9CMgq+qAzvUzcS4ytZxiVIaqDm3R1rGKYVikxb1r5xCZ30YVOzjVTMWt+GxI75i8FuzqZSMhIX+4NpwaEe7cMqxDVgX2bdqhoXkiwoJCoW7hjm4NrcQpQE4ywk+dRqTMCZ06tYRtlfwSOhdJ4WGISiu9lfLaTmhEd3DLsD3CTsGhbVtIm5wVi8uXYpCuXzEsbFtKjxMY65MGX8l82WXi+Iz26P1NHSw69zvmvKYUxmlxe90orGiwEVvetdbPJlDHnsXJhAZw7WCJm8ePI8qiDXq90QjVDNMlZcZ/0f4mg0yuhJW1PRq/aoca4uryqRNx5UwIbjyujTY9uqFpLYXQ/a8V9m2x37Woj6xrUQX5oKpDK9TPDC/oy8X6Thn+anuyKvZoUT8L16LylxHab+2IvOvXkJRbot/IzFC3+etwriXusxqJV84g5MZj1BbyWremtfTFem4SwsOiUDoNyFHbuTOa1xTev4qm1y2n7VJ5sg3aNTRHYlgQQtUt4NpCg2vXklB6k+vCuYEGkYbcJhNynXPn5qiDZFw/exMPhKPr2LYNHIT0ln77DI6H3ka6ZSN07NkFTjX0WSg3KRxhUWn696eoknlTen+L5OKnyO1d2zpKr4XAQnL4KZyOlMGpUye0tK0i5cBix7OAsJ4G7dC2wZNycmlPjvF03D5zHKG302HZqCN6dnGC+DZok2MRr8tBXGgYYjS2aO/SDc415cW2TyaTQ2llDfvGr8JOCvyS56G/Fmu1a1fBw/uG973MWC58r3MfxuBmVAIe5WqFfC+MkFujSccWqFe0/zGj4yuZpkCmgirrN8zt54Ix26IAlRnMZUnYNdUNLuO247bcQphFhewgb/R3nYYfb6UgJUX4S/wdSwa5Ytz225BblOxJMqhU2Qjy7g+XMdsQJbOAykKBG5veh0u/OTjwWAlLCzkiNo+Cy1uf4qha2Ib8dbiMxTd3FLCQP0Dg9DcxYOQQePgeRpbQ1RN+nYU3h61BuLIOFGF+cG3ZG18cf2BIgAooKBb+n6/BySRxG2/hx2mu6OcdhCxzsX3D9oz9GrcUVrDM32SlBSxyT2LhQBcM++oKyMLsJQsA9mxVQXfvz+FR7Sy+/DQACWKwasLhf9oWw/vW1M+iS8W57RPRrWV3TNj0Pfze6gkPLy8M7d4aXSb/Rzi5SjOVHf8nxBNmYX9zneaPiDtXEbR5NDq+9g7WX86RVqEO/w5z5/sj0rwOlFdXon+bPlhyJl3q22qp343ClptCO2YqmD/ej9l9XDB6ayRkQn8ot++UQWwv67e56OcyBtuihA9tZuaQJe3CVDcXKVfIhPyiUqmF9vrBZdQW3BTyj5nKHI/3z0Yfl9HYKhQ5qqz/YuGsHfjjbiIub5sAt1EbEJpwF5d3zccXex+KO4Pv5s6Hf6Q56iivYmX/Nuiz5IxQnggUClCsPz5fcxJJYp669SOmufaDd1A2hNU8eXp5bYt5MjsI3v1dMPabO1AI+etB4DT0HzASQzx8sW/PQsza8QfuJl7GtgluGLUhFAl3L2PX/C/wy6N0hK0eCZde72PLLQXE1UD4X03wMnwamCxskxoXVgnHbnYILJ0aQ3ZkOl5v74VAQ3GkUBBi/T/HmpNJUu699eM0uPbzRlB28bz5tdC2ZdGDI26zWthmIbeP2nJT/96bP8b+OX3hMnqrUBTqLzXoEn7FrDeHYU24EnUUYfBza4neXxyXiimZygI5R30Kc/+9ONz4/St8sjpEKEsriskSKozxn/Uxrr6AVcK2zg6xhFNjGY5Mfx3tvfbhgRZ4HPgBOg/5GrG1GsLqwqfo1rwfvrqqkeItO2i+tH3+EXdwNWgzRnd8De+svyxsn9gvsvDbXCHWDOchM3MZknZNhZvLOGy/LYdFBbG2OEhdLJZVJWJZf95Lw4mFrmjcVmjvzE1c/+EjuLrPRGCaeB6V9pyx0sQrmU/ylLO9OHJCaHYzM7IZF0jZhlEF1IfJy96CXNcnkEYcTg8hnw5WpHLfSIlaaQ5hFi9ysHSjDQn5Iw6Rp70luW9MJMOYEtR02MuBLF3Xk34RLUWv7kEWjlPoqDp/uCdZNppKv0vD+etwpfXCApqoDTTN7xyp83IoR9gobVIAvdegKy29IW2hIJ2OftiEVI0m06HHhlGUST/7+FKw2J42gTa4WZKD12HK1onTSm5PETlnaFYzS+q85IZ+/43I5OKEPQMaurG6F1U3a0JTgh5T9ok5NPTzi5RrmCrR3qEve6ioZqfZdDBejMI0OruwK9VQNqapQgcpL/7Nhfg/+EgMcEN8u23Qx7fmBi3pZEHOn5wW+tA1Wu7Sj1bfNiybd5F825pRFfcNFCPMqz7kqe938YaOoT5Ik+wsyG1DgqFv69u2cl1Xuu+UQezH9hb6fixKD/GhDlYqKVfot0BNhzztyULoi4WrnER2Fvr8ooneR7tPZQpj8yjcrz1ZtlpAoXnCYM5F2vffCLq23IX6r75laCuPLvq2JbMq7rRB3BlR5s/k4xss9XttwgZys3Qgr8OGJCMqd7pGarvf6tuFbX/WrrBtMU86WEp5UquJog0f+dE5dR7l5ORQ9L7dpN/kcPJrb0mtFoQKS4ubvI/+G6UhbeL3NOiVqtR9ZX6OyaDDCz+j/4q5Ky+MfNpUoz6b9e+3NmYN9bRwpClHCrc582cf8g0WM7eWEja4kaWDF+XvUtG8WYqUp8XcHl9wLA+K731+nGiTKOC9BtR1aWHuSz86lV5VNaLJhsRaKvdr79Gvu4/SowpisjAnF1FmjHej6oYYzwtbQK2r9qHN0klHSzFrhPODcL4IEg5U6ncLaPFF8R0VN3kTuZubk8s6/T6pD08usn1CX1vSiSycP6HTOeLcYuzaC3k/P3bTKcSnA1mp3GmjsJ7isdahRKxFlRHLnxbEsr45f/KoZkYdvvhTev9Sv36TLG3GUWCpkyx7Fkz1/PoSXsiSSZedhf8HNLfhv2A7Yqyri2OF/zOQJpahvPECaVKR6dI6FIqCK4Ulp0uvKQtxpwPgtzgSnUe3h0ppDnOFDsmBO3BA0wytHPOfYKuKroP7wS5+L34KVhvGyaEU2i/SYon15/9PSYb9LGsSY/8zBZp6LYKX8118O38p1u+MQ9dRrWBmmKqngspMjmrt+sDFVozxGug0cyberhWPkJM3kVBe/MftxS5D/OeHti47GeH7tmBvZH10faMJ5HGHcOBiEs5v+ww+Pj7w+XwPctw+hGeP+sgT07RCLixr6P8S8bXwJy9MhdK0whkqJrWl71Oa2/5YsD0G1tWFoSLLK+SF80gMy4irVDgOxOCuhluxRZm3xcA3zXHowEUknv8an4n74vM59uS44UPPHqgv7YxAroRCIa5PPygqsuryp+tipbaTzm8rbFvtWqRtcXsJWXGnEeC3GJFdxqCDSglzc3M4DhyMsjd5IAY4CTmv3nuYNdYB57esQ3CmMCH1EE4p3NBbvE+sbI95B8Oxc3x13A3+Fis3BSNRmwu12rA/ArlSAXGTCxV/74oNFyOs2/De5pPed5lcysO65EDsOKBBs1aOBc8GV+36T/Szi8fen4IhRVaRZSXyunhrcC9kVRCTYk4u3Pp8ZcX4DLxtHSfEeBTQ3huH/tyJ8dXuIvjbldgUnAhNrhri22A98nPMaauEJv0WDq76HtebjcWUd+vpzyX526fLRnL4PmzZG4n6Xd9AE8NFXf3+ivNocNt/AbbHWCM/HCuMtQFO0kzS8sIoMZZ9tkcXj2WL1ujUtgqiTx3FTf1NA2laYc9hrLSXNz4oDccXL8WtQYswopGynKT1jOkyEHd2F3bsPYWr0WI2lkYiLjoO6qxMZBW5D6N0bAg7WQYePdIYxgi7IPzl9/+yaGJ+w8p50zD+3W7o6O6JLaGPDFMYe4asumD2wvdQ64+VWPmgH95rmH9iroBVMzgLJ/C8HOGD11PGv+bOAaz4bCGWbQ7C49YD0MtJBVlyMu5r68Flph8WLVok/S1btQarP/WAUP8YFozGwZW++iJ0oT/+SC9dImhiDv+lvkNpwVi89BYGLRqBRsrSnVITfRArfcVizgcL/f9AGassTZeM5Pta1HOZAT/DvixatgprVn8Kj4KdkbJABfmrnOkFbc+soG0dMuLOYteOvTh1NRr5GerJVOg89SP0fPAjVv8Yg9jAi6g+oIswVk+XfBRLxs/Aj6kd4Tl7AJyUJd4MaZMrTGz4beU8TBv/Lrp1dIfnllAUHh0Nog+uhK9UOC+E/4XHBQWgLi4aceosZBYPLDjayZDx6JGwZHmePidXSIjxplKMi+WsDslHF2P8jB+R2tETs4Uizyx/Q5VKKHUPcHLbUmwNrQb34QPQtnaRU7XmDg6s+AwLl21G0OPWGNDLCapiZ3JCWvBiLL01CItGNEIZ4Vih/Fh+94sSsaxsiVn7jmFZ7Y3o9porpuyJquA9Y0zvJS0ytYjd44d9zt5Y0Mv67ykwRQobdPl4K5b0ScDaaUtxJkscKYddA1uYZUYgPLJIF87ORo6iCVq2zP8ak0568L74FaLilI59MXvZOvzr5wCMlf+I6VM34BpnBfbMyVHnXR/M6PYqBk/2gE05WYaKPsSuTUdGpgUaOzvB8aniX4jvRm9i3oqN2BkUgrVNf8XEd7xxrIYNXsk9g58CooRenk+HxAsXcDd/hLIh+s82FKGfjcQ/qpXOAErHPqX7TmGDxWljscdvH5znL0Av67KzibJhf8z20xdzn438B8pYZWlyG9i8kouQnwIQVWTdusQLuJC/M7pcoaSoIAuUN93Q9pmK2oYCNl0+xtYlfZDw1UdYIiSoIkesQnLHUfj4vZo4usYbX1y3w7st9ZfadCm78cHby0GT1mG+RwtYlxEbuicnNvSdvQzr/vUzAsbK8eP0qdhQcHCUaNh/tqFw/gwj24t3qfTkdg1ga5aJiPDIIsVRNrJzFGjSsmXhF0RLedqcXFrJGE+XYtwRD3dPxoDlgOf6+fBoUcavoshrw+WT7Qjc/ymsvxuC3rOOQDo9iJSN8Oa8Fdi4Mwgha5vi14nvwPto/qVFMRz/A799zpi/oBfKCcfy5cey93z0qlXGwnQfl/6IgUXbMZjn4SS824xVrJIWmbnIFXJBjjrXMFyUBhodQd7uAywa1li6baLV6oRkoBNORQYaDXRCcijMD1pohWVIV+RjbAl5GrENYR7DsPTfosPia5229Dpgg6EL56Bz7AZMXxEGtXBIbAZNxKC6fyJgWzDSpJl1SL14BQ+7T8LoVnI8uHEFdx7dRUxmddSRLjoI2y5tX+HZQiNuj+G1eJjl4i07uXjbyLAvhTvHmJGk49qv/vjlUiISjn+P4HozMMulnK9mCzGbcT+54MSpvXsGYTQI499+pfz47zEJo1rpqw+N2GelVyIzWFkK4x+n4qHNW/DoChz3fgtDFu/BqctXcebfi7D8RB5sxL4i9Tud0Af0S+b3bV3hiAr6Thmk9uRo98FiDDf8+HzJXCG1V7Tva4XXxbZBT6vVL1ewbrk9Bog7c2I+3hqyGHtOXcbVM//GouUnkFcnDTeu3MGjuzHIrF5Hf/tXWFbMKVIa0D2oeHp+28e9S7etf6OkPCmmCZuhCzGn812sn74CYdlF84awr2J7wnylVYX7jA/QIeYgEp3fhfTWCHSJ4biekoEH9x4JS2fh5pEQ3NHkITc3D6m3L+DKnUe4G5OJ6vrEJrQtvB/ieyUNCaT32/BaIBeOi3Q7XDo4+m0ueiyl3G547+U2gzBxUF38GbANwfrAgi71Iq4+7I5Jo1vpCyaNeGz0+12ogpwsxOToVuXdCSsrxj2EGK+JxPDrSMl4gHuPhD3LuokjIXegyRPOW3kJuBGZWri/FvVQr5YO927fwmNxJ6Tt008SmVlZCtH/GKkP8qRhKdbk7fDB4uH691yKNfEYSZMLlIo1UZFYHtZYfDdKxLIuET/P8MT23BHYuOl91BeXF9ov2FbGyiIUG0/0lLO9EDRxp+mHRYPIyUxGCru+NP/rIxSZ/0x5ThQdXj2CmpnJqXaPj2nn+QSKOLSKhjmbkcK2H/nuuSTMcphWj2hGZop61HvBLrqQGEGHVg0jZzMF2fbzpT2XUg2N5cuhqPw26r5B4719ydd3AU3sVpcUFq+Rx2xx2Ie8etYXhlvR2HVH6UZE/jrqUz/f3fTHfTVdWdadqls2pSFLDlCUhij90hYa3sKZXKYsp41rfclzgi/tj80TdjCClr+hIiu7NjRs03XSaO/Txd0LqHddBalajKa1R65TxOHVNKKZGSkbuNGUuXNoyuBu1L7XBNr0ewgFrh1HrS0VVMdlDvmfv2d4QN44TClO2DOQc44WtFaRTG5Ftj29KSi5nOiSvqimoqrO7jTBZy1t37KIvIZOoPXnCvtWmfEfJ37dQOhv+fHt4EJec7xpluc71LXrIJq3J5Kkr7REB9JcFztSyWTCtlQl58EbKCxD7P6F/a73/J8oLKFI3+77Ke2+lFTYdom+szk0Tdquograk9emHh/7U2jR9oRcsftiYXuK+r1p/k9hlBBxiFYNcxa2wZb6frqbLqaK75GW4k9/Q1M6VSdFtQ7ktX4XheR/S0gTTYFzXclOJeyLTC68Z4Npg7Azmojl9IbKiuzaDKNN1zWkvX+Rdi/oTXUVKmoxeh0dPrK0wulHxS9GSW27lGq7ME8qqL64H3/cJ/WVZdStuiU1HbKYDogJShtPp7+ZQp2qK6haBy9avyuk4ItNBbRJ9PWYibTnoWFYlHOJvnS3IaWiOtm3e5M+2bGBRtmakXX7cbR4WidSWdlRm2Gb6Fqelu5f3E0Legt5VNWCRhfNm8oG5DZlLs2ZMpi6te9FEzaHUlrRbe49n34KM+T2pmJu70uf7r6kX3/6JdoyvAU5u0yh5RvXkq/nBPLdHyt9kaVk7v/jfvEdKj8my1BujOvfjJxLX5JbXSUpqttTuzc/oR0bRpGduTW1n7CNjgXvorVLF9OqTdtozTQXcnr1LVp68qFh+5oL++9ALl5zyHuWJ73TtSsNmreHInMK+4W8dg/62D+0WKz1891Dl4rGWucaxWKtZCyfLxHLey78Qfu9XaiuVUuaeTSVHlzcRd69hXOamTO9t+ogRRR+b4s9I6Z6fq2cv5NZWegykXQnDllV7eFoU6XgYXVtWjwSdDZwqPVi3azgOGG6zCTEpFmigV2NgngtRZeIjX2csPzVfbjq1wT3smqioaO14eduiign/p+ODurku7inqAeH2hZlX4U0ITp1Mu7eU6CeQ21YSDujRVp8AnQ2Dig7DTxpeqHSbRvJw734dH0NePu6otjXTbQZSIx9CEt7B9QUtk2TloJ0qzqwVqQhPkEHG4daz/g2rA6ZSXcQl1UV9o42qPJXAutpY/IpYlybkYjYh5awd6gp7K8GaSnpsKqTP08OUmOikUK14OBQB1Z/LfhZJWSq51cuMpnRcJywp1JwAg5E5Gb3gi+EsEpAl4bLgb/gRs3mUO3fhhvvb8W8Ni/Wh+HngmOcGZmpnl9N/QM+Y8zEaB/fQkyyBukJd6Ufn2aViPoYVk2ciGFufbHYbBS8XsYCU8AxzpgeX8lkRsNxwp5IexvHdh7D7VwCCfFi3sgF77s5/cVb4ezFpUXi2UCcyW2Dfj0ao7yvfVVqHOPsGTDV8ysXmcxoOE4YY4wx4zPV8yvfLmeMMcYYY0bHRSZjjDHGGDM6LjIZY4wxxpjRcZHJGGOMMcaMjotMxhhjjDFmdFxkMsYYY4wxo+MikzHGGGOMGR0XmYwxxhhjzOi4yGSMMcYYY0bH/+IPMxoxThhjjDFmfKZYh3GRyYyG44QZA8cRe9Y4xpipMdWY5dvljDHGGGPM6LjIZIwxxhhjRsdFJmOMMcYYMzouMhljjDHGmNFxkcmYqcm4ht9P3EKWYVB37zx+O5cEnWGYscoi49rvOHGrINJx7/xvOJfEkc7+B5w/nysuMhkzMZob/pgxcBiWhwppUhcP/ynvYsz6MwVJk7HKQYMb/tPx9rDl0Ie6P6a8Owbrz3Cks/8/MX9Of5vz5/PCP2HEjIbj5DnRPcCp9XOx4jjQrIkC93P+AU/fSehcu3J8ZuQ4Yvl0D05h/dwVOI5maKK4j5x/eMJ3Umf8r6HOMfYSM9H8aaoxy0UmMxrTjxMt7l07h8hU/Y0TWRV7tKifhWtRqfpbKbKqcGhVH5nhkdDPIkMV+xaon3UNUfnLVHVA11aWiI3XIScuFGExGti2d0E355qQa+/h2rmiy7ZBu4bmSAwLQqi6Bdy7WCK62PSSbduiiXlSxdvXti0cq0iTTVZlzDfae9dwLjL/OFWBfYv6yLoWVXCsqzq0Rdv8A5eTjPBTpxEpc0KnTi1hW6Xw5KeOPYuTCQ3g2sESN48fR5RFG/R6oxGqIQPRFy8jLhNQ1HZGp+Z1Cm9T6R7h9h/hSFAD5vVeQ4cm1sK0dNw+cxyht9Nh2agjenZxQg1pgVwkhYchKk0fY0XJazuhEd3BLUP8lYy3J+9jK9TPDC+I32LLZ8Xi8qUYpBvmtbCpC4uUe9BvRjn9rK2j9Pr/g89pf03RYyuTyaG0soZ941dhV0MpTi2WNys8rrYt8Y/GNYT4y0XK9bM4cyUZVi16wrVlHSjEWQxyksNx6nQkZE6d0KmlLaQu8IT86fJqFq7+hfgztfxpqjH7YpfujD1XMqhUagR594PLqC24KVPBTGWOx/tno4/LaGy9CViYqaDK+g1z+7lgzLYoyCzMYC5Lwq6pbnAZtx23hGXwOBAfdB6Cr2NroaHVBXzarTn6fXUVGmGaKjsI8990wdhv7kBhIceDwGnoP2Akhnj44nB20baFBFui7dtyS2H7svDbXGH7xmxDlMwCZuYyJO2aCjeXcdh+Ww4LMeezF45MpYI6yBv9XEZhy00hzoQ4Mn+8H3P6umD0VvFYiwdOh4RfZ+HNYWsQrhROumF+wsm3N744/gA6XSrObZ+Ibi27Y8Km7+H3Vk94eHlhaPfW6DL5Z8RplbCQ38LXY3uhe++52P9Iv16R5to6DOvWE4NXhEKrMoNcfQGrhBibHWIJp8YyHJn+Otp7BeKBVpxbAQXFwv/zNTiZlIKUlFv4cZor+nkHIVvYB5UqW+gf/eEy9mvcUljBski85e9j/xL7OLtP/j6a6Zef/2bp5ZUWsMg9iYUDXTDsqyvQWVSBZQX97LbcwrAgex7EY5stHlvXafCPuIOrQZsxuuNreGf9JeRIebOcuChxXEk4jvLcKOyaMRafHc1CPbuH+NajJXp+flr42CPQJeDXWW9i2JpwKOsoEObnipa9v8DxB0IZaMif3v3LyZ8ac2T9NlfoY2OwLUooaM3MIUvahaluLhi3/bawuBh/FedPFedP4xMq4yd6ytnYS65yxImaDnnak4XreorXGsYcnER2Fm60Pl5jGHGYvOwtyHV9AkmzpIeQTwcrUrlvpARxltTvaMHii5QnTtMm0SZ3czJ3WadvT1h2cgMr/bKaKNrwkR+dU+dRTk6JttfFl2o7URqhpsNe9mTpuo4S9DNQiE8HslK500b9DCavsuYb9SFPsrdwFeLIcJzUB8nT3pLcNujjSJsUQO816EpLbxhiQTi2Rz9sQqpGk+nQY2FQe4e+7KGimp1m00EpFtPo7MKuVF3ZmKYeyxamJ9CWqd2pfc3q5L7hDulbyaGQL4ZSh8YW1M73khSTeWELqHXVPrRZihctxazpSRaOUygoWyctQZRJP/v4UrBaeCm0ucHNkhy8DguRJxLjz0GIv/WG+CtO3EcHy+L7OMnOomAfpeUnNyCrgvgtIucMzWpmSZ2X3ND3nQr62f8a6nxO++vUh72EY+tGG6QDp6EbSzqTpfMndDpHmlp+XBQ5rhrh/yLWuJLj4J2ULM2XQydnv0ZVWy+g83laSgp4jxp0XUqFXeAoTX1VRY0mHySxC0gx4WBZbv4Ut1HqY4aNSA/xoQ5WKnLfmGjoD/r8KeZ3/Symkz9NNWb5SiZjJSjkMunWRMG/xC6+Fv7kBb3FMF2cQXMb/gu2I8a6ujhWv4z1SHw+py2UmnTcOrgK319vhrFT3kU9aXlxHkJW3GkE+C1GZJcx6CB8fDY3z79Z9IS2Bfrp0gy47b8A22OsUV0YlEaxF5dCXnhsJfrjKJMCS4fkwB04oGmGVo75sVAVXQf3g138XvwUrBaGVVCZyVGtXR+42Irz1ECnmTPxtnUcQk5FCdEAyOu8janvvYKTmzYjNEcYkfk7Dud2gZu1ft0iZXtvHPpzJ8ZXu4vgb1diU3AitLlqqMXTmEQOpUJREG+SIsElvSwyXEyF+6hX/vLCfPr/GBiWFYfL6QvsOco/ZrpsJIfvw5ZfIlGvaxc0MVz9e6rjqovF/r3nULdNO9SSQsIc3VZcwcMLi/C6PBmBOw5A06wVCrtAV/yznx3i9+6C1AWktirIn1K86Nenue2PBdtjYF0iOepjSpqD8+dzUNjzGWMFNNEHsdLXBz4+Pljo/wfSC07ARVAaghcvxa1BizCikVKfSCVKKJU6PDi5DUu3hqKa+3AMaFu7SGfTISPuLHbt2ItTV6ORaRhbTLlt5yOkBS/G0luDsGhEIyg5QZoGTTQOrvSV4spnoT8uPNY/HybGRFx0HNRZmcjKHyVQOjaEnSwDjx6JJWQZrJqhqXBGzsuRzsDCmdIS3T6ahH9Ef4+1+1Lw4OAZmPXuDsti8SEUtEcXY/yMH5Ha0ROzBzhBWSK+xcGKTrqamN+wct40jH+3Gzq6e2JLaNH788X38Y8yOo8m5nD5y5f0xL7AnhvNHRxY8RkWLtuMoEetMKCnE1RFqohScXE+zTDFQJeClAcaZKQ/hvR0hkQh5EvhP7o4RMepkZWZJURoPiUcHe0gy3iEwi7w5PxJacFYvPQWBi0agUZlJkfOn88LF5mMlUHZsD9m+y3CokWL8NnIf6BaqSSkReweP+xzno8FvazLOPHJUdvlE2wP3I9Prb/DkN6zcKTgNzIUsOnyMbYu6YOErz7CklI/ySK0/Z8vKmhbmCP2P/Db54z5C3rBmhOk6VA2RP/ZflJcLfpsJNpXz0/Bctg1sIVZZgTCI4sUlNnZyFE0QcuWhc8gknTnzECbjvRMCzR+VThRGkYpmk7AR28R/rtuJdZfqY2Br5sbpoh0SNk9GQOWA57r58OjhfgloJJ0yBVWYWYYKovSsS9mL1uHf/0cgLHyHzF96gZcy68aSuzjP0p3HmH5PqWXL7OOflI/Y8+VshHenLcCG3cGIWRtM+z3fBfeR8VL5nol42LGRxvwZ55hokheD/XqApG/7MJZw+cikSbiBE7F10MDWzNkRoSjeBfIgaJJSxR2gdL5s9jHGG0s9vjtg/P8BehVTnLUxu7h/PmccJHJWAkajQ6k0xZ+mtYKr0kHbcEIDTQ6grzdB1g8vJH0rUitMJGEecRZshITkFrwMd0C9erVgu7ebdySrlrplxXrBJuhCzGn812sn74CYQUJN7/tyWW2LZK2T94OHywejkb6GYTtI+gKto+9kDSaEnGkFV4Lx00aIYfNoIkYVPdPBGwLhv76jw6pF6/gYfdJGN0qv4TUIeN+csFv+mnvnkEYeWD827WEIQ20eUIsyOrAY/ooOJzfipB676C5UhivEWNOPBXrkBh+HSkZD3DvkRCkWTdxJOQONHm5yM1Lxe0LV3Dn0V3EZFZHHekOpBB3YrwK/SGfFH+G1+J2y8XHS+TCf8XBCvdRr/zl9fMWFtEV9zP2nGnEPGN4LTCzshQ+iDxG6gN9FflUx1Vui4FDXVA1ahPGjVyOfWfO4/eAlZix6QZq29li0MRBqPtnALYFG66A6lJx8epDdJ80CvouUE7+zDasWYo/Odp9sBjD9clRv+4iyZHz53MmHPgnesrZ2EvO9OMkh6IOr6YRzcxIUb83zf8pjBIiDtGqYc5kprClvp/+my4l3aTDq0dQMzM51e7xMfmHJlDEoVU0zFlYxrYf+e6+SNr7obRr7VJavGoTbVszjVycXqW3lp6khzlR0rLNzRRUv58v7f7jPqmvLKNu1S2p6ZAldOBaRMVt7wkt2D557R70sX9ose3r57uHLqW+2A+vP43KmG9yog7T6hHNhONUn3rP/4nCEiLo0Kph1FSIBdu+n9LuS6nSfOmXttDwFs7kMmU5bVzrS54TfGl/rPQ1GMOXcFRU1dmdJvispe1bFpHX0Am0/txDYdp9CguYS27O3WnGD+fpXt4tWjdkLPknxdHJrROpfVU51eg8lb45HU/Zl74kt7pKUlS3p3ZvfkI7NowiWzNraj9uMU3rpCIruzY0bNN10ghtXty9gHrXVZCqxWhad/QGRRjiT9nAjabMnUNTBnej9r0m0ObQtHL30blgH5P08du89PKbfg+hwLXjqLWlguq4zKGdp87RoQr7wiXK/5rS/wef0/6agmOrdCAXrznkPcuT3unalQbN20OROYV580nH1f/8PdJq4ujAfBeyU8lIJlNS7fae5B9hiHFKp0tbhlMLZxeasnwjrfX1pAm++0nqAob82azM/LmYfjl6UL+N8trU42N/Ci0af+L8Fw3xV0H+vPgC509TjVn+nUxmNBwnxeWkxiA6hVDLwQF1rKTLQuwpvPRxpMtE0p04ZFW1h6NNFekKnkSXiI19nLD81X246tcE97JqoqGjNYreDH9a2oxExD60hL1DTSihQVpKOqzqWEORFo8EnQ0cauVfOa2cOFf9/XSZSbj7QAXbBqVjWJx2Jy4LVe0dYVOFc6fIVGOWi0xmNBwnzBg4jspRUGQGInKzO1SG0eyv4xhjpsZUY5afyWSMMROgfXwLMckapCfcNfxwOmOMvdj4SiYzGo4TZgwcR2XQ3saxncdwO5dAwvtj3sgF77s5Fd5KZ38JxxgzNaYas1xkMqPhOGHGwHHEnjWOMWZqTDVm+XY5Y4wxxhgzuqe+kskYY4wxxv4epnglk2+XM6PhOGHGwHHEnjWOMWZqTDVm+XY5Y4wxxhgzOi4yGWOMMcaY0VWS2+W5uHlwK74NOIjz8XLYtmoDx6r650hJk4l7UdcRazce360ZivpcVj8zpnE5PxNX/jUTH36xG6EJBJv2gzBnzRp80KlmkU9cOiTvnYURX56D9E/iyszRcvL32PJ+A/DTyc+eKd0W0iXvxawRX+KcPlBg3nIyvt/8PhpIwfQIYVu9seacOeqZ3ccj58lYMbMbanEO+tuZaq6avXo1pnS2fkKu+g5b33fUT2aVhqneLq9Uz2Sm/eCBBuOvYNzRa1jbo/AfqtLG/owP5t/CJ9/NRlP+YblnxhTiJOv4HAxcLsOwKb1R//7v2OC7CkFaD/j/4Y/3bAypO/ciFnpMx+VqdtK/qiJTNsbgJV/Aw4Grg+fBdJJpLi4u9MD0y9Vgpw8UNB68BF94OAhFgA7x/iPQY2Mr/HJiAVrJbmFtn94IHvk79ox35N+3/JuZcq7aeWEnhtUzRFBZuWqxHzwacIRVNqZaZIob/URPOdvfLvvXCVTfzImmHc8xjMmXQ5cOBdFdjWGQPRMvfpxkU9CaL+l0hmFQkH5kCjkpq9PggPyRWkre5UVjt0YLr9jfwVTyjTZ5F3mN3UrRZQVKzhma09yKuiyLJH3a0VL8Rneq0ngqHcuWRrC/kanmqiZmQq76Md0whnPVy8RU8mJJlevSTLn3Ms3Rpq87HAo+3OUgOfwo9u49hisJmdAZxkrUsTgbdA4JWi0eXj+GX/57BnfSDdMKlL+8Lu0WQk+fwqlTJf5OX0RMhmGm3BRcP7EPu/YEITxF/+/Dae9dw5ki80aL8+YmImx/IE5FZ0nziNJvn8Gvu3YiIPA0bj0qtuXC/A8REx6KkNOnDes9gz+TNIaJDLCA+4yP8UYVw6CgascOaK40g6WFITg04di8cgd2+fSF60hfBFxJKx4fjEk0CN+8Cjt2+aCv60j4BlxBWpFAyb34C369VQXOze0NVy3lqP1ac9jEHcZ/w3KlMYyVj3MVqxxeuvt/uoRfMevNYVgTrkQdRRj8XFui9xcnkKrTIfXcdkzs1hLdJ2zC935voaeHF7yGdkfrLpPxc7y++5a9/HFheWky5Eo5MkK+xMzVp5GUkoKk4KXwcB2NrZFyWCiFk0/ULswY+xmOZtWD3cNvMahlT3x+WqhiVSpkB3mjv8tYfHNHAQv5AwRO648BI4fAw/cwsqDGhVX94TI7BJZOjSE7Mh2vt/dCoGHFaScWwrVxW4zbfho3r/+Aj1zdMTMwDWbm/BRhRTS3o5H4Sl8M7GEhDeseZ6Px4E8wsY8dEg8swcgub2DSrmjwPxXNitE9Rnbjf+KTiX1gl3gAS0Z2wRuTdiHaEChZ164hGnVQr15hilW88gqsKQYREZmGMYw9vafNVXxZgb1QDFc0K/SUs/3tsveXd7vcQJtEAe81oK5LbxhuYRGlH/2Qmpg3osmHHgtDWrrzZQ9S1exEsw/GS/OknV1IXasrqfHU30ldzvKvqvKXN8jcQ36Lz1Oe8FIdNJkcLF1pfbyWSBNBa1wdafDOZP3tjZyTNKt5VWq94Dzl6oR5D3vp503QkiZqA33kd47UeTmUI64sL4x82lSjPpsTpWW1MWuop4UjTTmiFobSyd+jGpl1+ILCxZWmfk39LW1oXODzvS9nKnFSKJNOfNKR3L78UzpWJeXFB5FPj1dIaT2Avo7hG1LPi8nFUV48Bfn0oFeU1jTg6xihf2operWQR8w6kF94fqYQuv+1RfS6mTn1XM23N/9uppurwinXMKaoorlqW3RhzLHKw/RiVu+lupKpSw7EjgMaNGtV+OB91a6D0c8uDnt/CoZaGFapzCCv1g59XGyleWp0momZb1sjLuQkbiaUt3x8wfKS3GworGoUuXsvg0wY0MXux95zddGmXS39JWTzblh59SEuLHodZuLM4kyUhbjTAfBbHIkuYzpApTSHubgyZXvMOxiOneOr4W7wt1i5KRiJ2lyo1WLsWaB1p7aoEn0KR2/mb4WwzpfuOvVfo764FmviJ2DTtNegNIwrSmnrjoUBqzHQLBi/BD2E+E4zVorSFu4LA7B6oBmCfwnCQ2GUhYVK6IIknhX08wgoJxd5Qr9UWVm9fLeQ2P8kP1dt/KgFzAzjiiqaq/YJuYqxF8XLVWTGRSNOnYXMrCJPrigd0dBOhoxHj8q5zWCFZk2FojIvB1nlLO9YYvnciHigcf6zWIV0KSl4oMlA+uMiN18VyuIFji4DcWd3YcfeU7gaXfy2mi75KBaPn4EfUzvCc/YAOCnzT2BKtJy1D8eW1cbm7i3gOmUPbvE9kwrpUn7DovU5mLZxIpzLqjAN5LaDMKSnJbIyCp+LZawUuS0GDekJy6wMZOnkqNmoIergMR4+LMwV2ocPkIZX0LBhdcMYxp6saK5qWlaFaVCQqzI5V7EXx0tVZMrtGsDWLBMR4ZFFCspsZOco0KRlS+ifdBEQFblqpUV6eiYsGjvDyfFpltfizvls2LQvaK2AvF491EUkftl1tvCqp9BSxIlTiM2vOxU26PLxVizpk4CvPlqCM4Z8oUvZjQ/eXg54rsd8jxawLnXkCPcv/YEYi7YY4+0hFKCG0ay09FCs8/0d7Rd+il5P/NFCLbSyRni9o41hmLGyabUyNHq9I8RfwlJ1dkO3GkmIvPnYMBV4fOsOUmp0g1tH8cdmGHsKnKuYiatcRWaOGjmUg5ycsm9sym0GYeKguvgzYBuC0/TjdKkXceVhD0wa3argiqIu4z6S8z8Mau/iTBjBY/zbeKWc5a8+7F64fOZZ/Jz8Kt7M/9V3rU6oWfOEbRLWbzsQQ12qImrTOIxcvg9nzv+OgJUzsOlGbUg/e6bRQCcVuDYYunAOOt9dj+krwqSCVJcYjuspGXhw75GQSrJw80gI7mjykJubh7S0x0j8eQY8t+di+IaNeL+eDloSEg5/W6W09DCsmbgICT0HoH58KM6eDcGpQ99h3vQN0mT1nZM4EHIXwuGSPDq/CQdqz8L0Tubl/3gBe/mo7+DkgRDcLQwUbDpQG7Omd4L0C70138HU8Y1wOSgIqdIMqTh25DKcvT7GO9bSCMYq9v/MVdP4Qwx7kegfzazYU872N8qhqCNbybuvHSlkSnIc4EvfBEcXfDmnmPRLtGV4C3J2mULLN64lX88J5Ls/ruC37BI2uJGqqjO5T/Chtdu30CKvoTRh/Tl6KE0XlLl8rLC8lu4Fr6bxXZtT1zE+5OvrK/3N+edrZCG3pm4z/CnsgZY0cQdovosdqWQykilrU3tPf4rIE/Yg6jCtHtGMzBT1qZ/vbvrjvpquLOtG1S2b0pAlBygq6xJ96W5DSkV1sm/3Jn2yYwONsjUj6/bjaNm6j8mlrhW1nHmUHjy4SLu83amewoyc31tFByPELwY9Hy98nORdpjVudYUYkS5UF/7JzKnT4mviDBS+ohtVE95jZ9f3aNT7w2ns3J30Z6Z+cfZ8vPj5RoiU8BXUvbqCqju70nuj3qfhY+fSzpKBkh5Kqz1cadRKf/rebzj1HfM1hfNvZL4QTDpXLfpTnIFz1UvGFPJiWSrVv/jz9HTITLqDuKyqsHe0QZWChyd1SNzYB07LX8W+q35oci8LNRs6wrrwHw8yKGv5XJyd2wOztHOxdU4fNH2lCpRyYc7cdNyLOIKvPloDs5XHsOh18XqnuPxdPFDZokHpxsunzUBi7ENY2jugptCMJi0F6VZ1yti+v0fliJMsxF8OQ0SaJRxbtYNTLX7u4HkzlTjKir+MsIg0WDq2QjunWmV+eUz8pwHvXryEeItX0b55Xf1VTva341zFTI2pxuxLWmSWp7DIDIzcDPe/dNdBgwtbtiJt9IdwszKMKkJ9YjsCao7FuNaVNxG8PHHCniWOI/ascYwxU8NFZmWgTcMp7x5w/boRtvz5M8bblvx+OKsIJ25mDBxH7FnjGGOmhotMk6fF7WM7cex2rrCvMsjMG8HlfTc4cZ351DhxM2PgOGLPGscYMzVcZLKXHscJMwaOI/ascYwxU2OqMVu5fsKIMcYYY4y9ELjIZIwxxhhjRsdFJmOMMcYYMzouMhljjDHGmNFxkckYY4wxxoyOi0zGGGOMMWZ0XGQyxhhjjDGj4yKTMcYYY4wZHReZjDHGGGPM6LjIZIwxxhhjRsdFJmOMMcYYMzouMhljjDHGmNFxkckYY4wxxoyOi0zGGGOMMWZ0XGQyxhhjjDGj4yKTMcYYY4wZHReZjDHGGGPM6GQkMLwul0wmM7xijDHGGGPP21OUay+cpy4yTXHn2PPFccKMgeOIPWscY8zUmGrM8u1yxhhjjDFmdFxkMsYYY4wxo6uEt8szEXXwG2z+Tzh0r9RD7VesodLKUKdOMi5njcKqqc2hMMzJjMt04kSH5L2zMOLLc8gWN1dmjpaTv8fW9xsIA5m48q+Z+PCL3QhNINi0H4Q5a9bgg041+RPZc2KKt4XSj3+CN965iY9j/otxNQwjBbmJp7Fj5WKsjR2EY7snoY5hPPt7mUSMaS5j7ciP8O84rWGEnrzuOzi5d45hiL0s+Hb5i0Abi8DpLuiz+B76L9qMNcv84DNrJmaOao5rWzfjl+uJ0BhmZS+x3MvY/E0Yqjs0QIMGDeDY6A307WkvTco6vhAf77HGmPW78Z+tH+K1uB8x3eMD7L6nk6YzVkraEXw2Yzsi1IbhfFkROBH8B07/dgSR6Rw/7K/JCdmBgKhX0KpzN3Tv3l36e906BZHm4odhxkxDJbqSqcXNTW+h67wszD3/O2Y1K369UnN9Bd5e3hD/+W4orAzjmHGZRpzokPLvKZiT5o1vPB1LfMpS48hXm2A16WO8UUU/JuPoh2jbbyfa/ZCAfw+rAv6dhWfPpD6x61JxcNZkHK8mw79WZmF5YvErmWJMBY5zxHuJfrh7yIuvZL4gXvwYU+P0tzthNmQiOlY1jEI69o7tjF39TuKnYbUM49jLwlSvZFaeIjPjV0xs9i4CWmxA1MHJqF/yGq3uHn7+4Rx6jRkIffdUI/HKGYTceIzabXqgW9Na+tvouUkID4tCWqkLD3LUdmoEunMLqYZpsqoOaNvWEYZ6pEBuynWcPXMFyVYt0NO1JeootLh37RwiDQvKqtijTbuGME8MQ1CoGi3cu6GhVPmm4/aZ4wi9nQ7LRh3Rs4sTahTZj9yHMbgZlYBHuVrheAgj5NZo0rEF6in10/9uJhEnmivw69IZy2IaoGPvofCa+zHea13BrfD0b/F23dmwDojD9+9acJH5HJhOMtUhOXAGpl0Zhc2tN6LZsAdYVqrIzMHBSU74Z+yniOEi84VhkifsjH0Y3zkAvU8EYHgtzkQvG1MtMivN7fKc84dwNEmOxu3bo05ZeyW3gUd+gakOx3dz58M/0hx1lFexsn8b9FlyRijxBAoFKNYfn685iaSUFKTc+hHTXPvBOygbKpUKquwgePd3wdivb0FhZYni9V0uonbNwNjPjiKrnh0efjsILXt+jtPpMmHZbAR594fL2G9wR2EB+YNATOs/ACOHeMD3cBZIfQGr+rlgdoglnBrLcGT662jvFWgoaNNwYqErnNqOw/YzN3H9h4/g6j4TgWlmMOdc85foHmej8eBPMLGPHRIPLMHILm9g0q5oFH/qqZDmdjQSX+mLgT24wGTF6ZL2wu/fDvCe/TosDeMYe1Yyfw/E+RYD0deaMxEzIUJl/ERPOdvf6vF3A8lCZkbdV90mjWFc2TR0bbkL9Vt9m/Kk4Ty66NuWzKq404YYrTSGMn8mH99gUgsvtQkbyM3SgbwOi0MC9WHycrAk1/UJZJi7gCZiDbk6DqadyfopOSdnUfOqrWnBeXFNajrs5UCWruspQauhqA0fkd85NeXl5EjbmxfmQ62r9qHNieKyWopZ05MsHKfQEXG16f7kUc2MOviFS/Omft2fLG3GUWC2MPACMYU4KSovPoh8erxCSusB9HX+sS8mk0580pHcvvzTECvseTCJONLG0U8fjKF1f+ojI3vfGKprOYD+lSYNFqGmAxPtyLLvFko2jGF/P1PLVUQZ9OuEljTU/z7pDGPYy8X0Ylav0lzJVFioYCb8V63O1o8ojy4Whw5cRNL5bfjcxwc+Pp9jT44bPvTsgfp54nEUyJVQKIp/WpQVDMqkK1qFw/l0iN2/F+fqtkG7Wvq31bzbSlx9eAGLXtdf7xSXoaw4nA7ww+LILhjTQQWlubl0m17Zfh4O/bkT46vdRfC3K7EpOBHaXDXU4iZZtEantlUQffoobuZITUmNVZqD9zdR2rpjYcBqDDQLxi9BD2E4+gXUF9diTfwEbJr2Wokr1uzlpkWMvx+C2vlgymscGew5yDqBfeebY2DfWnxHhZmUSlOnqFq1QTOlkPwjIlBhmalLRvJ9Leq5zMTCRYuwSPxbtgprVn8KD6f8LwuJ5Ya+mCybBjG/rcS8aePxbreOcPfcgtBHOqSkPIAmIx2Pi9x7VSiLn4R0GXE4u2sH9p66iuhMw0iJDslHF2P8jB+R2tETswc4QZlf9ShbYta+Y1j2ymZ0e80VU/bc4m/JG4ncdhCG9LREVkaWYYyeLuU3LFqfg2kbJ8KZ6whWlPBB9eft3+Ebz1ehFD7sic9KWb7zPZKzf8X4mubosiyi3McvGPv/yDq5D+eavYN+/CwmMzGV50pm02EY3bMaHhwOQGBSWT8XIhSBoWcRobGBzSu5OPNTAKKKVGq6xAu4cNdwatDlCmWmeF20PEo49p2NZev+hZ8DxkIRMANTN9xAvXp1gchfsOtskd8y0UTgxKnYgpOOwqYLPt66BH0SvsJHS85AX9oI27b7AwxYDniunw+PFtalDwzdx+U/YmDRdgy8PYQC1DCa/a+00Moa4fWONoZhQXoo1vn+jvYLP0Uvw1VpxgrI7TF251XcuHGj4O/qtn+itoUrll8Mxy6vRvxbvMyI1Di97yycB/YD15jM1FSeM6jCCZ5rl6KffB/mTd6Mi9K3ePLpkHxyM76OqIaGFvYY4NEVOO6NAUMXYc+py7h65t9YtPwE8uqk4caVO3h0NwaZ1evoTxQ6HXRE0BVcmtBAoytyY1Uuh1y8dS1XwnbgULhUjcKmcSOxfN8ZnP89ACtnbMKN2vWltjQanfhQBWAzFAvndMbd9dOxIkwsSHVI/PM6UjIe4N4jYUVZN3Ek5A40ebnIzUtD2uNE/DzDE9tzhmPjpvdRT9gY0grFkbQB7K9Q3zmJAyF3kf/UwaPzm3Cg9ixM72Suv3KdHoY1ExchoecA1I8PxdmzITh16DvMm75BOHbSIuylp4S1gzOaNm1a8NfEpioUMivUaeSMBtbmhvlEBK3QV6X+WtZnX8aeRH0a+0KaYGD/2nyrnJke/aOZFXvK2V4IGdf/TfPebkX2DV+ndyfMoLnzZtEns71p6a5wyjDMQ5poCpzrQvYqGclkcqrqPJg2hGWQJmI5vaGyIrs2w2jTdQ1p71+k3Qv6UF2FilqMXkdHb0TQ4dUjqJmZkhq4TaG5c6bQ4G7tqdeEzRQqPfCvobgD88nFTiW0KyNl7fbk6R9BeZRDUYdX04hmZqSo3498d/9B99VXaFm36mTZdAgtORBFWZe+JLe6SlJUt6d2b35COzaMIlsza2o/bhmt+9iF6lq1pJlHHtCDi7vI270eKcyc6b1VBynC8H2kF8GLHyd5FL6iG1VTVCdn1/do1PvDaezcnfRnZv7ky7TGrS4pZNLzEoV/MnPqtPgaP3D/nJhSvslX5hd/NHF02n8ZDXEW+r2NK83ZFkSRL1B/fZmZUoypj31E7Ty+5y+OveRMMS+KKuE/K6mnzUxGbNxDUA1bONSrVubtZZ06GXfvKVDPoTYspGu6WqTFJ0Bn44Ba/8v9aF0mku4+gMq2AYpd1HgCbUYiYh9awt6hprC9GqSlpMOqjjX+QhN/K9OIkyzEXw5DRJolHFu1g9P/dKDZs2CqvwfHTIcpxZg6+jwu6Vqgc+OSv8jMXiammhcrbZHJnj+OE2YMHEfsWeMYY6bGVGOWv9XAGGOMMcaMjotMxhhjjDFmdFxkMsYYY4wxo+MikzHGGGOMGR0XmYwxxhhjzOi4yGSMMcYYY0bHRSZjjDHGGDM6LjIZY4wxxpjRcZHJGGOMMcaMjotMxhhjjDFmdFxkMsYYY4wxo+MikzHGGGOMGR0XmYwxxhhjzOi4yGSMMcYYY0bHRSZjjDHGGDM6LjIZY4wxxpjRcZHJGGOMMcaMjotMxhhjjDFmdFxkMsYYY4wxo+MikzHGGGOMGR0XmYwxxhhjzOhkJDC8LpdMJjO8Yowxxhhjz9tTlGsvnKcqMhljjDHGGPsr+HY5Y4wxxhgzOi4yGWOMMcaY0XGRyRhjjDHGjI6LTMYYY4wxZnRcZDLGGGOMMaPjIpMxxhhjjBkdF5mMMcYYY8zouMhkjDHGGGNGx0UmY4wxxhgzOi4yGWOMMcaY0XGRyRhjjDHGjI6LTMYYY4wxZnRcZDLGGGOMMSMD/g9Y0S2HeyOPHgAAAABJRU5ErkJggg==;" vertex="1" parent="1">
          <mxGeometry x="1380" y="540" width="488.84" height="111" as="geometry" />
        </mxCell>
        <mxCell id="gWoi3BRGaY5b3Moeq6lq-1800" value="" style="endArrow=classic;html=1;rounded=0;" edge="1" parent="1">
          <mxGeometry width="50" height="50" relative="1" as="geometry">
            <mxPoint x="839.58" y="480" as="sourcePoint" />
            <mxPoint x="630" y="520" as="targetPoint" />
            <Array as="points">
              <mxPoint x="840" y="520" />
            </Array>
          </mxGeometry>
        </mxCell>
        <mxCell id="gWoi3BRGaY5b3Moeq6lq-1801" value="" style="endArrow=classic;html=1;rounded=0;" edge="1" parent="1">
          <mxGeometry width="50" height="50" relative="1" as="geometry">
            <mxPoint x="839.8000000000001" y="520" as="sourcePoint" />
            <mxPoint x="839.8000000000001" y="590" as="targetPoint" />
          </mxGeometry>
        </mxCell>
        <mxCell id="gWoi3BRGaY5b3Moeq6lq-1802" value="Хи- квадрат&lt;br&gt;" style="rounded=0;whiteSpace=wrap;html=1;" vertex="1" parent="1">
          <mxGeometry x="1350" y="460" width="120" height="60" as="geometry" />
        </mxCell>
        <mxCell id="gWoi3BRGaY5b3Moeq6lq-1804" value="Проверка гипотез о принадлежности определенному виду распределения&lt;br&gt;" style="rounded=0;whiteSpace=wrap;html=1;" vertex="1" parent="1">
          <mxGeometry x="1150.5" y="685" width="140" height="90" as="geometry" />
        </mxCell>
        <mxCell id="gWoi3BRGaY5b3Moeq6lq-1805" value="Проверка насколько данные отличаются от ожидаемых(теоретических)" style="rounded=0;whiteSpace=wrap;html=1;" vertex="1" parent="1">
          <mxGeometry x="1550" y="700" width="140" height="90" as="geometry" />
        </mxCell>
        <mxCell id="gWoi3BRGaY5b3Moeq6lq-1812" value="" style="endArrow=classic;html=1;rounded=0;exitX=0;exitY=0.5;exitDx=0;exitDy=0;" edge="1" parent="1" source="gWoi3BRGaY5b3Moeq6lq-1802" target="gWoi3BRGaY5b3Moeq6lq-1795">
          <mxGeometry width="50" height="50" relative="1" as="geometry">
            <mxPoint x="1350" y="500" as="sourcePoint" />
            <mxPoint x="1240" y="500" as="targetPoint" />
            <Array as="points">
              <mxPoint x="1221" y="490" />
            </Array>
          </mxGeometry>
        </mxCell>
        <mxCell id="gWoi3BRGaY5b3Moeq6lq-1819" value="" style="endArrow=classic;html=1;rounded=0;" edge="1" parent="1" target="gWoi3BRGaY5b3Moeq6lq-1805">
          <mxGeometry width="50" height="50" relative="1" as="geometry">
            <mxPoint x="1620" y="640" as="sourcePoint" />
            <mxPoint x="1670" y="590" as="targetPoint" />
          </mxGeometry>
        </mxCell>
        <mxCell id="gWoi3BRGaY5b3Moeq6lq-1825" value="" style="endArrow=classic;html=1;rounded=0;" edge="1" parent="1">
          <mxGeometry width="50" height="50" relative="1" as="geometry">
            <mxPoint x="534.58" y="580" as="sourcePoint" />
            <mxPoint x="534.58" y="700" as="targetPoint" />
          </mxGeometry>
        </mxCell>
        <mxCell id="gWoi3BRGaY5b3Moeq6lq-1826" value="Условие для выборок:&lt;br&gt;1) Выборки нормально распределены&amp;nbsp;&lt;br&gt;2) Дисперсии выборок практически одинаковы" style="rounded=0;whiteSpace=wrap;html=1;" vertex="1" parent="1">
          <mxGeometry x="440" y="475" width="190" height="120" as="geometry" />
        </mxCell>
        <mxCell id="gWoi3BRGaY5b3Moeq6lq-1828" value="" style="endArrow=classic;html=1;rounded=0;exitX=0;exitY=0.5;exitDx=0;exitDy=0;" edge="1" parent="1" source="gWoi3BRGaY5b3Moeq6lq-1786">
          <mxGeometry width="50" height="50" relative="1" as="geometry">
            <mxPoint x="530" y="790" as="sourcePoint" />
            <mxPoint x="320" y="920" as="targetPoint" />
            <Array as="points">
              <mxPoint x="320" y="745" />
            </Array>
          </mxGeometry>
        </mxCell>
        <mxCell id="gWoi3BRGaY5b3Moeq6lq-1829" value="Алгоритм" style="text;html=1;strokeColor=none;fillColor=none;align=center;verticalAlign=middle;whiteSpace=wrap;rounded=0;" vertex="1" parent="1">
          <mxGeometry x="660" y="827" width="60" height="30" as="geometry" />
        </mxCell>
        <mxCell id="gWoi3BRGaY5b3Moeq6lq-1834" value="Гипотеза - среднее в выборке равняется среднему в ГС" style="rounded=0;whiteSpace=wrap;html=1;" vertex="1" parent="1">
          <mxGeometry x="280" y="920" width="120" height="60" as="geometry" />
        </mxCell>
      </root>
    </mxGraphModel>
  </diagram>
</mxfile>
